<svg width="20" height="20" viewBox="0 0 20 20" fill="none" xmlns="http://www.w3.org/2000/svg">
<path d="M10 1C5.01444 1 1 5.04663 1 10C1 14.9531 5.04663 19 10 19C14.9533 19.0323 19 14.9855 19 10C19 5.04674 14.9534 1 10 1ZM10 17.931C5.62952 17.931 2.06845 14.37 2.06845 9.99947C2.06845 5.62894 5.62947 2.06792 10 2.06792C14.3705 2.06792 17.9316 5.62894 17.9316 9.99947C17.9316 14.37 14.3705 17.931 10 17.931Z" fill="white" stroke="white" stroke-width="0.5"/>
<path d="M13.9181 9.4818H10.5512V6.11496C10.5512 5.82356 10.2923 5.56464 10.0009 5.56464C9.7095 5.56464 9.45058 5.82356 9.45058 6.11496L9.45037 9.4818H6.08352C5.79213 9.4818 5.5332 9.74073 5.5332 10.0321C5.5332 10.3235 5.79213 10.5824 6.08352 10.5824H9.45037V13.9493C9.45037 14.2407 9.7093 14.4996 10.0007 14.4996C10.2921 14.4996 10.551 14.2407 10.551 13.9493L10.5512 10.5502H13.9181C14.2095 10.5502 14.4684 10.2913 14.4684 9.99988C14.4684 9.70848 14.2093 9.48182 13.9181 9.48182V9.4818Z" fill="white" stroke="white" stroke-width="0.5"/>
</svg>
