<svg width="14" height="16" viewBox="0 0 14 16" fill="none" xmlns="http://www.w3.org/2000/svg">
<path d="M11.8348 8.25069C11.6701 8.18252 11.5629 8.02169 11.5638 7.84339V5.96715C11.5629 5.00277 11.2666 4.06204 10.7151 3.27107C10.1636 2.4798 9.38311 1.87672 8.47847 1.5425C8.44875 0.981665 8.13235 0.476169 7.64111 0.204085C7.1502 -0.0680284 6.55352 -0.0680284 6.06261 0.204085C5.5714 0.476199 5.25501 0.981703 5.22525 1.5425C4.32002 1.87639 3.53897 2.47921 2.98712 3.27047C2.43502 4.06144 2.13842 5.00255 2.13723 5.96715V7.84339C2.1381 8.0214 2.03118 8.18223 1.86657 8.25069C1.32409 8.46396 0.857369 8.83367 0.524946 9.31232C0.192523 9.7913 0.00985124 10.358 -0.000351904 10.941C-0.0166672 11.7285 0.287208 12.4889 0.842228 13.048C1.41035 13.6245 2.18564 13.95 2.99526 13.9517H5.22056V13.9648C5.22056 14.5475 5.53142 15.0862 6.03636 15.3775C6.54097 15.6692 7.16296 15.6692 7.6676 15.3775C8.17249 15.0862 8.4834 14.5475 8.4834 13.9648V13.952H10.7093V13.9517C11.5187 13.9499 12.2936 13.6245 12.862 13.048C13.4167 12.4889 13.7209 11.7285 13.7049 10.9409C13.6941 10.3577 13.5109 9.79071 13.1782 9.31203C12.8451 8.83305 12.3779 8.46363 11.8347 8.25069H11.8348ZM11.6946 11.9062C11.4344 12.1719 11.0778 12.3214 10.7058 12.3205H2.99375C2.6217 12.3214 2.26481 12.1719 2.00461 11.9062C1.75842 11.6583 1.62295 11.3212 1.62877 10.9719C1.63344 10.7111 1.71531 10.4574 1.86388 10.2432C2.01247 10.0291 2.22137 9.86363 2.46406 9.76806C2.8498 9.61598 3.18048 9.35056 3.413 9.00738C3.6452 8.66388 3.76844 8.25803 3.76611 7.84349V5.96724C3.76611 4.86593 4.35375 3.8483 5.30732 3.29735C6.26118 2.7467 7.43648 2.7467 8.39034 3.29735C9.3442 3.84828 9.93185 4.86593 9.93185 5.96724V7.84349C9.92952 8.25837 10.0531 8.66392 10.2855 9.00738C10.5183 9.35088 10.8493 9.616 11.2353 9.76806C11.478 9.86362 11.6869 10.0288 11.8355 10.2432C11.9841 10.4574 12.0659 10.7111 12.0706 10.9719C12.0764 11.3212 11.9409 11.6583 11.6947 11.9062H11.6946Z" fill="white"/>
</svg>
