<svg width="18" height="20" viewBox="0 0 18 20" fill="none" xmlns="http://www.w3.org/2000/svg">
<path d="M16.3461 13.9095C16.3461 13.9095 15.128 13.8309 15.128 12.5736V8.80164C15.128 5.3303 12.2938 2.45581 8.82145 2.45581C5.3503 2.45581 2.5159 5.38324 2.5159 8.68376H2.47541V12.5737C2.47541 12.5737 2.51475 13.9096 1.25728 13.9096H0V16.385H17.6033V13.9096L16.3461 13.9095Z" fill="#EE3B33"/>
<path d="M10.0595 1.25728C10.0595 1.95164 9.49656 2.51456 8.8022 2.51456C8.10785 2.51456 7.54492 1.95164 7.54492 1.25728C7.54492 0.562726 8.10785 0 8.8022 0C9.49656 0 10.0595 0.562726 10.0595 1.25728Z" fill="#EE3B33"/>
<path d="M8.80191 20.0005C10.192 20.0005 11.3166 18.8611 11.3166 17.4858H6.28711C6.28711 18.8611 7.41177 20.0005 8.80182 20.0005H8.80191Z" fill="#EE3B33"/>
</svg>
