<svg width="34" height="34" viewBox="0 0 34 34" fill="none" xmlns="http://www.w3.org/2000/svg">
<path fill-rule="evenodd" clip-rule="evenodd" d="M0 17C0 7.61116 7.61116 0 17 0C26.3888 0 34 7.61116 34 17C34 26.3888 26.3888 34 17 34C7.61116 34 0 26.3888 0 17Z" fill="#D2002E"/>
<path fill-rule="evenodd" clip-rule="evenodd" d="M19.004 16.9997L24.5243 22.5201C25.0693 23.0651 25.0693 23.9793 24.5243 24.5243C23.9793 25.0693 23.0651 25.0693 22.5201 24.5243L16.9997 19.004L11.4794 24.5067C10.9344 25.0517 10.0202 25.0517 9.47516 24.5067C8.93016 23.9617 8.93016 23.0475 9.47516 22.5025L14.9955 16.9822L9.47516 11.4794C8.93016 10.9344 8.93016 10.0202 9.47516 9.47516C10.0202 8.93016 10.9344 8.93016 11.4794 9.47516L16.9997 14.9955L22.5025 9.47516C23.0475 8.93016 23.9617 8.93016 24.5067 9.47516C25.0517 10.0202 25.0517 10.9344 24.5067 11.4794L19.004 16.9997Z" fill="white"/>
</svg>
