<svg width="15" height="15" viewBox="0 0 15 15" fill="none" xmlns="http://www.w3.org/2000/svg">
<path fill-rule="evenodd" clip-rule="evenodd" d="M7.5 15C11.6421 15 15 11.6421 15 7.5C15 3.35786 11.6421 0 7.5 0C3.35786 0 0 3.35786 0 7.5C0 11.6421 3.35786 15 7.5 15Z" fill="#3AC75E"/>
<path d="M9.9722 5.52351L6.62981 8.90195L5.19933 7.69782C5.02052 7.54645 4.7523 7.56709 4.601 7.74599C4.4497 7.92489 4.47033 8.19324 4.64914 8.34461L6.37535 9.80333C6.45788 9.87214 6.55416 9.89966 6.65045 9.89966C6.76048 9.89966 6.87052 9.85837 6.95305 9.77581L10.5636 6.12214C10.7287 5.957 10.7287 5.68865 10.5636 5.52351C10.4055 5.35837 10.1373 5.35837 9.9722 5.52351Z" fill="white"/>
</svg>
