<svg width="22" height="20" viewBox="0 0 22 20" fill="none" xmlns="http://www.w3.org/2000/svg">
<path d="M2.69213 12.958H1.93689C1.51392 12.958 1.18164 12.6257 1.18164 12.2027V7.67126C1.18164 7.24829 1.51392 6.91602 1.93689 6.91602H2.69213L4.20262 7.67126L5.71311 6.91602H6.46835C6.89132 6.91602 7.2236 7.24829 7.2236 7.67126V12.2027C7.2236 12.6257 6.89132 12.958 6.46835 12.958H5.71311V17.4894H2.69213V12.958Z" stroke="#242424" stroke-miterlimit="10" stroke-linecap="round" stroke-linejoin="round"/>
<path d="M5.71336 4.02099C5.71336 4.85513 5.03701 5.53148 4.20287 5.53148C3.36873 5.53148 2.69238 4.85513 2.69238 4.02099C2.69238 3.18685 3.36873 2.5105 4.20287 2.5105C5.03701 2.5105 5.71336 3.18685 5.71336 4.02099Z" stroke="#242424" stroke-miterlimit="10" stroke-linecap="round" stroke-linejoin="round"/>
<path d="M16.2869 12.958H15.5316C15.1086 12.958 14.7764 12.6257 14.7764 12.2027V7.67126C14.7764 7.24829 15.1086 6.91602 15.5316 6.91602H16.2869L17.7973 7.67126L19.3078 6.91602H20.0631C20.486 6.91602 20.8183 7.24829 20.8183 7.67126V12.2027C20.8183 12.6257 20.486 12.958 20.0631 12.958H19.3078V17.4894H16.2869V12.958Z" stroke="#242424" stroke-miterlimit="10" stroke-linecap="round" stroke-linejoin="round"/>
<path d="M19.3071 4.02099C19.3071 4.85513 18.6308 5.53148 17.7966 5.53148C16.9625 5.53148 16.2861 4.85513 16.2861 4.02099C16.2861 3.18685 16.9625 2.5105 17.7966 2.5105C18.6308 2.5105 19.3071 3.18685 19.3071 4.02099Z" stroke="#242424" stroke-miterlimit="10" stroke-linecap="round" stroke-linejoin="round"/>
<path d="M12.5102 2.51049C12.5102 3.34463 11.8339 4.02098 10.9997 4.02098C10.1656 4.02098 9.48926 3.34463 9.48926 2.51049C9.48926 1.67635 10.1656 1 10.9997 1C11.8339 1 12.5102 1.67635 12.5102 2.51049Z" stroke="#242424" stroke-miterlimit="10" stroke-linecap="round" stroke-linejoin="round"/>
<path d="M8.73412 12.958V17.4894C8.73412 18.3232 9.41081 18.9999 10.2446 18.9999H11.7551C12.5889 18.9999 13.2656 18.3232 13.2656 17.4894V12.958H14.0208C14.4438 12.958 14.7761 12.6257 14.7761 12.2027V6.16076C14.7761 5.7378 14.4438 5.40552 14.0208 5.40552H12.5103L10.9999 6.91601L9.48937 5.40552H7.97888C7.55591 5.40552 7.22363 5.7378 7.22363 6.16076V12.2027C7.22363 12.6257 7.55591 12.958 7.97888 12.958H8.73412Z" stroke="#242424" stroke-miterlimit="10" stroke-linecap="round" stroke-linejoin="round"/>
</svg>
