<svg width="20" height="20" viewBox="0 0 20 20" fill="none" xmlns="http://www.w3.org/2000/svg">
<path d="M17.7529 4.00264e-05H5.55649C5.02463 0.000182954 4.51446 0.211584 4.13826 0.587666C3.76192 0.963719 3.55024 1.47373 3.5498 2.00559V3.79215L2.00581 3.79229C1.4741 3.79286 0.964228 4.00441 0.588175 4.38047C0.212122 4.75652 0.000548875 5.26639 0 5.7981V17.9945C0.000571745 18.5262 0.212118 19.0361 0.588175 19.412C0.964228 19.788 1.4741 19.9995 2.00581 20H14.2022C14.734 19.9999 15.2442 19.7885 15.6204 19.4124C15.9968 19.0363 16.2084 18.5263 16.2089 17.9944V16.2077H17.754C18.2858 16.2072 18.7956 15.9956 19.1717 15.6196C19.5477 15.2435 19.7593 14.7336 19.7598 14.2019V2.00555C19.7593 1.47369 19.5476 0.963679 19.1712 0.587626C18.795 0.211573 18.2849 0.000146367 17.7529 0V4.00264e-05ZM14.9577 17.9944C14.9576 18.1946 14.8778 18.3867 14.7362 18.5284C14.5945 18.67 14.4024 18.7498 14.2022 18.7499H2.00578C1.80553 18.7498 1.61341 18.67 1.47177 18.5284C1.33012 18.3867 1.25036 18.1946 1.25021 17.9944V5.798C1.25036 5.59774 1.33012 5.40562 1.47177 5.26398C1.61342 5.12233 1.80552 5.04257 2.00578 5.04228H14.2022C14.4024 5.04257 14.5945 5.12233 14.7362 5.26398C14.8778 5.40563 14.9576 5.59773 14.9577 5.798V17.9944ZM18.5084 14.202C18.5083 14.4023 18.4285 14.5944 18.2869 14.736C18.1452 14.8777 17.9531 14.9574 17.7528 14.9577H16.2089V5.79809C16.2084 5.26638 15.9969 4.75651 15.6208 4.38045C15.2449 4.0044 14.735 3.79283 14.2033 3.79228H4.8022V2.00558C4.80234 1.80532 4.8821 1.61321 5.02375 1.47156C5.1654 1.32991 5.3575 1.25015 5.55777 1.25001H17.753C17.9533 1.25015 18.1454 1.32991 18.2871 1.47156C18.4287 1.61321 18.5085 1.80532 18.5086 2.00558L18.5084 14.202Z" fill="white"/>
</svg>
