<svg width="16" height="16" viewBox="0 0 16 16" fill="none" xmlns="http://www.w3.org/2000/svg">
<path d="M15.3411 1.71791L14.2809 0.657698C13.4048 -0.219233 11.9771 -0.219233 11.1002 0.657698L1.55959 10.1994C1.49948 10.2595 1.45562 10.3334 1.4324 10.4152L0.0192584 15.3628C-0.0307908 15.5377 0.0184844 15.7249 0.146449 15.8536C0.242033 15.9492 0.369094 16 0.500154 16C0.546333 16 0.592644 15.9938 0.637274 15.9808L5.58473 14.5669C5.66639 14.5438 5.7412 14.4998 5.80131 14.4397L15.3412 4.89861C15.7665 4.47409 16 3.9092 16 3.30821C16 2.70722 15.7665 2.14246 15.3412 1.71781L15.3411 1.71791ZM5.18465 13.6423L1.22655 14.7726L2.35771 10.8151L10.0408 3.13196L12.8678 5.95904L5.18465 13.6423ZM14.6344 4.19234L13.5742 5.25254L10.7472 2.42546L11.8074 1.36525C12.2943 0.878293 13.0873 0.879052 13.575 1.36525L14.6352 2.42546C14.8718 2.66127 15.0011 2.97563 15.0011 3.30923C15.0005 3.64217 14.8702 3.95576 14.6344 4.19234V4.19234Z" fill="white"/>
</svg>
