<svg width="27" height="22" viewBox="0 0 27 22" fill="none" xmlns="http://www.w3.org/2000/svg">
<path d="M23.5786 21.0049H4.28497C4.05426 21.0049 3.86719 20.8178 3.86719 20.5871V7.10529C3.86719 6.87457 4.05426 6.6875 4.28497 6.6875C4.51587 6.6875 4.70276 6.87457 4.70276 7.10529V20.1693H23.1608V7.10529C23.1608 6.87457 23.3477 6.6875 23.5786 6.6875C23.8093 6.6875 23.9963 6.87457 23.9963 7.10529V20.5871C23.9963 20.6979 23.9523 20.804 23.874 20.8825C23.7955 20.9609 23.6893 21.0049 23.5786 21.0049Z" fill="#242424" stroke="black" stroke-width="0.1"/>
<path d="M26.4657 9.1903C26.3909 9.18899 26.3176 9.16903 26.2527 9.13173L13.9321 1.89998L1.61143 9.13173C1.41317 9.23562 1.16829 9.16456 1.05619 8.97058C0.94409 8.7768 1.00471 8.52911 1.19364 8.40898L13.7272 1.05595C13.8565 0.981349 14.0158 0.981349 14.145 1.05595L26.6786 8.40898C26.877 8.52667 26.9425 8.78294 26.8248 8.98137C26.7508 9.10988 26.6139 9.18934 26.4656 9.19027L26.4657 9.1903Z" fill="#242424" stroke="black" stroke-width="0.1"/>
<path d="M19.9686 20.9991C19.7379 20.9991 19.5508 20.812 19.5508 20.5813V13.3199H8.31213V20.5813C8.31213 20.812 8.12506 20.9991 7.89435 20.9991C7.66364 20.9991 7.47656 20.812 7.47656 20.5813V12.9022C7.47656 12.6714 7.66364 12.4844 7.89435 12.4844H19.9686C20.0794 12.4844 20.1857 12.5284 20.264 12.6067C20.3424 12.6852 20.3864 12.7914 20.3864 12.9022V20.5813C20.3864 20.6921 20.3424 20.7982 20.264 20.8767C20.1857 20.9551 20.0794 20.9991 19.9686 20.9991Z" fill="#242424" stroke="black" stroke-width="0.1"/>
<path d="M19.9686 15.1715H7.89435C7.66364 15.1715 7.47656 14.9844 7.47656 14.7537C7.47656 14.523 7.66364 14.3359 7.89435 14.3359H19.9686C20.1993 14.3359 20.3864 14.523 20.3864 14.7537C20.3864 14.9844 20.1993 15.1715 19.9686 15.1715Z" fill="#242424" stroke="black" stroke-width="0.1"/>
<path d="M19.9686 17.1637H7.89435C7.66364 17.1637 7.47656 16.9766 7.47656 16.7459C7.47656 16.5152 7.66364 16.3281 7.89435 16.3281H19.9686C20.1993 16.3281 20.3864 16.5152 20.3864 16.7459C20.3864 16.9766 20.1993 17.1637 19.9686 17.1637Z" fill="#242424" stroke="black" stroke-width="0.1"/>
<path d="M19.9686 19.1403H7.89435C7.66364 19.1403 7.47656 18.9532 7.47656 18.7225C7.47656 18.4916 7.66364 18.3047 7.89435 18.3047H19.9686C20.1993 18.3047 20.3864 18.4916 20.3864 18.7225C20.3864 18.9532 20.1993 19.1403 19.9686 19.1403Z" fill="#242424" stroke="black" stroke-width="0.1"/>
<path d="M18.8502 11.5004C18.0222 11.498 17.2531 11.0724 16.8114 10.3724H11.0541C10.7404 10.8622 10.2597 11.2216 9.70133 11.3844C9.14293 11.5472 8.54442 11.5023 8.01658 11.2578C7.48873 11.0133 7.06742 10.586 6.83035 10.0548C6.77365 9.92535 6.78615 9.77614 6.86374 9.65789C6.94058 9.54113 7.07076 9.47063 7.21046 9.46988H8.61842V8.71376H7.18955C7.04985 8.71302 6.91967 8.64252 6.84282 8.52576C6.76673 8.40863 6.75423 8.26128 6.80944 8.13296C6.9952 7.7025 7.30333 7.33602 7.69538 7.079C8.08762 6.82217 8.54642 6.68602 9.01535 6.68751C9.84328 6.68975 10.6124 7.11537 11.0541 7.81553H16.8114C17.2531 7.11537 18.0222 6.68976 18.8502 6.68751C19.3191 6.68602 19.7779 6.82217 20.1701 7.079C20.5622 7.33601 20.8703 7.70253 21.0561 8.13296C21.1113 8.26128 21.0988 8.40863 21.0227 8.52576C20.9458 8.64252 20.8157 8.71302 20.676 8.71376H19.268V9.46988H20.676C20.8157 9.47063 20.9458 9.54113 21.0227 9.65789C21.1003 9.77614 21.1128 9.92535 21.0561 10.0548C20.8686 10.4839 20.5601 10.8493 20.1683 11.106C19.7766 11.3628 19.3185 11.4997 18.8502 11.5005L18.8502 11.5004ZM10.8077 9.53684H17.0745C17.2341 9.53647 17.3801 9.6273 17.4505 9.77072C17.6577 10.2075 18.0549 10.524 18.527 10.6287C18.9991 10.7331 19.4929 10.614 19.8652 10.3055H18.85C18.6193 10.3055 18.4322 10.1184 18.4322 9.88768V8.29599C18.4322 8.06527 18.6193 7.8782 18.85 7.8782H19.8527C19.5688 7.64861 19.2151 7.52327 18.85 7.52308C18.554 7.5229 18.2642 7.60645 18.0135 7.76387C17.763 7.92129 17.562 8.14622 17.4336 8.41294C17.3639 8.55935 17.2158 8.65224 17.0535 8.65112H10.8077C10.647 8.65056 10.5007 8.55805 10.4317 8.41294C10.3051 8.14493 10.1044 7.91886 9.85355 7.76129C9.60251 7.6035 9.31172 7.52088 9.01535 7.52312C8.65035 7.5233 8.29652 7.64864 8.01267 7.87824H9.01535C9.12614 7.87824 9.23245 7.92225 9.31079 8.00059C9.38912 8.07892 9.43314 8.18523 9.43314 8.29602V9.88771C9.43314 9.9985 9.38912 10.1048 9.31079 10.1831C9.23245 10.2615 9.12614 10.3055 9.01535 10.3055H8.01696C8.38924 10.614 8.88314 10.7332 9.35498 10.6287C9.82704 10.5241 10.2243 10.2076 10.4317 9.77076C10.502 9.62733 10.6479 9.5365 10.8077 9.53687L10.8077 9.53684Z" fill="#242424" stroke="black" stroke-width="0.1"/>
</svg>
