<svg width="20" height="20" viewBox="0 0 20 20" fill="none" xmlns="http://www.w3.org/2000/svg">
<path fill-rule="evenodd" clip-rule="evenodd" d="M9.92148 16.0077C9.27646 16.0077 8.78817 15.5128 8.78817 14.8659C8.78817 14.2624 9.33674 13.7497 9.9329 13.7497C10.5497 13.7497 11.0373 14.2523 11.0373 14.8659C11.0373 15.4982 10.5567 16.0077 9.92148 16.0077ZM8.90715 11.407C8.90715 11.0399 8.95252 10.6626 9.08704 10.3193C9.20253 10.0249 9.358 9.75205 9.56327 9.51061C9.80186 9.23013 10.0693 8.96426 10.3365 8.71044C10.5386 8.51786 10.7489 8.31988 10.9383 8.1146C11.0557 7.98706 11.1547 7.84523 11.2337 7.69072C11.3111 7.54065 11.3473 7.37789 11.3473 7.20878C11.3473 5.87877 9.09276 4.9041 8.59178 7.37059C8.29957 8.80975 6.57899 8.45504 6.57899 7.3303C6.57899 6.82266 6.76714 6.33977 6.99557 5.89432C7.58634 4.74356 8.75391 3.97735 10.0582 3.99258C11.7572 4.01225 13.4216 5.31656 13.4216 7.09996C13.4216 7.4902 13.3534 7.96897 13.1805 8.31924C13.0333 8.61811 12.8477 8.89668 12.6193 9.13939C12.2585 9.52266 11.8749 9.89482 11.4974 10.2625C11.3759 10.3809 11.255 10.5053 11.1493 10.6379C11.0814 10.7226 11.0123 10.8187 10.9656 10.9196C10.9263 11.0005 10.8936 11.0846 10.8717 11.1719C10.8359 11.313 10.8482 11.729 10.852 11.8873C10.873 12.7106 9.14987 12.8026 8.95506 12.0659C8.90081 11.861 8.90715 11.6186 8.90715 11.407ZM10.0002 0C15.5229 0 20.0003 4.47737 20.0003 10.0002C20.0003 15.5226 15.5229 20 10.0002 20C4.47737 20 0 15.5226 0 10.0002C0 4.47737 4.47737 0 10.0002 0Z" fill="#242424"/>
</svg>
