<svg width="20" height="22" viewBox="0 0 20 22" fill="none" xmlns="http://www.w3.org/2000/svg">
<path d="M0 6.39147V15.6079C0 16.243 0.341604 16.8349 0.891916 17.1527L8.87397 21.761C9.14184 21.9153 9.44123 21.9935 9.74151 21.9976C9.74983 21.9979 9.75726 22 9.76559 22C9.77391 22 9.78135 21.9979 9.78967 21.9976C10.0899 21.9935 10.3893 21.9156 10.6575 21.761L18.6396 17.1524C19.1896 16.8349 19.5312 16.2427 19.5312 15.6079V6.39147C19.5312 5.75583 19.1896 5.16419 18.6393 4.84667L10.6578 0.238736C10.1072 -0.0796778 9.42369 -0.0793805 8.87367 0.238439L0.892213 4.84667C0.341901 5.16419 0 5.75583 0 6.39147ZM18.342 15.6079C18.342 15.8196 18.2278 16.017 18.0447 16.1226L10.3602 20.5596V11.3431L18.342 6.73515V15.6079ZM9.46858 1.2683C9.56015 1.21538 9.66272 1.18892 9.76559 1.18892C9.86846 1.18892 9.97103 1.21538 10.0629 1.2686L17.7473 5.70529L14.3313 7.67732L6.34955 3.06908L9.46858 1.2683ZM5.16063 3.75556L13.1421 8.36379L9.76559 10.3129L1.78413 5.70469L5.16063 3.75556ZM1.18922 6.73486L9.17098 11.3431V20.5593L1.48682 16.1229C1.30339 16.017 1.18922 15.8193 1.18922 15.6079V6.73486Z" fill="#979797"/>
<path d="M12.693 14.9096C12.8304 14.9893 12.9847 15.0289 13.139 15.0289C13.2933 15.0289 13.4473 14.989 13.5849 14.9099L16.3532 13.3116C16.6282 13.1529 16.7991 12.8567 16.7991 12.5389V10.8291C16.7991 10.5116 16.6285 10.2158 16.3535 10.0567C16.0784 9.89766 15.7368 9.89796 15.4612 10.0564L12.693 11.6538C12.418 11.8126 12.2471 12.1087 12.2471 12.4265V14.1372C12.2471 14.4551 12.4177 14.7509 12.693 14.9096ZM13.4363 12.5984L15.6099 11.3441V12.3674L13.4363 13.6223V12.5984Z" fill="#979797"/>
</svg>
