<svg width="35" height="35" viewBox="0 0 35 35" fill="none"
    xmlns="http://www.w3.org/2000/svg">
    <path fill-rule="evenodd" clip-rule="evenodd" d="M17.5 35C27.165 35 35 27.165 35 17.5C35 7.83502 27.165 0 17.5 0C7.83502 0 0 7.83502 0 17.5C0 27.165 7.83502 35 17.5 35Z" fill="#00B7EE"/>
    <path d="M8 12.3915V21.6079C8 22.243 8.3416 22.8349 8.89192 23.1527L16.874 27.761C17.1418 27.9153 17.4412 27.9935 17.7415 27.9976C17.7498 27.9979 17.7573 28 17.7656 28C17.7739 28 17.7813 27.9979 17.7897 27.9976C18.0899 27.9935 18.3893 27.9156 18.6575 27.761L26.6396 23.1524C27.1896 22.8349 27.5312 22.2427 27.5312 21.6079V12.3915C27.5312 11.7558 27.1896 11.1642 26.6393 10.8467L18.6578 6.23874C18.1072 5.92032 17.4237 5.92062 16.8737 6.23844L8.89221 10.8467C8.3419 11.1642 8 11.7558 8 12.3915ZM26.342 21.6079C26.342 21.8196 26.2278 22.017 26.0446 22.1226L18.3602 26.5596V17.3431L26.342 12.7352V21.6079ZM17.4686 7.2683C17.5601 7.21538 17.6627 7.18892 17.7656 7.18892C17.8685 7.18892 17.971 7.21538 18.0629 7.2686L25.7473 11.7053L22.3313 13.6773L14.3495 9.06908L17.4686 7.2683ZM13.1606 9.75556L21.1421 14.3638L17.7656 16.3129L9.78413 11.7047L13.1606 9.75556ZM9.18922 12.7349L17.171 17.3431V26.5593L9.48682 22.1229C9.30339 22.017 9.18922 21.8193 9.18922 21.6079V12.7349Z" fill="white"/>
    <path d="M20.6921 20.9073C20.8294 20.9869 20.9837 21.0265 21.138 21.0265C21.2923 21.0265 21.4463 20.9866 21.584 20.9075L24.3522 19.3092C24.6272 19.1505 24.7981 18.8544 24.7981 18.5365V16.8267C24.7981 16.5092 24.6275 16.2134 24.3525 16.0543C24.0775 15.8953 23.7359 15.8956 23.4603 16.054L20.6921 17.6515C20.417 17.8102 20.2461 18.1063 20.2461 18.4242V20.1349C20.2461 20.4527 20.4167 20.7485 20.6921 20.9073ZM21.4353 18.596L23.6089 17.3417V18.365L21.4353 19.6199V18.596Z" fill="white"/>
</svg>
