<svg width="50" height="50" viewBox="0 0 50 50" fill="none" xmlns="http://www.w3.org/2000/svg">
<path opacity="0.2" fill-rule="evenodd" clip-rule="evenodd" d="M25 50C38.8071 50 50 38.8071 50 25C50 11.1929 38.8071 0 25 0C11.1929 0 0 11.1929 0 25C0 38.8071 11.1929 50 25 50Z" fill="#00B7EE"/>
<path fill-rule="evenodd" clip-rule="evenodd" d="M24.6667 41.3333C33.8714 41.3333 41.3333 33.8714 41.3333 24.6667C41.3333 15.4619 33.8714 8 24.6667 8C15.4619 8 8 15.4619 8 24.6667C8 33.8714 15.4619 41.3333 24.6667 41.3333Z" fill="#00B7EE"/>
<path d="M31.1115 28.0295C31.1274 28.0295 31.1274 28.0295 31.1434 28.0295H31.845C31.9566 28.0295 32.0523 27.9179 32.0363 27.8063C31.8769 26.8336 30.6172 26.419 30.1388 26.2915C30.0272 26.2596 29.9156 26.1798 29.8677 26.0682L29.1024 24.4418C29.198 24.4896 29.3097 24.5215 29.4213 24.5215H29.8199C29.8837 24.5215 29.9315 24.4737 29.9315 24.4099V23.0864C29.9315 23.0227 29.8837 22.9748 29.8199 22.9748H29.4213C29.2299 22.9748 29.0705 23.0545 28.9429 23.1821C28.911 23.0705 28.8791 22.9589 28.8472 22.8313C28.7835 22.624 28.5283 22.64 28.2094 22.7197C27.7789 22.8313 27.3324 22.911 26.9019 22.9748L26.7265 22.9908C26.6627 22.7994 26.5192 22.64 26.296 22.5921L25.1639 22.3211C24.9725 22.0819 24.5739 21.6035 24.1912 21.1889C24.1434 21.1411 23.9361 20.9338 23.6969 20.8381C23.3142 20.6787 22.8996 20.7106 22.5329 20.9179C22.1821 21.1252 21.9429 21.476 21.8951 21.8905L21.5602 24.8404C21.5443 25.0318 21.6081 25.2231 21.7356 25.3666C21.8632 25.5101 22.0545 25.5899 22.2459 25.5899H25.0523L24.9566 28.0773C24.9406 28.4441 25.2277 28.763 25.6103 28.7789C25.6263 28.7789 25.6263 28.7789 25.6422 28.7789C26.009 28.7789 26.3119 28.4919 26.3279 28.1252L26.4554 24.9202C26.4554 24.7288 26.3917 24.5534 26.2641 24.4258C26.1365 24.2983 25.9611 24.2186 25.7698 24.2186H24.0158L24.1274 22.911C24.2709 23.0864 24.3666 23.1981 24.3666 23.1981C24.4463 23.2937 24.558 23.3735 24.6855 23.4053L26.009 23.7243C26.0568 23.7402 26.1047 23.7402 26.1525 23.7402C26.296 23.7402 26.4236 23.6924 26.5192 23.6126L27.0773 23.5489C27.0933 23.6286 27.1092 23.7243 27.1252 23.8199C27.1889 24.2664 27.3324 24.4577 27.5876 24.4896C27.7949 25.2391 28.0181 26.3871 28.1616 27.1206C28.2254 27.4714 28.1297 27.8381 27.8905 28.0933L27.1252 28.9384C26.9816 29.0819 26.8062 29.1616 26.599 29.1616H24.3347C24.0796 29.1616 23.8883 28.9543 23.8883 28.6992L23.9201 27.2003H24.1593C24.3028 27.2003 24.4304 27.0887 24.4782 26.9452L24.5898 26.4668C24.6377 26.2596 24.4782 26.0682 24.2709 26.0682H17.8609C17.5739 26.0682 17.4782 26.435 17.7015 26.5944L18.7857 27.296C18.1479 27.9657 18.0363 28.9543 18.0204 29.4008C18.0204 29.5284 18.116 29.624 18.2436 29.624H18.706C18.6901 29.7038 18.6901 29.7835 18.6901 29.8632C18.6901 31.0432 19.6468 31.9999 20.8267 31.9999C21.927 31.9999 22.8359 31.1548 22.9475 30.0864C23.0431 30.1024 23.1388 30.1024 23.2345 30.1024H27.2687C27.5078 30.1024 27.7311 29.9908 27.8905 29.8154C27.8905 29.8313 27.8905 29.8473 27.8905 29.8473C27.8905 31.1069 28.9908 32.1115 30.2664 31.968C31.2072 31.8564 31.9725 31.1229 32.132 30.1981C32.2755 29.2892 31.8131 28.46 31.1115 28.0295ZM20.8267 31.091C20.157 31.091 19.599 30.5329 19.599 29.8632C19.599 29.7835 19.6149 29.7038 19.6149 29.624H20.3484C20.3165 29.6878 20.2846 29.7675 20.2846 29.8632C20.2846 30.1502 20.5238 30.3894 20.8108 30.3894C21.0978 30.3894 21.337 30.1502 21.337 29.8632C21.337 29.7835 21.3211 29.7038 21.2732 29.624H22.0226L22.0386 29.6719C22.0545 29.7356 22.0545 29.7835 22.0545 29.8473C22.0545 30.5329 21.4965 31.091 20.8267 31.091ZM30.0113 31.091C29.3416 31.091 28.7835 30.5329 28.7835 29.8632C28.7835 29.1935 29.3416 28.6354 30.0113 28.6354C30.681 28.6354 31.239 29.1935 31.239 29.8632C31.239 30.5329 30.6969 31.091 30.0113 31.091Z" fill="white"/>
<path d="M30.0106 30.3893C30.3012 30.3893 30.5368 30.1537 30.5368 29.8631C30.5368 29.5725 30.3012 29.3369 30.0106 29.3369C29.72 29.3369 29.4844 29.5725 29.4844 29.8631C29.4844 30.1537 29.72 30.3893 30.0106 30.3893Z" fill="white"/>
<path d="M24.1431 20.5831C24.8607 20.5831 25.4347 20.0091 25.4347 19.2916C25.4347 18.574 24.8607 18 24.1431 18C23.4256 18 22.8516 18.574 22.8516 19.2916C22.8516 20.0091 23.4256 20.5831 24.1431 20.5831Z" fill="white"/>
<path d="M20.9385 25.0959V22.3215C20.9385 22.0504 20.7153 21.8271 20.4442 21.8271H17.4943C17.2232 21.8271 17 22.0504 17 22.3215V25.0959C17 25.367 17.2232 25.5902 17.4943 25.5902H20.4282C20.7153 25.6062 20.9385 25.383 20.9385 25.0959Z" fill="white"/>
</svg>
