<svg width="14" height="16" viewBox="0 0 14 16" fill="none"
    xmlns="http://www.w3.org/2000/svg">
    <path d="M13.4979 14.6648L10.3008 10.5658C11.3199 9.50726 11.8988 8.10117 11.9205 6.63202C11.9422 5.16282 11.4051 3.74018 10.4177 2.65226C9.4304 1.564 8.06666 0.891489 6.60235 0.770631C5.13803 0.64975 3.68239 1.08968 2.53003 2.0013C1.37766 2.91288 0.614558 4.22818 0.395101 5.68098C0.175629 7.13377 0.516313 8.61569 1.34794 9.82711C2.17969 11.0384 3.44051 11.8885 4.87516 12.2056C6.30987 12.5225 7.81158 12.2828 9.07608 11.5347L12.2683 15.6261C12.3965 15.7898 12.5847 15.8956 12.7912 15.9203C12.9977 15.945 13.2055 15.8865 13.3688 15.7577C13.5299 15.6293 13.6338 15.4424 13.658 15.2377C13.6822 15.0331 13.6246 14.8271 13.498 14.6647L13.4979 14.6648ZM6.58426 10.9857C5.35061 11.1166 4.11796 10.7291 3.18111 9.91571C2.24422 9.10247 1.6874 7.93648 1.64371 6.69653C1.5999 5.45678 2.07334 4.25439 2.95055 3.37712C3.82775 2.49992 5.03003 2.02659 6.26995 2.07029C7.50987 2.11398 8.67581 2.6708 9.48914 3.60768C10.3025 4.54456 10.69 5.7771 10.559 7.01084C10.4511 8.02801 9.99764 8.97744 9.27433 9.70071C8.55103 10.424 7.60163 10.8775 6.58435 10.9855L6.58426 10.9857Z" fill="white"/>
    <path d="M8.45302 6.14189H6.54022V4.17685C6.54909 4.06429 6.5105 3.95317 6.43386 3.87032C6.35723 3.78737 6.24944 3.74023 6.13653 3.74023C6.02363 3.74023 5.91584 3.78737 5.8392 3.87032C5.76257 3.95316 5.72409 4.06428 5.73285 4.17685V6.14178H3.82004V6.14189C3.67366 6.14189 3.53836 6.21996 3.46505 6.34683C3.39186 6.47359 3.39186 6.62985 3.46505 6.75673C3.53836 6.88349 3.67366 6.96168 3.82004 6.96168H5.73285V8.9266C5.74937 9.13731 5.92526 9.2998 6.13653 9.2998C6.3479 9.2998 6.52369 9.13733 6.54021 8.9266V6.96168H8.45301C8.59951 6.96168 8.73481 6.88349 8.80801 6.75673C8.8812 6.62986 8.8812 6.4736 8.80801 6.34683C8.73481 6.21996 8.59951 6.14189 8.45301 6.14189L8.45302 6.14189Z" fill="white"/>
</svg>
