<svg width="49" height="49" viewBox="0 0 49 49" fill="none"
    xmlns="http://www.w3.org/2000/svg">
    <path opacity="0.5" fill-rule="evenodd" clip-rule="evenodd" d="M42.8811 49H36.7561V42.875H41.3499C42.1951 42.875 42.8811 42.1829 42.8811 41.3438V36.7378H49V42.875C49 46.2499 46.256 49 42.8811 49ZM42.8811 18.375H49V30.6189H42.8811V18.375ZM42.8811 7.65625C42.8811 6.80487 42.1951 6.125 41.3499 6.125H36.7561V0H42.8811C46.256 0 49 2.73788 49 6.125V12.25H42.8811V7.65625ZM18.3689 6.125V0H30.6189V6.125H18.3689ZM7.65625 6.125C6.80487 6.125 6.125 6.80487 6.125 7.65625V12.25H0V6.125C0 2.73788 2.744 0 6.125 0H12.25V6.125H7.65625ZM6.125 30.6189H0V18.375H6.125V30.6189ZM6.125 41.3438C6.125 42.1829 6.80487 42.875 7.65625 42.875H12.25V49H6.125C2.744 49 0 46.2499 0 42.875V36.7378H6.125V41.3438ZM30.6189 42.875V49H18.3689V42.875H30.6189Z" fill="#242424"/>
</svg>
