<svg width="21" height="21" viewBox="0 0 21 21" fill="none" xmlns="http://www.w3.org/2000/svg">
<path d="M13.9204 7.07887C13.8344 6.99541 13.7192 6.94873 13.5993 6.94873C13.4794 6.94873 13.3642 6.99541 13.2781 7.07887L7.08045 13.2855C7.03717 13.3262 7.00268 13.3752 6.9791 13.4297C6.95552 13.4841 6.94336 13.5429 6.94336 13.6022C6.94336 13.6616 6.95552 13.7203 6.9791 13.7747C7.00268 13.8292 7.03717 13.8783 7.08045 13.9189C7.12106 13.9621 7.17012 13.9966 7.22458 14.0202C7.27905 14.0438 7.33776 14.056 7.39711 14.056C7.45646 14.056 7.51518 14.0438 7.56965 14.0202C7.62411 13.9966 7.67317 13.9621 7.71378 13.9189L13.9204 7.72125C14.0039 7.63516 14.0506 7.51997 14.0506 7.40006C14.0506 7.28015 14.0039 7.16496 13.9204 7.07887Z" fill="#242424" stroke="#242424" stroke-width="0.3"/>
<path d="M13.2054 11.6021C12.8847 11.6021 12.5713 11.6973 12.3047 11.8757C12.0382 12.054 11.8307 12.3075 11.7083 12.6039C11.586 12.9004 11.5545 13.2265 11.6177 13.5409C11.681 13.8553 11.8361 14.1439 12.0635 14.37C12.2909 14.5961 12.5803 14.7496 12.8951 14.8111C13.2098 14.8726 13.5357 14.8392 13.8315 14.7152C14.1273 14.5913 14.3796 14.3823 14.5564 14.1148C14.7333 13.8472 14.8268 13.5332 14.825 13.2126C14.825 13.0003 14.783 12.7901 14.7015 12.5942C14.62 12.3982 14.5006 12.2202 14.3501 12.0706C14.1996 11.9209 14.021 11.8025 13.8245 11.7221C13.6281 11.6417 13.4177 11.6009 13.2054 11.6021ZM13.2054 13.9273C13.0174 13.9249 12.838 13.8486 12.7059 13.7148C12.5738 13.581 12.4997 13.4006 12.4997 13.2126C12.5195 13.038 12.6028 12.8768 12.7338 12.7598C12.8648 12.6428 13.0343 12.5781 13.21 12.5781C13.3856 12.5781 13.5551 12.6428 13.6861 12.7598C13.8171 12.8768 13.9005 13.038 13.9202 13.2126C13.9202 13.4021 13.8449 13.5839 13.7109 13.718C13.5768 13.852 13.395 13.9273 13.2054 13.9273Z" fill="#242424" stroke="#242424" stroke-width="0.3"/>
<path d="M9.39625 7.79261C9.39804 7.47153 9.30435 7.15717 9.12708 6.88946C8.94982 6.62175 8.69698 6.41277 8.40068 6.28907C8.10439 6.16538 7.77801 6.13254 7.46301 6.19474C7.14801 6.25694 6.85861 6.41137 6.63158 6.63841C6.40454 6.86545 6.25011 7.15485 6.18791 7.46985C6.12571 7.78484 6.15854 8.11122 6.28224 8.40752C6.40594 8.70381 6.61492 8.95665 6.88263 9.13392C7.15034 9.31118 7.4647 9.40487 7.78577 9.40309C8.21217 9.40071 8.62042 9.23027 8.92193 8.92876C9.22344 8.62725 9.39387 8.219 9.39625 7.79261ZM7.07101 7.79261C7.07101 7.60304 7.14632 7.42124 7.28036 7.2872C7.4144 7.15315 7.59621 7.07785 7.78577 7.07785C7.92714 7.07785 8.06533 7.11977 8.18287 7.19831C8.30042 7.27685 8.39203 7.38848 8.44613 7.51908C8.50023 7.64969 8.51438 7.7934 8.4868 7.93205C8.45922 8.0707 8.39115 8.19806 8.29119 8.29802C8.19123 8.39798 8.06387 8.46606 7.92522 8.49364C7.78657 8.52122 7.64285 8.50706 7.51225 8.45296C7.38164 8.39887 7.27001 8.30725 7.19147 8.18971C7.11293 8.07217 7.07101 7.93398 7.07101 7.79261Z" fill="#242424" stroke="#242424" stroke-width="0.3"/>
<path d="M18.8238 8.41C18.5041 8.11181 18.2351 7.76342 18.0276 7.37857C17.8943 6.94207 17.8331 6.4867 17.8467 6.03048C17.9237 5.23105 17.6941 4.43222 17.2043 3.79571C16.5678 3.30595 15.769 3.07632 14.9695 3.15333C14.5284 3.162 14.0887 3.10093 13.6667 2.97238C13.2818 2.76488 12.9334 2.49595 12.6352 2.17619C12.0989 1.52688 11.3354 1.10629 10.5 1C9.67939 1.11286 8.93232 1.53329 8.41 2.17619C8.11002 2.49398 7.76197 2.76266 7.37857 2.97238C6.94193 3.10511 6.48666 3.16622 6.03048 3.15333C5.22812 3.07489 4.42595 3.30454 3.78667 3.79571C3.29929 4.43311 3.07284 5.23214 3.15333 6.03048C3.15979 6.48694 3.0957 6.94167 2.96333 7.37857C2.759 7.76546 2.48968 8.11435 2.16714 8.41C1.52971 8.93561 1.11312 9.6816 1 10.5C1.10646 11.3185 1.52053 12.0658 2.1581 12.59C2.48587 12.9004 2.7582 13.2645 2.96333 13.6667C3.09606 14.1033 3.15717 14.5586 3.14429 15.0148C3.07037 15.8167 3.29956 16.6172 3.78667 17.2586C4.42725 17.7465 5.22929 17.9729 6.03048 17.8919C6.48685 17.8869 6.94136 17.9509 7.37857 18.0819C7.76396 18.2886 8.11247 18.5576 8.41 18.8781C8.94032 19.5022 9.68681 19.9029 10.5 20C11.3171 19.8892 12.0629 19.476 12.59 18.8419C12.8984 18.5119 13.263 18.2393 13.6667 18.0367C14.1032 17.9033 14.5585 17.8422 15.0148 17.8557C15.8138 17.9282 16.611 17.6991 17.2495 17.2133C17.7407 16.574 17.9703 15.7719 17.8919 14.9695C17.879 14.5133 17.9401 14.0581 18.0729 13.6214C18.2826 13.238 18.5513 12.89 18.869 12.59C19.4951 12.0601 19.8988 11.314 20 10.5C19.8828 9.68085 19.4632 8.93524 18.8238 8.41ZM18.1905 11.9748C17.7946 12.3496 17.467 12.7904 17.2224 13.2776C17.041 13.8134 16.9552 14.3769 16.969 14.9424C17.0274 15.5112 16.8971 16.0835 16.5981 16.571C16.1097 16.8764 15.5334 17.0101 14.9605 16.951C14.395 16.9371 13.8315 17.0229 13.2957 17.2043C12.7975 17.4516 12.3471 17.7856 11.9657 18.1905C11.4681 18.661 10.9886 19.0952 10.5 19.0952C10.0114 19.0952 9.53191 18.6519 9.02524 18.1905C8.65044 17.7946 8.20957 17.467 7.72238 17.2224C7.18957 17.0416 6.62915 16.9559 6.06667 16.969C5.49358 17.0303 4.9166 16.8964 4.42905 16.589C4.12168 16.1015 3.9878 15.5245 4.04905 14.9514C4.06221 14.3889 3.97646 13.8285 3.79571 13.2957C3.54745 12.8007 3.21358 12.3535 2.80952 11.9748C2.33905 11.4681 1.90476 10.9976 1.90476 10.5C1.90476 10.0024 2.3481 9.53191 2.80952 9.03429C3.21187 8.66097 3.54565 8.22001 3.79571 7.73143C3.97714 7.19566 4.06289 6.63215 4.04905 6.06667C3.98992 5.49371 4.12365 4.91741 4.42905 4.42905C4.91955 4.12935 5.4949 3.99903 6.06667 4.0581C6.62915 4.07125 7.18957 3.98551 7.72238 3.80476C8.21167 3.55198 8.65267 3.2151 9.02524 2.80952C9.53191 2.33905 10.0024 1.90476 10.5 1.90476C10.9976 1.90476 11.4681 2.35714 11.9657 2.80952C12.3383 3.2151 12.7793 3.55198 13.2686 3.80476C13.8043 3.98619 14.3678 4.07194 14.9333 4.0581C15.505 4.00104 16.0797 4.13122 16.571 4.42905C16.87 4.9198 17.0003 5.49494 16.9419 6.06667C16.9281 6.63215 17.0138 7.19566 17.1952 7.73143C17.448 8.22072 17.7849 8.66172 18.1905 9.03429C18.661 9.53191 19.0952 10.0114 19.0952 10.5C19.0952 10.9886 18.6338 11.4681 18.1905 11.9748Z" fill="#242424" stroke="#242424" stroke-width="0.3"/>
</svg>
