<svg viewBox="0 0 50 50" xmlns="http://www.w3.org/2000/svg"><path d="m25 50a25 25 0 1 0 -25-25 25 25 0 0 0 25 25z" fill="#00b7ee" fill-rule="evenodd" opacity=".2"/><path d="m24.67 41.33a16.67 16.67 0 1 0 -16.67-16.66 16.66 16.66 0 0 0 16.67 16.66z" fill="#00b7ee" fill-rule="evenodd"/><path d="m28.77 24.62c-.54-.11-1.08-.2-1.61-.33a3.79 3.79 0 0 0 -4.71 4.71c.14.53.21 1.07.31 1.61h-4.87v-10.91l2.72-.16.32 3.39h4.6l.22-3.17h3z" fill="#03b7ed"/><path d="m24.9 20.28a7.32 7.32 0 0 1 -1.79 1.45c-.23.09-.86-.88-1.31-1.36l2.5-1z" fill="#21c0ef"/><path d="m29.21 28.44c-1 .74-1.91 1.88-3 2.11-1.72.36-2.83-.85-2.88-2.58a2.43 2.43 0 0 1 2.8-2.72c1.1.16 2.06 1.34 3.08 2.07z" fill="#1be"/><path d="m28.73 24.59c0 .22-.07.51 0 .65 1.42 1.81 1.58 3.67-.07 5.32s-3.52 1.47-5.32.07c-.14-.11-.43 0-.65 0-.1-.54-.17-1.08-.31-1.61a3.79 3.79 0 0 1 4.71-4.73c.53.13 1.07.22 1.61.33zm.48 3.85v-1.12c-1-.73-2-1.91-3.08-2.07a2.43 2.43 0 0 0 -2.82 2.75c.05 1.73 1.16 2.94 2.88 2.58 1.11-.26 2.02-1.4 3.02-2.14z" fill="#ddf5fc"/><path d="m24.81 31c-1.06 2.25-3 .76-4.49.91-.44 0-1.43-1.33-1.48-2.09a60.15 60.15 0 0 1 0-8.7 3 3 0 0 1 2.1-2.12 58.75 58.75 0 0 1 8.7 0c.77.05 2.14 1.05 2.09 1.49-.18 1.49 1.34 3.43-.92 4.48v-4.84h-3l-.22 3.17h-4.59l-.32-3.39-2.68.16v10.93h4.87zm2.19-10.35-.6-.95-2.49 1c.44.48 1.08 1.45 1.3 1.36a7.32 7.32 0 0 0 1.79-1.41z" fill="#e1f6fc"/></svg>