<svg width="20" height="24" viewBox="0 0 20 24" fill="none" xmlns="http://www.w3.org/2000/svg">
<path d="M9.17473 19.8968L2.04211 21.7032V2.29684L9.17473 4.10316V8.96632H10.1937V3.29264L1 1V23L10.1937 20.7074V15.0337H9.17473V19.8968Z" fill="#242424" stroke="#242424" stroke-width="0.3"/>
<path d="M14.8156 7.28456L14.7113 7.18016L14.6052 7.28289L13.8642 8.00079L13.7547 8.10683L13.8625 8.21459L16.9875 11.3396H5.53906H5.38906V11.4896V12.5085V12.6585H5.53906H17.0338L13.8625 15.8298L13.7547 15.9376L13.8642 16.0436L14.6052 16.7615L14.7113 16.8642L14.8156 16.7598L19.4472 12.1283L19.5533 12.0222L19.4472 11.9161L14.8156 7.28456Z" fill="#00B7EE" stroke="#00B7EE" stroke-width="0.3"/>
</svg>
