<svg width="18" height="18" viewBox="0 0 18 18" fill="none" xmlns="http://www.w3.org/2000/svg">
<path d="M9.32823 1.0002C7.11937 1.0002 5.00118 1.87769 3.43938 3.43945C1.87746 5.00138 1 7.11977 1 9.3283C1 11.5372 1.87749 13.6554 3.43938 15.2175C5.00118 16.7793 7.11937 17.6567 9.32823 17.6567C11.5371 17.6567 13.6553 16.7792 15.2171 15.2175C16.779 13.6556 17.6563 11.5372 17.6563 9.3283C17.6559 7.11971 16.7783 5.00158 15.2165 3.43979C13.6548 1.87812 11.5369 1.00054 9.32803 1L9.32823 1.0002ZM9.32823 16.7891C7.34952 16.7891 5.45185 16.0031 4.05266 14.6039C2.65347 13.2049 1.86749 11.3072 1.86749 9.32837C1.86749 7.34966 2.65347 5.45198 4.05266 4.05279C5.45185 2.6536 7.34952 1.86762 9.32823 1.86762C11.3069 1.86762 13.2046 2.6536 14.6038 4.05279C16.003 5.45185 16.789 7.34953 16.789 9.32837C16.786 11.3063 15.9989 13.2021 14.6005 14.6006C13.202 15.9992 11.306 16.7862 9.3283 16.789L9.32823 16.7891Z" fill="white" stroke="white" stroke-width="0.5"/>
<path d="M9.74713 8.98195V6.60255C10.2002 6.67652 10.6254 6.8706 10.978 7.16454C11.1172 7.29392 11.3349 7.28595 11.4643 7.14676C11.5936 7.00757 11.5856 6.78997 11.4464 6.66059C10.97 6.23936 10.3767 5.97328 9.74515 5.898V5.26846C9.74515 5.07712 9.59002 4.92188 9.39857 4.92188C9.2071 4.92188 9.05198 5.07714 9.05198 5.26846V5.89238C7.87157 6.01418 7.03968 6.79546 7.03968 7.81839C7.03968 8.96314 8.35118 9.32856 9.05198 9.50458V12.139C8.51432 12.0171 7.76859 11.7043 7.47255 11.4269V11.4271C7.33846 11.293 7.12125 11.293 6.98729 11.4271C6.8532 11.561 6.8532 11.7784 6.98729 11.9123C7.4033 12.3284 8.37564 12.7273 9.04833 12.8323V13.4056H9.0482C9.0482 13.597 9.20347 13.7522 9.39479 13.7522C9.58626 13.7522 9.74151 13.597 9.74151 13.4056V12.8435C10.6259 12.7386 11.7538 12.2196 11.7538 11.0392C11.7837 10.1268 11.0492 9.38105 9.74713 8.98194L9.74713 8.98195ZM9.05393 8.79453C8.49181 8.63901 7.74243 8.37852 7.74243 7.82219C7.74243 7.09332 8.38504 6.69795 9.05393 6.59119L9.0538 8.79088L9.05393 8.79453ZM9.74713 12.167V9.7108C10.371 9.93559 11.0586 10.3534 11.0586 11.0636C11.0829 11.8281 10.2342 12.0697 9.74713 12.1559V12.167Z" fill="white" stroke="white" stroke-width="0.5"/>
</svg>
