<svg width="21" height="20" viewBox="0 0 21 20" fill="none" xmlns="http://www.w3.org/2000/svg">
<path d="M20.0377 14.5551V18.9905C20.0377 19.0788 20.025 19.1609 20.0061 19.2366C19.9178 19.6719 19.533 20 19.0788 20L0.952689 19.9998C0.466841 19.9998 0.0631926 19.6275 0.0126746 19.1543C0 19.0975 0 19.0471 0 18.9839V14.5485C0 14.0248 0.428997 13.6021 0.946368 13.6021C1.20496 13.6021 1.44474 13.7093 1.61513 13.8798C1.78553 14.0502 1.89274 14.2899 1.89274 14.5485V18.1006H18.1513V14.5485C18.1513 14.0248 18.5803 13.6021 19.0977 13.6021C19.3563 13.6021 19.5961 13.7094 19.7665 13.8798C19.9305 14.0567 20.0378 14.2964 20.0378 14.555L20.0377 14.5551Z" fill="white"/>
<path d="M15.4762 10.1134L10.8263 14.7633C10.82 14.7759 10.8073 14.7823 10.8012 14.7884C10.6308 14.9588 10.41 15.066 10.1893 15.0975C10.1703 15.0975 10.1514 15.1039 10.1324 15.1039C10.0946 15.1102 10.0567 15.1102 10.0189 15.1102L9.91166 15.1039C9.89265 15.1039 9.87382 15.0975 9.8548 15.0975C9.62772 15.066 9.41313 14.9588 9.24291 14.7884C9.23657 14.7821 9.2239 14.7694 9.21774 14.7633L4.56791 10.1134C4.35333 9.89884 4.24612 9.61506 4.24612 9.33115C4.24612 9.0472 4.35333 8.76323 4.56791 8.54886C4.99691 8.11986 5.6972 8.11986 6.13253 8.54886L8.92747 11.3438L8.9273 1.1041C8.9273 0.498375 9.42567 0 10.0314 0C10.3342 0 10.6118 0.126218 10.8137 0.321792C11.0156 0.523707 11.1355 0.794976 11.1355 1.10408V11.3438L13.9304 8.54884C14.3594 8.11984 15.0597 8.11984 15.495 8.54884C15.9052 8.98418 15.9052 9.68441 15.4762 10.1134Z" fill="white"/>
</svg>
