<svg width="20" height="20" viewBox="0 0 20 20" fill="none" xmlns="http://www.w3.org/2000/svg">
<path d="M10 20C4.47205 20 0 15.5072 0 10C0 4.49275 4.47205 0 10 0C15.528 0 20 4.49275 20 10C20 15.5072 15.5072 20 10 20ZM10 1.22153C5.15528 1.22153 1.24224 5.15528 1.24224 10C1.24224 14.824 5.17598 18.7578 10 18.7578C14.824 18.7578 18.7578 14.824 18.7578 10C18.7578 5.15528 14.824 1.22153 10 1.22153Z" fill="#00B7EE"/>
<path d="M10.1049 4.6792C8.22076 4.6792 6.66797 6.21133 6.66797 8.11609C6.66797 8.42659 6.91637 8.67513 7.22701 8.67513C7.53751 8.67513 7.78605 8.42673 7.78605 8.11609C7.78605 6.83248 8.82125 5.79729 10.1049 5.79729C11.3885 5.79714 12.4237 6.83233 12.4237 8.11609C12.4237 9.3997 11.3885 10.4349 10.1049 10.4349C9.79436 10.4349 9.54582 10.6833 9.54582 10.9939V12.6709C9.54582 12.9814 9.79422 13.23 10.1049 13.23C10.4154 13.23 10.6639 12.9816 10.6639 12.6709V11.4907C12.2994 11.2215 13.5417 9.81374 13.5417 8.09527C13.5417 6.21118 12.0096 4.6792 10.1049 4.6792Z" fill="#00B7EE"/>
<path d="M10.89 14.9279C10.89 15.3625 10.5377 15.7147 10.1032 15.7147C9.66863 15.7147 9.31641 15.3624 9.31641 14.9279C9.31641 14.4934 9.66864 14.1411 10.1032 14.1411C10.5378 14.1411 10.89 14.4934 10.89 14.9279Z" fill="#00B7EE"/>
</svg>
