<svg width="63" height="63" viewBox="0 0 63 63" fill="none" xmlns="http://www.w3.org/2000/svg">
<path d="M54.4957 11.2942L63 2.78998L60.2105 0L49.0234 11.1871H47.0433C46.9777 7.1083 45.0619 4.17183 42.4415 4.17183H20.7395C18.1186 4.17183 16.2042 7.1083 16.1377 11.1871H9.88945C5.90073 11.1871 2.65545 14.4323 2.65545 18.4211V47.1384C2.65545 49.952 4.27362 52.3903 6.62521 53.5852L0 60.2105L2.78998 63L11.4183 54.3717H53.2928C57.2815 54.3717 60.5268 51.1264 60.5268 47.1377V18.4214C60.5268 14.8428 57.9119 11.8715 54.4949 11.2955L54.4957 11.2942ZM6.60226 47.1368V18.4195C6.60226 16.606 8.07696 15.1313 9.89042 15.1313H20.0836V11.4042C20.0836 9.53022 20.6563 8.41647 20.934 8.11606H42.2493C42.5274 8.41648 43.0996 9.52979 43.0996 11.4042V15.1313H45.0775L39.1613 21.0488C36.9805 19.532 34.3348 18.6388 31.4825 18.6388C24.0486 18.6388 18.0012 24.6863 18.0012 32.1201C18.0012 34.972 18.8936 37.6181 20.4108 39.7989L9.79057 50.4196C8.02343 50.3657 6.60205 48.9158 6.60205 47.1365L6.60226 47.1368ZM41.0187 32.1205C41.0187 37.3782 36.7409 41.6565 31.4832 41.6565C29.4114 41.6565 27.4932 40.99 25.9276 39.8633L39.2258 26.565C40.3522 28.1306 41.0187 30.0485 41.0187 32.1206V32.1205ZM21.947 32.1205C21.947 26.8628 26.2249 22.585 31.4825 22.585C33.2434 22.585 34.8919 23.0664 36.3091 23.9016L23.2639 36.9467C22.4292 35.5292 21.9474 33.8802 21.9474 32.1202L21.947 32.1205ZM56.5821 47.1368C56.5821 48.9502 55.1074 50.4249 53.294 50.4249H15.3661L23.1135 42.6776C25.4145 44.5062 28.3224 45.6022 31.4831 45.6022C38.917 45.6022 44.9644 39.5543 44.9644 32.1209C44.9644 28.9601 43.8684 26.0523 42.0403 23.7512L50.659 15.1325H53.2942C55.1077 15.1325 56.5824 16.6072 56.5824 18.4206L56.5821 47.1368Z" fill="#D3D3D3"/>
</svg>
