<svg width="22" height="16" viewBox="0 0 22 16" fill="none" xmlns="http://www.w3.org/2000/svg">
<path d="M16.3368 3.54688H1.59037C0.713465 3.54688 0 4.26034 0 5.13725V14.3911C0 15.2683 0.713465 15.9819 1.59037 15.9819H16.3368C17.214 15.9819 17.9277 15.2685 17.9277 14.3911V5.13725C17.9274 4.26034 17.2138 3.54704 16.3368 3.54704V3.54688ZM1.59037 4.41421H16.3368C16.7358 4.41421 17.0599 4.73811 17.0599 5.13681V6.72763L0.867225 6.72784V5.13703C0.867225 4.73852 1.19134 4.4142 1.59027 4.4142L1.59037 4.41421ZM16.3368 15.1143H1.59037C1.19145 15.1143 0.867333 14.7902 0.867333 14.3912V9.18582H17.06V14.3912C17.06 14.7897 16.7355 15.1143 16.337 15.1143H16.3368Z" fill="#242424"/>
<path d="M2.65039 13.043H10.9401V13.9107H2.65039V13.043Z" fill="#242424"/>
<path d="M12.0938 13.043H15.2769V13.9107H12.0938V13.043Z" fill="#242424"/>
<path d="M19.519 0.558594H4.77202C3.89511 0.558594 3.18164 1.27249 3.18164 2.1494V2.39042H4.04897V2.1494C4.04897 1.75048 4.37309 1.42636 4.77202 1.42636L19.519 1.42615C19.918 1.42615 20.2421 1.75026 20.2421 2.14919V11.4031C20.2421 11.8024 19.918 12.1261 19.519 12.1261H19.0852V12.9939H19.519C20.3955 12.9939 21.1092 12.2804 21.1092 11.4031L21.109 2.14919C21.109 1.2725 20.3956 0.558599 19.519 0.558599L19.519 0.558594Z" fill="#242424"/>
</svg>
