<svg width="18" height="22" viewBox="0 0 18 22" fill="none" xmlns="http://www.w3.org/2000/svg">
<path d="M0.731704 0C0.328269 0.00160756 0.00161851 0.327692 5.47234e-06 0.730469V21.2638C-0.00154371 21.6688 0.326028 21.9984 0.731704 22H12.4877C12.7279 22 12.8765 21.9155 13.0085 21.7838L17.4173 17.3824C17.5538 17.2438 17.6297 17.0568 17.6282 16.8624V0.730553C17.6266 0.327777 17.2999 0.00169214 16.8965 8.45842e-05L0.731704 0ZM1.46914 1.46094H16.1591V16.1319H12.4877C12.082 16.1304 11.7518 16.4574 11.7502 16.8624V18.329H10.284C9.87602 18.3274 9.54492 18.658 9.54652 19.0653C9.54731 19.4708 9.8777 19.7988 10.284 19.7972H11.7502V20.5333H1.46914V1.46094ZM2.93684 2.19716C2.53283 2.19874 2.20593 2.52573 2.20514 2.92906C2.20355 3.33409 2.53115 3.66371 2.93684 3.66529H6.61398C7.01968 3.66371 7.34727 3.33409 7.34568 2.92906C7.3449 2.52573 7.01799 2.19874 6.61398 2.19716H2.93684ZM2.93684 4.39575C2.53115 4.39733 2.20355 4.7269 2.20514 5.13189C2.20671 5.53467 2.53339 5.86081 2.93684 5.86236H9.54652C9.95221 5.86397 10.2824 5.53691 10.284 5.13189C10.2856 4.72465 9.95445 4.39415 9.54652 4.39575H2.93684ZM8.81195 6.5957C8.40626 6.59728 8.07866 6.92693 8.08025 7.33192V8.06239C6.87189 8.06239 5.87943 9.06032 5.87941 10.2667C5.87941 11.473 6.87187 12.4638 8.08025 12.4638H9.54938C9.96378 12.4638 10.2811 12.7806 10.2811 13.1943C10.2811 13.608 9.96377 13.9305 9.54938 13.9305H7.34855C6.9423 13.9289 6.61191 14.2569 6.61112 14.6624C6.6095 15.0697 6.94062 15.4001 7.34855 15.3985H8.08025V16.129C8.07863 16.534 8.40626 16.8637 8.81195 16.8652C9.21988 16.8668 9.55098 16.5363 9.54938 16.129V15.3985C10.7577 15.3985 11.7516 14.4006 11.7517 13.1943C11.7517 11.9879 10.7578 10.9971 9.54938 10.9971H8.08025C7.66586 10.9971 7.34855 10.6804 7.34855 10.2667C7.34856 9.85296 7.66586 9.53052 8.08025 9.53052H10.2811C10.6879 9.53285 11.0192 9.20474 11.02 8.79861C11.0216 8.39079 10.6896 8.06001 10.2811 8.06239H9.54938V7.33192C9.551 6.92468 9.21988 6.5941 8.81195 6.5957V6.5957ZM13.2194 17.5986H15.1189L13.2194 19.4993V17.5986Z" fill="#242424"/>
</svg>
