<svg width="18" height="24" viewBox="0 0 18 24" fill="none" xmlns="http://www.w3.org/2000/svg">
<path d="M7.53575 22.0064C7.72997 22.3109 7.99783 22.5616 8.31456 22.7353C8.6313 22.909 8.98669 23 9.34791 23C9.70913 23 10.0645 22.909 10.3813 22.7353C10.698 22.5616 10.9659 22.3109 11.1601 22.0064L16.3109 13.9476C17.1421 12.6896 17.6169 11.2299 17.685 9.72362C17.7531 8.21736 17.4118 6.72079 16.6976 5.39289C15.9834 4.065 14.9228 2.95537 13.6285 2.1819C12.3342 1.40843 10.8545 1 9.34674 1C7.83895 1 6.35931 1.40843 5.06502 2.1819C3.77073 2.95537 2.71012 4.065 1.99588 5.39289C1.28164 6.72079 0.940434 8.21736 1.00851 9.72362C1.07659 11.2299 1.55142 12.6896 2.38254 13.9476L7.53575 22.0064ZM9.34791 1.92736C10.6877 1.92781 12.0022 2.29134 13.1519 2.97931C14.3015 3.66728 15.2432 4.65396 15.8767 5.83443C16.5103 7.0149 16.8121 8.34501 16.7501 9.68332C16.688 11.0216 16.2644 12.3181 15.5243 13.4349L10.3734 21.503C10.2635 21.6746 10.1121 21.8158 9.93335 21.9136C9.75456 22.0113 9.55404 22.0626 9.35025 22.0626C9.14647 22.0626 8.94595 22.0113 8.76716 21.9136C8.58837 21.8158 8.43704 21.6746 8.32711 21.503L3.17624 13.4302C2.43842 12.3136 2.01654 11.0182 1.95534 9.68133C1.89414 8.34443 2.19591 7.01589 2.82863 5.83661C3.46136 4.65733 4.40146 3.67127 5.54922 2.98303C6.69698 2.29478 8.00962 1.92999 9.34791 1.92736Z" fill="#242424" stroke="#242424" stroke-width="0.3"/>
<path d="M9.34812 13.747C10.2201 13.747 11.0724 13.4885 11.7975 13.004C12.5225 12.5196 13.0875 11.8311 13.4212 11.0255C13.7549 10.2199 13.8422 9.33347 13.6721 8.47827C13.502 7.62307 13.0821 6.83752 12.4655 6.22096C11.849 5.6044 11.0634 5.18451 10.2082 5.0144C9.35301 4.84429 8.46658 4.9316 7.661 5.26528C6.85542 5.59896 6.16688 6.16403 5.68245 6.88903C5.19802 7.61404 4.93945 8.46641 4.93945 9.33836C4.94069 10.5072 5.40557 11.6279 6.23209 12.4544C7.05861 13.2809 8.17925 13.7458 9.34812 13.747ZM9.34812 5.86855C10.035 5.86855 10.7063 6.07225 11.2774 6.45388C11.8484 6.83551 12.2935 7.37792 12.5562 8.01251C12.8189 8.6471 12.8875 9.34535 12.7534 10.0189C12.6192 10.6925 12.2883 11.3112 11.8025 11.7967C11.3167 12.2822 10.6978 12.6127 10.0241 12.7464C9.35039 12.8801 8.65218 12.811 8.01777 12.5479C7.38335 12.2847 6.84124 11.8393 6.46 11.268C6.07876 10.6967 5.87551 10.0252 5.87597 9.33836C5.87721 8.41809 6.2435 7.53589 6.89445 6.88538C7.54541 6.23486 8.42785 5.86917 9.34812 5.86855Z" fill="#242424" stroke="#242424" stroke-width="0.3"/>
</svg>
