<svg width="21" height="21" viewBox="0 0 21 21" fill="none" xmlns="http://www.w3.org/2000/svg">
<path d="M18.7405 10.504C18.7398 10.901 18.7138 11.2971 18.6619 11.6908C18.6694 11.635 18.6769 11.5791 18.6844 11.5233C18.6161 12.0277 18.5056 12.525 18.3533 13.0107C18.2785 13.2496 18.1922 13.4848 18.0973 13.7163C18.08 13.7585 18.0331 13.8674 18.1145 13.6761C18.1028 13.7035 18.0908 13.7309 18.0789 13.7582C18.0549 13.8129 18.0302 13.8672 18.0052 13.9213C17.9511 14.0384 17.8938 14.154 17.8347 14.2686C17.6083 14.7068 17.3433 15.1247 17.0476 15.5192C17.0299 15.5428 17.012 15.5662 16.994 15.5896C17.1186 15.4268 17.0479 15.5198 17.0201 15.5552C16.9836 15.6015 16.9465 15.6473 16.9092 15.6929C16.8283 15.7917 16.7448 15.8883 16.6598 15.9834C16.4963 16.1664 16.3245 16.3418 16.1466 16.5106C15.9899 16.6593 15.8272 16.8015 15.6602 16.9384C15.6222 16.9695 15.5838 17.0001 15.5453 17.0307C15.5101 17.0586 15.4174 17.1299 15.5798 17.0046C15.5564 17.0226 15.5329 17.0404 15.5094 17.0582C15.4152 17.1293 15.3193 17.1981 15.2223 17.2655C14.8492 17.5247 14.4551 17.7534 14.0468 17.9524C13.9485 18.0003 13.8492 18.0458 13.7493 18.09C13.722 18.1021 13.6945 18.1139 13.6671 18.1257C13.858 18.0436 13.7495 18.091 13.7073 18.1085C13.652 18.1314 13.5964 18.1534 13.5406 18.1752C13.3258 18.2591 13.1074 18.3334 12.8867 18.4001C12.4386 18.5357 11.9792 18.633 11.5154 18.6958C11.5712 18.6883 11.627 18.6808 11.6828 18.6733C10.8956 18.7771 10.0975 18.7771 9.31035 18.6733C9.36615 18.6808 9.42195 18.6883 9.47775 18.6958C8.97357 18.6275 8.47651 18.5169 7.99104 18.3646C7.75232 18.2897 7.51724 18.2034 7.2858 18.1085C7.24365 18.0911 7.13477 18.0442 7.32604 18.1257C7.29858 18.1139 7.27123 18.102 7.24388 18.09C7.18927 18.0661 7.135 18.0413 7.08089 18.0163C6.96389 17.9621 6.84835 17.9049 6.73382 17.8457C6.29578 17.6192 5.87812 17.3541 5.48378 17.0582C5.46019 17.0405 5.4368 17.0226 5.41339 17.0046C5.57613 17.1293 5.48315 17.0585 5.44784 17.0307C5.40153 16.9942 5.35576 16.9571 5.3102 16.9197C5.21148 16.8388 5.11495 16.7553 5.01981 16.6702C4.83694 16.5067 4.66166 16.3348 4.49287 16.1567C4.34427 16 4.20217 15.8372 4.06533 15.6701C4.0342 15.6321 4.00359 15.5937 3.97309 15.5552C3.9452 15.52 3.87393 15.4272 3.99912 15.5897C3.98112 15.5663 3.96336 15.5428 3.94559 15.5192C3.87447 15.425 3.80571 15.329 3.7384 15.2321C3.47925 14.8587 3.25074 14.4644 3.05183 14.0559C3.00399 13.9576 2.95847 13.8582 2.91427 13.7582C2.9022 13.7309 2.89041 13.7035 2.87863 13.6761C2.9607 13.867 2.91326 13.7584 2.89583 13.7163C2.87294 13.661 2.85089 13.6053 2.82912 13.5495C2.74528 13.3346 2.67101 13.1161 2.60428 12.8953C2.46879 12.4469 2.37154 11.9873 2.30877 11.5233C2.31626 11.5791 2.32377 11.635 2.33126 11.6908C2.22751 10.9032 2.22751 10.1047 2.33126 9.31715C2.32377 9.37298 2.31626 9.42881 2.30877 9.48464C2.377 8.9802 2.48757 8.4829 2.63981 7.99719C2.71469 7.75835 2.80094 7.52318 2.89583 7.29161C2.91313 7.24944 2.96009 7.14051 2.87863 7.33187C2.89032 7.30439 2.90231 7.27703 2.91427 7.24969C2.93821 7.19503 2.96297 7.14075 2.98798 7.08659C3.04207 6.96953 3.09933 6.85394 3.15851 6.73936C3.38481 6.3011 3.64985 5.88324 3.94559 5.4887C3.96329 5.4651 3.98119 5.4417 3.99912 5.41827C3.87451 5.5811 3.94529 5.48807 3.97309 5.45275C4.00953 5.40641 4.04664 5.36062 4.084 5.31503C4.16488 5.21629 4.24834 5.11969 4.33336 5.02451C4.4968 4.84154 4.66866 4.66616 4.84659 4.4973C5.00324 4.34863 5.16598 4.20646 5.33296 4.06955C5.37095 4.03841 5.40934 4.00778 5.44782 3.97727C5.48302 3.94937 5.57577 3.87808 5.41336 4.00333C5.43671 3.98533 5.46024 3.96755 5.48376 3.94977C5.57793 3.87862 5.67386 3.80983 5.77077 3.74248C6.1439 3.48321 6.53804 3.25459 6.94637 3.05558C7.04458 3.00772 7.14393 2.96215 7.24386 2.91795C7.27116 2.90587 7.2986 2.89408 7.32602 2.88229C7.13513 2.9644 7.24365 2.91694 7.28578 2.8995C7.34106 2.8766 7.39673 2.85454 7.45249 2.83276C7.66728 2.74887 7.88573 2.67457 8.1064 2.60781C8.55453 2.47225 9.01392 2.37495 9.47773 2.31215C9.42193 2.31964 9.36613 2.32716 9.31033 2.33465C10.0975 2.23085 10.8956 2.23083 11.6828 2.33465C11.627 2.32716 11.5712 2.31964 11.5154 2.31215C12.0196 2.38042 12.5166 2.49104 13.0021 2.64336C13.2408 2.71827 13.4759 2.80457 13.7073 2.8995C13.7495 2.91681 13.8583 2.96379 13.6671 2.88229C13.6946 2.89399 13.7219 2.90598 13.7492 2.91795C13.8039 2.9419 13.8581 2.96667 13.9122 2.99169C14.0292 3.04581 14.1448 3.1031 14.2593 3.16228C14.6973 3.3887 15.115 3.65389 15.5093 3.94977C15.5329 3.96746 15.5563 3.98539 15.5797 4.00333C15.417 3.87867 15.5099 3.94948 15.5453 3.97727C15.5916 4.01373 15.6374 4.05088 15.6829 4.08823C15.7816 4.16915 15.8782 4.25265 15.9733 4.33771C16.1562 4.50126 16.3315 4.67318 16.5003 4.85119C16.6489 5.00792 16.791 5.17075 16.9278 5.3378C16.9589 5.37579 16.9896 5.41422 17.02 5.45272C17.0479 5.48794 17.1192 5.58074 16.994 5.41825C17.012 5.44161 17.0298 5.46514 17.0475 5.48868C17.1187 5.5829 17.1874 5.67887 17.2547 5.77583C17.5139 6.14917 17.7424 6.54348 17.9413 6.952C17.9891 7.05027 18.0347 7.14966 18.0788 7.24964C18.0909 7.27696 18.1027 7.30439 18.1145 7.33182C18.0324 7.14084 18.0799 7.24942 18.0973 7.29156C18.1202 7.34687 18.1422 7.40257 18.164 7.45835C18.2478 7.67325 18.3221 7.89181 18.3888 8.11258C18.5243 8.56094 18.6216 9.02055 18.6844 9.48459C18.6769 9.42876 18.6694 9.37293 18.6619 9.31711C18.7138 9.71076 18.7398 10.1069 18.7405 10.504C18.7411 10.8474 19.0265 11.134 19.3702 11.134C19.7131 11.134 20.0006 10.8474 20 10.504C19.9981 9.43419 19.8206 8.35682 19.4623 7.34834C19.0982 6.32322 18.5664 5.38992 17.8924 4.53859C16.6105 2.91951 14.7568 1.75335 12.7536 1.26593C10.6137 0.745225 8.34926 0.998916 6.36436 1.94165C4.51104 2.82191 2.9586 4.35508 2.03035 6.1827C1.03385 8.14463 0.755545 10.4044 1.2156 12.5541C1.64809 14.575 2.79111 16.4489 4.37422 17.7731C6.0334 19.161 8.1113 19.9525 10.275 20.0093C12.3838 20.0647 14.5121 19.3885 16.1921 18.1106C17.8819 16.8251 19.1249 15.025 19.6777 12.9682C19.8927 12.1685 19.9986 11.3316 20 10.5039C20.0006 10.1605 19.7131 9.87388 19.3702 9.87388C19.0265 9.8739 18.7411 10.1605 18.7405 10.504Z" fill="#242424"/>
<path d="M18.7405 10.504C18.7398 10.901 18.7138 11.2971 18.6619 11.6908C18.6694 11.635 18.6769 11.5791 18.6844 11.5233C18.6161 12.0277 18.5056 12.525 18.3533 13.0107C18.2785 13.2496 18.1922 13.4848 18.0973 13.7163C18.08 13.7585 18.0331 13.8674 18.1145 13.6761C18.1028 13.7035 18.0908 13.7309 18.0789 13.7582C18.0549 13.8129 18.0302 13.8672 18.0052 13.9213C17.9511 14.0384 17.8938 14.154 17.8347 14.2686C17.6083 14.7068 17.3433 15.1247 17.0476 15.5192C17.0299 15.5428 17.012 15.5662 16.994 15.5896C17.1186 15.4268 17.0479 15.5198 17.0201 15.5552C16.9836 15.6015 16.9465 15.6473 16.9092 15.6929C16.8283 15.7917 16.7448 15.8883 16.6598 15.9834C16.4963 16.1664 16.3245 16.3418 16.1466 16.5106C15.9899 16.6593 15.8272 16.8015 15.6602 16.9384C15.6222 16.9695 15.5838 17.0001 15.5453 17.0307C15.5101 17.0586 15.4174 17.1299 15.5798 17.0046C15.5564 17.0226 15.5329 17.0404 15.5094 17.0582C15.4152 17.1293 15.3193 17.1981 15.2223 17.2655C14.8492 17.5247 14.4551 17.7534 14.0468 17.9524C13.9485 18.0003 13.8492 18.0458 13.7493 18.09C13.722 18.1021 13.6945 18.1139 13.6671 18.1257C13.858 18.0436 13.7495 18.091 13.7073 18.1085C13.652 18.1314 13.5964 18.1534 13.5406 18.1752C13.3258 18.2591 13.1074 18.3334 12.8867 18.4001C12.4386 18.5357 11.9792 18.633 11.5154 18.6958C11.5712 18.6883 11.627 18.6808 11.6828 18.6733C10.8956 18.7771 10.0975 18.7771 9.31035 18.6733C9.36615 18.6808 9.42195 18.6883 9.47775 18.6958C8.97357 18.6275 8.47651 18.5169 7.99104 18.3646C7.75232 18.2897 7.51724 18.2034 7.2858 18.1085C7.24365 18.0911 7.13477 18.0442 7.32604 18.1257C7.29858 18.1139 7.27123 18.102 7.24388 18.09C7.18927 18.0661 7.135 18.0413 7.08089 18.0163C6.96389 17.9621 6.84835 17.9049 6.73382 17.8457C6.29578 17.6192 5.87812 17.3541 5.48378 17.0582C5.46019 17.0405 5.4368 17.0226 5.41339 17.0046C5.57613 17.1293 5.48315 17.0585 5.44784 17.0307C5.40153 16.9942 5.35576 16.9571 5.3102 16.9197C5.21148 16.8388 5.11495 16.7553 5.01981 16.6702C4.83694 16.5067 4.66166 16.3348 4.49287 16.1567C4.34427 16 4.20217 15.8372 4.06533 15.6701C4.0342 15.6321 4.00359 15.5937 3.97309 15.5552C3.9452 15.52 3.87393 15.4272 3.99912 15.5897C3.98112 15.5663 3.96336 15.5428 3.94559 15.5192C3.87447 15.425 3.80571 15.329 3.7384 15.2321C3.47925 14.8587 3.25074 14.4644 3.05183 14.0559C3.00399 13.9576 2.95847 13.8582 2.91427 13.7582C2.9022 13.7309 2.89041 13.7035 2.87863 13.6761C2.9607 13.867 2.91326 13.7584 2.89583 13.7163C2.87294 13.661 2.85089 13.6053 2.82912 13.5495C2.74528 13.3346 2.67101 13.1161 2.60428 12.8953C2.46879 12.4469 2.37154 11.9873 2.30877 11.5233C2.31626 11.5791 2.32377 11.635 2.33126 11.6908C2.22751 10.9032 2.22751 10.1047 2.33126 9.31715C2.32377 9.37298 2.31626 9.42881 2.30877 9.48464C2.377 8.9802 2.48757 8.4829 2.63981 7.99719C2.71469 7.75835 2.80094 7.52318 2.89583 7.29161C2.91313 7.24944 2.96009 7.14051 2.87863 7.33187C2.89032 7.30439 2.90231 7.27703 2.91427 7.24969C2.93821 7.19503 2.96297 7.14075 2.98798 7.08659C3.04207 6.96953 3.09933 6.85394 3.15851 6.73936C3.38481 6.3011 3.64985 5.88324 3.94559 5.4887C3.96329 5.4651 3.98119 5.4417 3.99912 5.41827C3.87451 5.5811 3.94529 5.48807 3.97309 5.45275C4.00953 5.40641 4.04664 5.36062 4.084 5.31503C4.16488 5.21629 4.24834 5.11969 4.33336 5.0245C4.4968 4.84154 4.66866 4.66616 4.84659 4.4973C5.00324 4.34863 5.16598 4.20646 5.33296 4.06955C5.37095 4.03841 5.40934 4.00778 5.44782 3.97727C5.48302 3.94937 5.57577 3.87808 5.41336 4.00333C5.43671 3.98533 5.46024 3.96755 5.48376 3.94977C5.57793 3.87862 5.67386 3.80983 5.77077 3.74248C6.1439 3.48321 6.53804 3.25459 6.94637 3.05558C7.04458 3.00772 7.14393 2.96215 7.24386 2.91795C7.27116 2.90587 7.2986 2.89408 7.32602 2.88229C7.13513 2.9644 7.24365 2.91694 7.28578 2.8995C7.34106 2.8766 7.39673 2.85454 7.45249 2.83276C7.66728 2.74887 7.88573 2.67457 8.1064 2.60781C8.55453 2.47225 9.01392 2.37495 9.47773 2.31215C9.42193 2.31964 9.36613 2.32716 9.31033 2.33465C10.0975 2.23085 10.8956 2.23083 11.6828 2.33465C11.627 2.32716 11.5712 2.31964 11.5154 2.31215C12.0196 2.38042 12.5166 2.49104 13.0021 2.64336C13.2408 2.71827 13.4759 2.80457 13.7073 2.8995C13.7495 2.91681 13.8583 2.96379 13.6671 2.88229C13.6946 2.89399 13.7219 2.90598 13.7492 2.91795C13.8039 2.9419 13.8581 2.96667 13.9122 2.99169C14.0292 3.04581 14.1448 3.1031 14.2593 3.16228C14.6973 3.3887 15.115 3.65389 15.5093 3.94977C15.5329 3.96746 15.5563 3.98539 15.5797 4.00333C15.417 3.87867 15.5099 3.94948 15.5453 3.97727C15.5916 4.01373 15.6374 4.05088 15.6829 4.08823C15.7816 4.16915 15.8782 4.25265 15.9733 4.33771C16.1562 4.50126 16.3315 4.67318 16.5003 4.85119C16.6489 5.00792 16.791 5.17075 16.9278 5.3378C16.9589 5.37579 16.9896 5.41422 17.02 5.45272C17.0479 5.48794 17.1192 5.58074 16.994 5.41825C17.012 5.44161 17.0298 5.46514 17.0475 5.48868C17.1186 5.5829 17.1874 5.67887 17.2547 5.77583C17.5139 6.14917 17.7424 6.54348 17.9413 6.952C17.9891 7.05027 18.0347 7.14966 18.0788 7.24964C18.0909 7.27696 18.1027 7.30439 18.1145 7.33182C18.0324 7.14084 18.0799 7.24942 18.0973 7.29156C18.1202 7.34687 18.1422 7.40257 18.164 7.45835C18.2478 7.67325 18.3221 7.89181 18.3888 8.11258C18.5243 8.56094 18.6216 9.02055 18.6844 9.48459C18.6769 9.42876 18.6694 9.37293 18.6619 9.31711C18.7138 9.71076 18.7398 10.1069 18.7405 10.504ZM18.7405 10.504C18.7411 10.8474 19.0265 11.134 19.3702 11.134C19.7131 11.134 20.0006 10.8474 20 10.504C19.9981 9.43419 19.8206 8.35682 19.4623 7.34834C19.0982 6.32322 18.5664 5.38992 17.8924 4.53859C16.6105 2.91951 14.7568 1.75335 12.7536 1.26593C10.6137 0.745225 8.34926 0.998916 6.36436 1.94165C4.51104 2.82191 2.9586 4.35508 2.03035 6.1827C1.03385 8.14463 0.755545 10.4044 1.2156 12.5541C1.64809 14.575 2.79111 16.4489 4.37422 17.7731C6.0334 19.161 8.1113 19.9525 10.275 20.0093C12.3838 20.0647 14.5121 19.3885 16.1921 18.1106C17.8819 16.8251 19.1249 15.025 19.6777 12.9682C19.8926 12.1685 19.9986 11.3316 20 10.5039C20.0006 10.1605 19.7131 9.87388 19.3702 9.87388C19.0265 9.8739 18.7411 10.1605 18.7405 10.504Z" stroke="#242424" stroke-width="0.2"/>
<path d="M13.2085 9.55192H13.0731V8.33317C13.0731 7.65079 12.802 6.99636 12.3195 6.51384C11.837 6.03133 11.1825 5.76025 10.5002 5.76025C9.81778 5.76025 9.16335 6.03133 8.68084 6.51384C8.19832 6.99636 7.92725 7.65079 7.92725 8.33317V9.55192H7.79183C7.39677 9.55192 7.01789 9.70886 6.73853 9.98821C6.45918 10.2676 6.30225 10.6464 6.30225 11.0415V13.7498C6.30225 14.1449 6.45918 14.5238 6.73853 14.8031C7.01789 15.0825 7.39677 15.2394 7.79183 15.2394H13.2085C13.6036 15.2394 13.9824 15.0825 14.2618 14.8031C14.5411 14.5238 14.6981 14.1449 14.6981 13.7498V11.0415C14.6981 10.6464 14.5411 10.2676 14.2618 9.98821C13.9824 9.70886 13.6036 9.55192 13.2085 9.55192ZM8.73975 8.33317C8.73975 7.86628 8.92522 7.41851 9.25536 7.08837C9.5855 6.75823 10.0333 6.57275 10.5002 6.57275C10.9671 6.57275 11.4148 6.75823 11.745 7.08837C12.0751 7.41851 12.2606 7.86628 12.2606 8.33317V9.55192H8.73975V8.33317ZM13.8856 13.7498C13.8856 13.9294 13.8142 14.1016 13.6873 14.2286C13.5603 14.3556 13.3881 14.4269 13.2085 14.4269H7.79183C7.61226 14.4269 7.44004 14.3556 7.31306 14.2286C7.18608 14.1016 7.11475 13.9294 7.11475 13.7498V11.0415C7.11475 10.8619 7.18608 10.6897 7.31306 10.5627C7.44004 10.4358 7.61226 10.3644 7.79183 10.3644H13.2085C13.3881 10.3644 13.5603 10.4358 13.6873 10.5627C13.8142 10.6897 13.8856 10.8619 13.8856 11.0415V13.7498Z" fill="#00B7EE"/>
</svg>
