<svg width="23" height="19" viewBox="0 0 23 19" fill="none" xmlns="http://www.w3.org/2000/svg">
<path d="M5.36448 1C5.0562 1 4.75305 1.10912 4.53898 1.32302C4.32491 1.53693 4.21595 1.83978 4.21595 2.14852V3.75642H3.06743C2.82692 3.75642 2.60806 3.97529 2.60806 4.21579V7.89114H1.41643C1.1905 7.91245 0.999019 8.1238 1 8.35068V12.9448C1 13.1853 1.21888 13.4041 1.45937 13.4041H7.20199C8.72112 13.4041 9.95857 12.1669 9.95857 10.6477C9.95857 9.1286 8.72112 7.89114 7.20199 7.89114H3.52663V4.67536H18.6872C19.0203 4.67536 19.3357 4.58819 19.6059 4.43133L19.6061 8.58037C19.6027 8.82312 19.8227 9.0463 20.0654 9.0463C20.3082 9.0463 20.5283 8.82311 20.5248 8.58037V2.83775C20.5248 2.82317 20.5251 2.80923 20.5248 2.79465V2.78023C20.4939 1.79672 19.6778 1.0001 18.6871 1.0001L5.36448 1ZM5.36448 1.91874H18.6874C19.2043 1.91874 19.6061 2.32059 19.6061 2.83747C19.6061 3.35439 19.2042 3.75621 18.6874 3.75621H5.13477V2.14832C5.13477 2.04064 5.16554 1.99546 5.19213 1.96886C5.21873 1.94242 5.25686 1.91887 5.36438 1.91887L5.36448 1.91874ZM1.91891 8.80988H7.20212C8.22808 8.80988 9.03979 9.62144 9.03979 10.6476C9.03979 11.6735 8.22824 12.4852 7.20212 12.4852H1.91891V8.80988ZM7.43182 9.9584C7.05673 9.9584 6.74267 10.2723 6.74267 10.6476C6.74267 11.0227 7.05671 11.3367 7.43182 11.3367C7.80693 11.3367 8.12098 11.0227 8.12098 10.6476C8.12098 10.2725 7.80693 9.9584 7.43182 9.9584ZM20.0582 9.9584C19.8177 9.96225 19.6022 10.1846 19.6061 10.4252V10.6477C19.6027 10.8905 19.8227 11.1136 20.0654 11.1136C20.3082 11.1136 20.5283 10.8904 20.5248 10.6477V10.4252C20.5286 10.1798 20.3035 9.95471 20.0582 9.95857V9.9584ZM17.309 11.1071C16.841 11.1071 16.3936 11.1978 15.9882 11.3655C15.7657 11.4566 15.6455 11.7411 15.7354 11.9642C15.8253 12.187 16.1094 12.3087 16.3327 12.2199C16.6304 12.0965 16.9685 12.0259 17.309 12.0259C18.7099 12.0259 19.8358 13.1516 19.8358 14.5527C19.8358 15.9536 18.7101 17.0795 17.309 17.0795C15.9081 17.0795 14.7822 15.9538 14.7822 14.5527C14.7822 14.0456 14.9212 13.5774 15.1698 13.1888C15.3005 12.9858 15.2342 12.682 15.0307 12.5521C14.8274 12.4221 14.5239 12.4896 14.3946 12.6936C14.0498 13.2326 13.8634 13.8769 13.8634 14.5527C13.8634 16.4501 15.4115 17.9983 17.309 17.9983C19.2064 17.9983 20.7546 16.4501 20.7546 14.5527C20.7546 12.6553 19.2064 11.1071 17.309 11.1071L17.309 11.1071ZM16.1102 13.1673C15.9361 13.1843 15.7775 13.3095 15.7203 13.4747C15.6633 13.6399 15.7109 13.8363 15.8373 13.957L17.4452 15.5648C17.6309 15.7478 17.9771 15.7225 18.1343 15.5145L18.8235 14.5958C18.985 14.4058 18.9493 14.082 18.7501 13.9317C18.5511 13.7814 18.2298 13.8357 18.0913 14.0432L17.7179 14.5384L16.4832 13.3037C16.3875 13.2056 16.2462 13.154 16.1098 13.1673L16.1102 13.1673ZM3.01698 14.3159C2.79121 14.3405 2.60293 14.5552 2.60775 14.7823V17.0793C2.60775 17.3198 2.82662 17.5387 3.06712 17.5387H13.1741C13.4169 17.5421 13.6401 17.3221 13.6401 17.0793C13.6401 16.8366 13.4169 16.6164 13.1741 16.62H3.52653V14.7823C3.53214 14.5218 3.27593 14.2872 3.01683 14.3157L3.01698 14.3159Z" fill="#242424" stroke="#242424" stroke-width="0.3"/>
<circle cx="17.5898" cy="13.5488" r="3.64253" fill="white"/>
<path d="M17.5908 9.09375C15.1322 9.09375 13.1387 11.087 13.1387 13.5457C13.1387 16.0044 15.1323 17.9977 17.5908 17.9977C20.0495 17.9977 22.0426 16.0046 22.0426 13.5457C22.0426 11.0871 20.0495 9.09375 17.5908 9.09375ZM18.5558 15.569C18.3881 15.6864 18.1901 15.7645 17.9923 15.8192V16.1239C17.9923 16.3349 17.7848 16.4989 17.5179 16.4989C17.251 16.4989 17.0434 16.3349 17.0434 16.1239V15.8192C16.638 15.7177 16.3317 15.5302 16.124 15.2412C15.9954 15.0614 16.075 14.8427 16.3019 14.7254C16.5294 14.6238 16.8158 14.6865 16.9445 14.8662C17.0534 15.0069 17.2015 15.0927 17.3994 15.1162C17.6069 15.1395 17.7849 15.1004 17.9328 14.9988C18.0911 14.8972 18.1704 14.7646 18.1704 14.6005C18.1607 14.4519 18.0813 14.3034 17.9233 14.2098L16.6873 13.4051C16.3216 13.1785 16.114 12.8349 16.114 12.4677C16.1042 12.1005 16.3018 11.7567 16.6576 11.5147C16.8157 11.3975 17.0036 11.327 17.2013 11.2723V10.9678C17.2013 10.7569 17.4088 10.5928 17.676 10.5928C17.9427 10.5928 18.1504 10.7569 18.1504 10.9678V11.2802C18.5161 11.3663 18.8324 11.5616 19.0203 11.8351C19.1684 12.0146 19.0795 12.2333 18.8524 12.3506C18.625 12.4523 18.3482 12.3895 18.1998 12.2099C18.1109 12.0771 17.9624 11.999 17.7745 11.9757C17.5868 11.9521 17.4189 11.9834 17.2707 12.085C17.1221 12.1865 17.0532 12.3116 17.063 12.46C17.063 12.6084 17.1321 12.7256 17.2806 12.8272L18.5263 13.6318C18.892 13.8741 19.1093 14.2178 19.1192 14.5926C19.1192 14.9754 18.9115 15.327 18.5558 15.569L18.5558 15.569Z" fill="#00B7EE"/>
</svg>
