<svg width="23" height="20" viewBox="0 0 23 20" fill="none"
    xmlns="http://www.w3.org/2000/svg">
    <path d="M4.16183 5.83821C5.54913 5.83821 6.763 6.47411 7.5144 7.45665L13.873 4.97113C13.8153 4.73995 13.8153 4.45091 13.8153 4.16183C13.8153 1.84973 15.6651 0 17.9771 0C20.2892 0 22.1389 1.84977 22.1389 4.16183C22.1389 6.47389 20.2892 8.38152 17.9771 8.38152C16.4742 8.38152 15.1448 7.57222 14.3931 6.35835L8.20808 8.78613C8.32374 9.19071 8.38149 9.59542 8.38149 10C8.38149 10.4046 8.32374 10.8093 8.20808 11.2139L14.3931 13.6416C15.1445 12.4278 16.4741 11.6185 17.9771 11.6185C20.2892 11.6185 22.1389 13.526 22.1389 15.8382C22.1389 18.0925 20.2892 20 17.9771 20C15.665 20 13.8153 18.0925 13.8153 15.8382C13.8153 15.5491 13.8153 15.2602 13.873 14.9711L7.5144 12.4856C6.763 13.5261 5.54913 14.162 4.16183 14.162C1.84973 14.162 0 12.3122 0 10.0001C0 7.68805 1.84977 5.83831 4.16183 5.83831V5.83821ZM17.977 13.1215C16.474 13.1215 15.2602 14.3354 15.2602 15.8383C15.2602 17.2834 16.474 18.4972 17.977 18.4972C19.4799 18.4972 20.6938 17.2834 20.6938 15.8383C20.6938 14.3354 19.4799 13.1215 17.977 13.1215ZM17.977 1.44494C16.474 1.44494 15.2602 2.65881 15.2602 4.16176C15.2602 5.6647 16.474 6.87857 17.977 6.87857C19.4799 6.87857 20.6938 5.6647 20.6938 4.16176C20.6938 2.65881 19.4799 1.44494 17.977 1.44494ZM4.16183 7.28322C2.65889 7.28322 1.44502 8.49709 1.44502 10C1.44502 11.503 2.65889 12.7169 4.16183 12.7169C5.66478 12.7169 6.87865 11.503 6.87865 10C6.87865 8.49709 5.66478 7.28322 4.16183 7.28322Z" fill="#242424"/>
</svg>
