<svg width="50" height="50" viewBox="0 0 50 50" fill="none" xmlns="http://www.w3.org/2000/svg">
<path opacity="0.2" fill-rule="evenodd" clip-rule="evenodd" d="M25 50C38.8071 50 50 38.8071 50 25C50 11.1929 38.8071 0 25 0C11.1929 0 0 11.1929 0 25C0 38.8071 11.1929 50 25 50Z" fill="#00B7EE"/>
<path fill-rule="evenodd" clip-rule="evenodd" d="M24.6667 41.3333C33.8714 41.3333 41.3333 33.8714 41.3333 24.6667C41.3333 15.4619 33.8714 8 24.6667 8C15.4619 8 8 15.4619 8 24.6667C8 33.8714 15.4619 41.3333 24.6667 41.3333Z" fill="#00B7EE"/>
<path d="M24.6149 34C24.5492 34 24.4835 33.9843 24.4237 33.9524L17.2169 30.1314C17.0835 30.0606 17 29.922 17 29.7708V20.306C17 20.0807 17.1829 19.8979 17.4082 19.8979C17.6335 19.8979 17.8163 20.0807 17.8163 20.306V29.5253L24.6123 33.1284L31.2091 29.5283V20.4911L24.6123 16.8721L20.027 19.316C19.8278 19.4221 19.5808 19.3466 19.4749 19.1479C19.3688 18.9489 19.4443 18.7015 19.6431 18.5956L24.4231 16.0478C24.5447 15.9831 24.6907 15.9842 24.8113 16.0503L31.8136 19.8915C31.9444 19.9632 32.0254 20.1003 32.0254 20.2493V29.7706C32.0254 29.9198 31.944 30.0573 31.8128 30.129L24.8105 33.95C24.7494 33.9835 24.6823 34 24.6149 34Z" fill="white"/>
<path d="M24.6208 24.5258C24.5551 24.5258 24.4892 24.5098 24.4294 24.4782L17.2228 20.6535C17.0236 20.5478 16.9479 20.3006 17.0536 20.1017C17.1593 19.9027 17.4065 19.8268 17.6054 19.9325L24.6181 23.6541L31.4255 19.9347C31.6237 19.827 31.8712 19.8994 31.9794 20.0972C32.0876 20.2949 32.0149 20.5431 31.817 20.651L24.8165 24.4758C24.7557 24.5092 24.6883 24.5258 24.6208 24.5258Z" fill="white"/>
<path d="M24.6211 33.9998C24.3957 33.9998 24.2129 33.8169 24.2129 33.5916V24.1191C24.2129 23.8938 24.3957 23.7109 24.6211 23.7109C24.8464 23.7109 25.0292 23.8938 25.0292 24.1191V33.5916C25.0292 33.8169 24.8466 33.9998 24.6211 33.9998Z" fill="white"/>
<path d="M21.7112 22.9587V31.698L20.0605 30.8V22.0605L21.7112 22.9587Z" fill="white"/>
<path d="M26.6134 18.7726L24.6273 19.8579L22.584 18.7726L24.6273 17.6836L26.6134 18.7726Z" fill="white"/>
<path d="M24.6258 19.9585C24.6093 19.9585 24.5929 19.9544 24.578 19.9464L22.5348 18.8611C22.5015 18.8436 22.4805 18.8089 22.4805 18.7711C22.4805 18.7334 22.5013 18.6987 22.5346 18.6809L24.5778 17.5919C24.608 17.5758 24.645 17.5762 24.675 17.5926L26.6611 18.6815C26.6938 18.6995 26.7142 18.7338 26.7142 18.7711C26.7142 18.8085 26.6938 18.8428 26.6611 18.8605L24.675 19.9458C24.6595 19.9542 24.6427 19.9585 24.6258 19.9585ZM22.7999 18.7709L24.6252 19.7405L26.3995 18.7709L24.6252 17.7981L22.7999 18.7709Z" fill="white"/>
</svg>
