<svg width="25" height="22" viewBox="0 0 25 22" fill="none" xmlns="http://www.w3.org/2000/svg">
<path fill-rule="evenodd" clip-rule="evenodd" d="M2.49991 8.03574C1.11926 8.03574 0 9.23494 0 10.7143C0 12.1937 1.11926 13.3929 2.49991 13.3929L16.4648 13.3929L13.2327 16.856C12.2565 17.902 12.2565 19.5981 13.2327 20.6441C14.2092 21.6901 15.7919 21.6901 16.7683 20.6441L24.268 12.6083C24.7368 12.1061 25 11.4247 25 10.7143C25 10.004 24.7368 9.32253 24.268 8.8203L16.7683 0.784529C15.7919 -0.26151 14.2092 -0.26151 13.2327 0.784529C12.2565 1.8306 12.2565 3.52657 13.2327 4.57263L16.4648 8.03574L2.49991 8.03574Z" fill="#F2F2F2"/>
</svg>
