<svg width="34" height="34" viewBox="0 0 34 34" fill="none"
    xmlns="http://www.w3.org/2000/svg">
    <path d="M17 0C7.59333 0 0 7.59333 0 17C0 26.4067 7.59333 34 17 34C26.4067 34 34 26.4067 34 17C34 7.59333 26.4067 0 17 0ZM15.1111 25.6511C14.7333 26.18 14.1289 26.4822 13.4867 26.4822C12.8444 26.4822 12.24 26.18 11.8622 25.6511L7.70667 20.06C7.02667 19.1533 7.21556 17.9067 8.12222 17.2644C9.02889 16.5844 10.2756 16.7733 10.9178 17.68L13.4489 21.1178L21.6844 10.0489C22.3267 9.14222 23.5733 8.99111 24.48 9.63333C25.3867 10.3133 25.5756 11.56 24.8956 12.4289L15.1111 25.6511Z" fill="#68D58B"/>
</svg>
