<svg width="43" height="37" viewBox="0 0 43 37" fill="none" xmlns="http://www.w3.org/2000/svg">
<path d="M32.7841 5.55821L32.8866 5.66073H33.0315H39.6262C40.8919 5.66073 41.9024 6.67122 41.9024 7.93691V34.3738C41.9024 35.6395 40.8919 36.65 39.6262 36.65H2.62618C1.36049 36.65 0.35 35.6395 0.35 34.3738V7.93691C0.35 6.67122 1.36049 5.66073 2.62618 5.66073H9.22082H9.3658L9.46831 5.55821L14.6765 0.35H27.5758L32.7841 5.55821ZM3.61845 33.0315V33.3815H3.96845H38.2839H38.4006H38.7506V33.0315V9.27918V8.92918H38.4006H31.6008L26.3926 3.72097L26.2901 3.61846H26.1451H16.224H16.079L15.9765 3.72097L10.7683 8.92918H3.96845H3.61845V9.27918V33.0315ZM12.2554 19.7839C12.2554 14.8999 16.2422 10.9131 21.1262 10.9131C26.0102 10.9131 29.997 14.8999 29.997 19.7839C29.997 24.6679 26.0102 28.6547 21.1262 28.6547C16.2422 28.6547 12.2554 24.6679 12.2554 19.7839ZM15.4655 19.7839C15.4655 22.8952 18.0149 25.4446 21.1262 25.4446C24.235 25.4446 26.7869 22.9561 26.7869 19.7839C26.7869 16.6726 24.2375 14.1232 21.1262 14.1232C18.0149 14.1232 15.4655 16.6726 15.4655 19.7839Z" fill="#979797" stroke="#E0E0E2" stroke-width="0.7"/>
</svg>
