<svg width="12" height="12" viewBox="0 0 12 12" fill="none" xmlns="http://www.w3.org/2000/svg">
<path d="M3.66274 0C3.84572 0 4.00082 0.0633641 4.12806 0.190094C4.25537 0.316825 4.31899 0.471258 4.31899 0.653485V1.4614H7.08691V0.653485C7.08691 0.47126 7.15052 0.316822 7.27775 0.190094C7.40507 0.0633641 7.56018 0 7.74307 0C7.9181 0 8.06919 0.0633641 8.19641 0.190094C8.32373 0.316825 8.38735 0.471258 8.38735 0.653485V1.4614H9.77133C10.2247 1.4614 10.6105 1.61977 10.9286 1.9366C11.2468 2.25342 11.4059 2.63369 11.4059 3.07724V10.3841C11.4059 10.8277 11.2468 11.2079 10.9286 11.5247C10.6105 11.8416 10.2247 12 9.77133 12H1.6345C1.18116 12 0.795447 11.8416 0.477277 11.5247C0.159107 11.2079 0 10.8277 0 10.3841V3.07724C0 2.63369 0.159124 2.25342 0.477277 1.9366C0.79543 1.61978 1.18116 1.4614 1.6345 1.4614H3.01848V0.653485C3.01848 0.47126 3.08218 0.316822 3.20941 0.190094C3.33665 0.0633641 3.48781 0 3.66276 0L3.66274 0ZM1.30046 3.80206V10.3842C1.30046 10.4714 1.33235 10.5466 1.39597 10.61C1.45958 10.6734 1.5391 10.705 1.63453 10.705H9.77136C9.86678 10.705 9.9463 10.6734 10.01 10.61C10.0736 10.5466 10.1054 10.4714 10.1054 10.3842V3.80206H1.30046Z" fill="#00B7EE"/>
<path d="M6.31055 6.84375H9.35211V9.88531H6.31055V6.84375Z" fill="#00B7EE"/>
</svg>
