<svg width="50" height="50" viewBox="0 0 50 50" fill="none" xmlns="http://www.w3.org/2000/svg">
<path opacity="0.2" fill-rule="evenodd" clip-rule="evenodd" d="M25 50C38.8071 50 50 38.8071 50 25C50 11.1929 38.8071 0 25 0C11.1929 0 0 11.1929 0 25C0 38.8071 11.1929 50 25 50Z" fill="#00B7EE"/>
<path fill-rule="evenodd" clip-rule="evenodd" d="M24.6667 41.3333C33.8714 41.3333 41.3333 33.8714 41.3333 24.6667C41.3333 15.4619 33.8714 8 24.6667 8C15.4619 8 8 15.4619 8 24.6667C8 33.8714 15.4619 41.3333 24.6667 41.3333Z" fill="#00B7EE"/>
<path d="M30.1606 20.2752L22.7331 27.7829L19.5542 25.107C19.1568 24.7706 18.5608 24.8165 18.2246 25.2141C17.8884 25.6116 17.9342 26.208 18.3316 26.5443L22.1676 29.7859C22.351 29.9388 22.5649 30 22.7789 30C23.0234 30 23.268 29.9083 23.4514 29.7248L31.4749 21.6055C31.8417 21.2385 31.8417 20.6422 31.4749 20.2752C31.1234 19.9083 30.5274 19.9083 30.1606 20.2752Z" fill="white"/>
</svg>
