<svg width="143" height="127" viewBox="0 0 143 127" fill="none"
    xmlns="http://www.w3.org/2000/svg">
    <path fill-rule="evenodd" clip-rule="evenodd" d="M63.5 126C98.0178 126 126 98.0178 126 63.5C126 28.9822 98.0178 1 63.5 1C28.9822 1 1 28.9822 1 63.5C1 98.0178 28.9822 126 63.5 126Z" fill="white" stroke="#D3D3D3" stroke-width="2"/>
    <g clip-path="url(#clip0_1_1187)">
        <path d="M21 46.7742C21 43.9445 23.2811 41.6484 26.098 41.6484H100.89C103.705 41.6484 105.988 43.9445 105.988 46.7742V79.1978C105.988 82.0275 103.705 84.3212 100.89 84.3212H26.098C23.2811 84.3212 21 82.0275 21 79.1978V46.7742Z" fill="white"/>
        <path d="M21.0586 46.2569C21.0586 43.6543 23.1589 41.543 25.7479 41.543H101.313C103.902 41.543 106 43.6543 106 46.2569V46.4067H21.0586V46.2569ZM106 79.6262V79.7432C106 82.3458 103.902 84.4571 101.313 84.4571H25.7479C23.159 84.4571 21.0586 82.3458 21.0586 79.7432V79.6262H106Z" fill="#FBB110"/>
        <path d="M79.8452 62.9503C79.8452 69.5389 85.157 74.8801 91.7115 74.8801C98.2638 74.8801 103.578 69.539 103.578 62.9504C103.578 56.3593 98.2638 51.0183 91.7115 51.0183C85.157 51.0183 79.8452 56.3593 79.8452 62.9503ZM23.2693 62.9503C23.2693 69.5389 28.5833 74.8801 35.138 74.8801C41.6902 74.8801 47.0043 69.539 47.0043 62.9504C47.0043 56.3593 41.6902 51.0183 35.138 51.0183C28.5834 51.0183 23.2692 56.3593 23.2692 62.9503H23.2693ZM106 77.3681H47.4906C48.5455 76.6238 49.5275 75.6057 50.5986 74.2317L56.5589 66.5853L59.1619 69.8924L62.0586 66.0187L59.5261 62.7771L65.592 54.9926C67.5184 52.5233 63.8347 49.6209 61.9083 52.0902L56.5472 58.9714L51.0967 51.9989C49.168 49.5367 45.4913 52.446 47.4201 54.9106L53.58 62.7795L46.915 71.3295C44.5469 74.3676 42.1835 77.1527 37.492 77.3681H21.0586V48.666H79.2602C78.2594 49.401 77.315 50.3863 76.2907 51.7017L70.3328 59.3459L67.7275 56.0411L64.8332 59.9147L67.3657 63.154L61.2975 70.9386C59.3734 73.4079 63.057 76.3102 64.9812 73.8409L70.3446 66.962L75.795 73.9321C77.7238 76.3968 81.4004 73.4875 79.4716 71.0229L73.3118 63.1517L79.9767 54.604C82.1522 51.8094 84.3253 49.2301 88.305 48.666H106V77.3681ZM84.6073 62.9503C84.6073 59.0043 87.7882 55.807 91.7115 55.807C95.6349 55.807 98.8135 59.0043 98.8135 62.9503C98.8135 66.8941 95.6349 70.0913 91.7115 70.0913C87.7882 70.0913 84.6073 66.8941 84.6073 62.9503ZM28.0337 62.9503C28.0337 59.0043 31.2146 55.807 35.138 55.807C39.0589 55.807 42.2399 59.0043 42.2399 62.9503C42.2399 66.8941 39.059 70.0913 35.138 70.0913C31.2146 70.0913 28.0337 66.8941 28.0337 62.9503Z" fill="#E70020"/>
    </g>
    <circle cx="128" cy="63" r="12" fill="white"/>
    <path d="M128 48C119.7 48 113 54.7 113 63C113 71.3 119.7 78 128 78C136.3 78 143 71.3 143 63C143 54.7 136.3 48 128 48ZM126.333 70.6333C126 71.1 125.467 71.3667 124.9 71.3667C124.333 71.3667 123.8 71.1 123.467 70.6333L119.8 65.7C119.2 64.9 119.367 63.8 120.167 63.2333C120.967 62.6333 122.067 62.8 122.633 63.6L124.867 66.6333L132.133 56.8667C132.7 56.0667 133.8 55.9333 134.6 56.5C135.4 57.1 135.567 58.2 134.967 58.9667L126.333 70.6333Z" fill="#68D58B"/>
    <defs>
        <clipPath id="clip0_1_1187">
            <rect width="85" height="46" fill="white" transform="translate(21 40)"/>
        </clipPath>
    </defs>
</svg>
