<svg width="19" height="25" viewBox="0 0 19 25" fill="none"
    xmlns="http://www.w3.org/2000/svg">
    <path d="M12.3399 0.669631C11.9038 0.223224 11.2934 0 10.6829 0H4.14237C1.87495 0 0 1.9196 0 4.24103V20.759C0 23.0804 1.87495 25 4.14237 25H14.6076C16.8751 25 18.75 23.0804 18.75 20.759V7.90198C18.75 7.23235 18.4884 6.56277 18.0086 6.11633L12.3399 0.669631ZM17.4416 20.7591C17.4416 22.3663 16.1771 23.6609 14.6073 23.6609H4.14252C2.57268 23.6609 1.30821 22.3663 1.30821 20.7591V4.24113C1.30821 2.6339 2.57268 1.33931 4.14252 1.33931H10.7266V5.35715C10.7266 6.69636 11.8167 7.81258 13.1249 7.81258H17.4418L17.4416 20.7591Z" fill="#242424"/>
    <path d="M4.53459 15.5806C4.22945 15.5806 3.96769 15.8484 3.96769 16.161C3.96769 16.4734 4.22926 16.7414 4.53459 16.7414C4.83972 16.7414 5.10148 16.4736 5.10148 16.161C5.14504 15.8484 4.88347 15.5806 4.53459 15.5806Z" fill="#242424"/>
    <path d="M7.54301 13.5712C7.19412 13.5712 6.88896 13.7052 6.67096 14.0176V13.6604H5.71159V17.8123H6.67096V16.2944C6.93253 16.6069 7.19433 16.7409 7.54301 16.7409C8.28438 16.7409 8.85107 16.1605 8.85107 15.1336C8.80751 14.1516 8.28438 13.5712 7.54301 13.5712ZM7.23788 15.8927C7.01987 15.8927 6.80186 15.7587 6.67099 15.6249V14.732C6.80188 14.5534 7.01989 14.4642 7.23788 14.4642C7.58678 14.4642 7.89193 14.732 7.89193 15.1784C7.84837 15.6248 7.5866 15.8927 7.23788 15.8927Z" fill="#242424"/>
    <path d="M11.293 14.0179C11.075 13.7055 10.7261 13.5715 10.421 13.5715C9.67959 13.5715 9.11291 14.1519 9.11291 15.1339C9.11291 16.1608 9.6798 16.7412 10.421 16.7412C10.7699 16.7412 11.0314 16.6072 11.293 16.2948V16.652H12.2086L12.2088 12.5001H11.2932L11.293 14.0179ZM11.293 15.6252C11.1621 15.8038 10.9441 15.893 10.7261 15.893C10.3337 15.893 10.0721 15.6252 10.0721 15.1339C10.0721 14.6429 10.3336 14.4197 10.7261 14.4197C10.9441 14.4197 11.1621 14.5089 11.293 14.6876V15.6252Z" fill="#242424"/>
    <path d="M13.1246 13.5712V13.6604H12.645V14.5086H13.1246V16.6961H14.084V14.5086H14.6944V13.6604H14.084V13.5712C14.084 13.3034 14.2148 13.214 14.3891 13.214C14.52 13.214 14.6071 13.2586 14.6942 13.3032L15.0431 12.7228C14.8687 12.5442 14.5198 12.455 14.2146 12.455C13.5606 12.4552 13.1246 12.857 13.1246 13.5712Z" fill="#242424"/>
</svg>
