<svg width="15" height="22" viewBox="0 0 15 22" fill="none" xmlns="http://www.w3.org/2000/svg">
<path d="M9.51807 1.43613C9.41917 0.894379 9.07102 0.430838 8.57851 0.184645C8.0858 -0.0615483 7.50622 -0.0615483 7.0135 0.184645C6.52095 0.430838 6.17284 0.894379 6.07395 1.43613H0.638V17.7772C0.639122 18.7157 1.01242 19.6157 1.67616 20.2792C2.33973 20.943 3.23969 21.3162 4.17818 21.3174H11.4142C12.3527 21.3163 13.2527 20.943 13.9162 20.2792C14.58 19.6157 14.9532 18.7157 14.9544 17.7772V1.43613H9.51807ZM14.0566 17.7772C14.0558 18.4778 13.7771 19.1495 13.2817 19.6448C12.7864 20.1402 12.1147 20.419 11.414 20.4198H4.17801C3.47743 20.419 2.80569 20.1403 2.31039 19.6448C1.81497 19.1496 1.53624 18.4778 1.53542 17.7772V2.3335H6.99886L6.94788 1.83869C6.945 1.8092 6.9434 1.77971 6.9434 1.75006C6.9434 1.44536 7.10592 1.16391 7.36976 1.01164C7.63359 0.859215 7.95866 0.859215 8.22245 1.01164C8.48628 1.16391 8.64882 1.44535 8.64882 1.75006C8.64882 1.77971 8.64721 1.8092 8.64433 1.83869L8.59336 2.3335H14.0568L14.0566 17.7772Z" fill="#242424"/>
<path d="M7.79592 2.29441C8.01599 2.29441 8.21441 2.16186 8.29873 1.95846C8.38288 1.75523 8.33639 1.52106 8.18076 1.36543C8.02512 1.20979 7.79095 1.16331 7.58772 1.24746C7.38432 1.33177 7.25177 1.53019 7.25177 1.75027C7.25209 2.05063 7.49556 2.29411 7.79594 2.29444L7.79592 2.29441ZM7.79592 1.39684C7.93889 1.39684 8.06776 1.48291 8.12241 1.61498C8.17707 1.74705 8.14694 1.89916 8.0458 2.00014C7.94482 2.10127 7.79271 2.13141 7.66064 2.07675C7.52857 2.0221 7.4425 1.89323 7.4425 1.75026C7.44266 1.55519 7.60086 1.397 7.79592 1.39684Z" fill="#242424"/>
<path d="M5.3726 6.59728C5.3726 7.3588 5.73099 8.07588 6.34006 8.53318C5.39422 8.84189 4.57005 9.44135 3.98534 10.2463C3.40047 11.051 3.08505 12.0201 3.08374 13.015V13.4638H12.5084V13.015C12.5071 12.0201 12.1917 11.0511 11.6068 10.2463C11.0221 9.44135 10.1979 8.84187 9.25211 8.53318C9.92307 8.02861 10.285 7.2126 10.2087 6.37657C10.1323 5.54054 9.62875 4.80356 8.87753 4.42881C8.12627 4.05391 7.23464 4.09463 6.52072 4.53636C5.80684 4.97795 5.37248 5.75773 5.37264 6.59729L5.3726 6.59728ZM11.5845 12.5662H4.00746C4.15524 11.3186 4.90791 10.2239 6.0198 9.639C7.13169 9.05413 8.46011 9.05413 9.57196 9.639C10.6838 10.2239 11.4365 11.3186 11.5843 12.5662H11.5845ZM9.32191 6.59728C9.32191 7.002 9.16114 7.39003 8.87503 7.67631C8.58876 7.96241 8.2007 8.12319 7.796 8.12319C7.3913 8.12319 7.00326 7.96243 6.71698 7.67631C6.43087 7.39004 6.2701 7.00198 6.2701 6.59728C6.2701 6.19258 6.43086 5.80454 6.71698 5.51826C7.00324 5.23215 7.3913 5.07138 7.796 5.07138C8.20056 5.07186 8.58842 5.23278 8.87453 5.51871C9.16048 5.80482 9.32142 6.19271 9.32187 6.59724L9.32191 6.59728Z" fill="#242424"/>
<path d="M3.0752 15.4834H12.4999V16.381H3.0752V15.4834Z" fill="#242424"/>
<path d="M3.0752 17.2786H12.4999V18.1761H3.0752V17.2786Z" fill="#242424"/>
</svg>
