<svg width="15" height="22" viewBox="0 0 15 22" fill="none" xmlns="http://www.w3.org/2000/svg">
<path d="M9.51807 1.43613C9.41917 0.894379 9.07102 0.430838 8.57851 0.184645C8.0858 -0.0615483 7.50622 -0.0615483 7.0135 0.184645C6.52095 0.430838 6.17284 0.894379 6.07395 1.43613H0.638V17.7772C0.639122 18.7157 1.01242 19.6157 1.67616 20.2792C2.33973 20.943 3.23969 21.3162 4.17818 21.3174H11.4142C12.3527 21.3163 13.2527 20.943 13.9162 20.2792C14.58 19.6157 14.9532 18.7157 14.9544 17.7772V1.43613H9.51807ZM14.0566 17.7772C14.0558 18.4778 13.7771 19.1495 13.2817 19.6448C12.7864 20.1402 12.1147 20.419 11.414 20.4198H4.17801C3.47743 20.419 2.80569 20.1403 2.31039 19.6448C1.81497 19.1496 1.53624 18.4778 1.53542 17.7772V2.3335H6.99886L6.94788 1.83869C6.945 1.8092 6.9434 1.77971 6.9434 1.75006C6.9434 1.44536 7.10592 1.16391 7.36976 1.01164C7.63359 0.859215 7.95866 0.859215 8.22245 1.01164C8.48628 1.16391 8.64882 1.44535 8.64882 1.75006C8.64882 1.77971 8.64721 1.8092 8.64433 1.83869L8.59336 2.3335H14.0568L14.0566 17.7772Z" fill="#242424"/>
<path d="M7.79592 2.29441C8.01599 2.29441 8.21441 2.16186 8.29873 1.95846C8.38288 1.75523 8.33639 1.52106 8.18076 1.36543C8.02512 1.20979 7.79095 1.16331 7.58772 1.24746C7.38432 1.33177 7.25177 1.53019 7.25177 1.75027C7.25209 2.05063 7.49556 2.29411 7.79594 2.29444L7.79592 2.29441ZM7.79592 1.39684C7.93889 1.39684 8.06776 1.48291 8.12241 1.61498C8.17707 1.74705 8.14694 1.89916 8.0458 2.00014C7.94482 2.10127 7.79271 2.13141 7.66064 2.07675C7.52857 2.0221 7.4425 1.89323 7.4425 1.75026C7.44266 1.55519 7.60086 1.397 7.79592 1.39684Z" fill="#242424"/>
<path d="M3.0752 15H12.4999V15.8976H3.0752V15Z" fill="#242424"/>
<path d="M3.0752 17H12.4999V17.8976H3.0752V17Z" fill="#242424"/>
<path d="M11.4824 10.5508H7.35611C7.48639 10.124 7.60348 9.6628 7.7119 9.19128C8.00136 8.99405 8.28582 8.83245 8.52948 8.73587C8.73043 8.65642 8.83174 8.65039 8.87011 8.65039C8.88222 8.65039 8.88797 8.6514 8.88865 8.65005C8.89603 8.66892 8.96979 8.89945 8.54531 9.74768C8.45041 9.93787 8.46924 10.0775 8.60154 10.1634C8.8079 10.297 8.90415 10.1802 9.2623 9.74328C9.50466 9.44773 9.90993 8.95264 10.1109 8.81662C10.3246 8.67253 10.4478 8.66718 10.474 8.6887C10.5228 8.72674 10.5726 8.96199 10.4047 9.41104C10.3559 9.542 10.4225 9.68705 10.5528 9.73618C10.6844 9.78532 10.8288 9.71798 10.8776 9.58809C11.1021 8.98695 11.0688 8.51434 10.7863 8.29189C10.648 8.18319 10.3403 8.05189 9.82806 8.39828C9.70724 8.4801 9.56349 8.61974 9.40262 8.79678C9.41676 8.58643 9.36966 8.42719 9.26259 8.31077C8.98795 8.01088 8.50254 8.20309 8.34371 8.26637C8.19928 8.32356 8.03705 8.40437 7.86439 8.50365C7.90378 8.3212 7.94215 8.13947 7.98053 7.95938C7.99569 7.8877 8.0105 7.81665 8.02561 7.74599C8.44299 7.52685 8.79776 7.27879 8.97313 7.04455C9.69783 6.07855 9.61433 5.55079 9.50022 5.32244C9.39924 5.12048 9.20168 5 8.97177 5C8.62004 5 8.27033 5.2622 8.05925 5.68431C7.89397 6.01486 7.74487 6.64529 7.58264 7.40094C6.98889 7.68129 6.29618 7.90104 5.92862 7.90104C5.78927 7.90104 5.67618 8.01414 5.67618 8.15349C5.67618 8.29284 5.78927 8.40594 5.92862 8.40594C6.30155 8.40594 6.88656 8.24675 7.45238 8.01313C7.39316 8.29251 7.3292 8.59207 7.25983 8.89737C6.58432 9.3844 5.90068 10.029 5.6048 10.5507H3.74089C3.64797 10.5507 3.57257 10.6261 3.57257 10.719C3.57257 10.8119 3.64797 10.8873 3.74089 10.8873H5.43458C5.23195 11.3323 4.9529 12.1048 5.23933 12.4979C5.31777 12.6056 5.46112 12.7207 5.7139 12.7207C5.76878 12.7207 5.82868 12.7153 5.89399 12.7032C6.49078 12.5935 6.91385 11.8637 7.24744 10.8869L11.4825 10.8869C11.5754 10.8869 11.6508 10.8115 11.6508 10.7186C11.6508 10.6257 11.5754 10.5506 11.4825 10.5506L11.4824 10.5508ZM8.51058 5.91009C8.6496 5.63207 8.84716 5.50517 8.97134 5.50517C9.02217 5.50517 9.03733 5.52636 9.04843 5.54862C9.11036 5.67214 9.07875 6.06224 8.56879 6.74182C8.48866 6.84888 8.34795 6.96462 8.16995 7.08008C8.28705 6.56172 8.40047 6.1306 8.51058 5.91011L8.51058 5.91009ZM7.073 9.67759C6.99591 9.97884 6.91381 10.2737 6.82596 10.5507L6.21028 10.5507C6.42031 10.2767 6.72966 9.96705 7.073 9.67759V9.67759ZM5.80266 12.2071C5.70473 12.2253 5.65628 12.2128 5.64748 12.2007C5.55489 12.0735 5.68923 11.4811 5.9965 10.8873H6.71281C6.45569 11.6073 6.15472 12.1425 5.80265 12.2071L5.80266 12.2071Z" fill="#242424"/>
<path d="M3.62158 9.78747C3.65455 9.82009 3.69765 9.8366 3.74076 9.8366C3.78387 9.8366 3.82692 9.82009 3.85994 9.78747L4.24565 9.40135L4.63135 9.78706C4.66432 9.82008 4.70743 9.83659 4.75053 9.83659C4.79364 9.83659 4.83669 9.82008 4.86971 9.78746C4.93536 9.72181 4.93536 9.61515 4.86971 9.5495L4.4836 9.16338L4.86931 8.77768C4.93496 8.71203 4.93496 8.60536 4.86931 8.53971C4.80366 8.47407 4.697 8.47407 4.63135 8.53971L4.24564 8.92542L3.85993 8.53971C3.79428 8.47407 3.68762 8.47407 3.62197 8.53971C3.55632 8.60536 3.55632 8.71203 3.62197 8.77768L4.00768 9.16338L3.62197 9.54909C3.55593 9.61513 3.55593 9.72146 3.62157 9.78744L3.62158 9.78747Z" fill="#242424"/>
</svg>
