<svg width="15" height="15" viewBox="0 0 15 15" fill="none" xmlns="http://www.w3.org/2000/svg">
<path d="M7.5 0C3.35594 0 0 3.35594 0 7.5C0 11.6441 3.35594 15 7.5 15C11.6441 15 15 11.6441 15 7.5C15 3.35594 11.6441 0 7.5 0ZM8.22908 2.69342C8.84381 2.69342 9.34215 3.1921 9.34215 3.80717C9.34215 4.42156 8.84381 4.92024 8.22908 4.92024C7.614 4.92024 7.11532 4.42156 7.11532 3.80717C7.11532 3.1921 7.614 2.69342 8.22908 2.69342ZM5.95378 6.76853L6.02956 6.20364C6.03468 6.16643 6.06301 6.1381 6.09987 6.13332L8.63082 5.80019C8.6926 5.79199 8.74005 5.85275 8.71786 5.91112C8.07992 7.55803 7.41979 9.19913 7.27711 10.9617C7.26414 11.1225 7.40511 11.2509 7.56417 11.2235C8.08947 11.1324 8.51921 10.7406 8.93051 10.2934C8.9602 10.2613 9.00935 10.2583 9.04314 10.2863L9.35717 10.5477C9.38993 10.575 9.39642 10.6228 9.37184 10.6576C8.69601 11.6147 6.5139 13.0394 5.7937 11.8608C5.20901 10.9044 6.19613 8.58372 6.60026 6.96719C6.61289 6.91565 6.57466 6.86581 6.52141 6.86547L6.03434 6.86138C5.9845 6.86103 5.94696 6.81803 5.95378 6.76853Z" fill="#00B7EE"/>
</svg>
