<svg width="13" height="19" viewBox="0 0 13 19" fill="none" xmlns="http://www.w3.org/2000/svg">
<path d="M0 18.3806V0.619605C0 0.295184 0.281521 0 0.590941 0H12.4091C12.7185 0 13 0.295176 13 0.619605V14.2501C13 14.4125 12.9369 14.574 12.8277 14.6889L8.88834 18.8194C8.7787 18.934 8.62468 19.0004 8.46985 19H0.591103C0.262732 19 0.0020966 18.6528 0.000162082 18.3804L0 18.3806ZM1.18188 17.761H7.87882V14.2501C7.87882 13.9257 8.16034 13.6305 8.46976 13.6305H11.8182V1.23914H1.18188V17.761ZM9.06063 16.8897L10.9872 14.8697H9.06063V16.8897Z" fill="#00B7EE"/>
</svg>
