<svg width="482" height="125" viewBox="0 0 482 125" fill="none" xmlns="http://www.w3.org/2000/svg">
<path fill-rule="evenodd" clip-rule="evenodd" d="M84.375 0H53.125V92.2744V93.75H51.6494H32.7256H31.25V92.2744V87.5V78.125H0V87.5V93.75V106.25C0 116.605 8.39466 125 18.75 125H65.625C75.9803 125 84.375 116.605 84.375 106.25V0Z" fill="#242424"/>
<path fill-rule="evenodd" clip-rule="evenodd" d="M137.5 0H106.25V31.25V46.875V78.125V93.75V125H137.5H200V93.75H137.5V78.125H184.375V46.875H137.5V31.25H200V0H137.5Z" fill="#242424"/>
<path fill-rule="evenodd" clip-rule="evenodd" d="M309.375 0H215.625V31.25H246.875V125H278.125V31.25H309.375V0Z" fill="#242424"/>
<path fill-rule="evenodd" clip-rule="evenodd" d="M400.156 53.125H359.531L325 93.75V125H418.75V93.75H365.625L400.156 53.125Z" fill="#242424"/>
<path fill-rule="evenodd" clip-rule="evenodd" d="M434.375 53.125H437.5V62.5V71.875H434.375V69.4878C432.716 70.9723 430.526 71.875 428.125 71.875C422.947 71.875 418.75 67.6777 418.75 62.5C418.75 57.3223 422.947 53.125 428.125 53.125C430.526 53.125 432.716 54.0277 434.375 55.5122V53.125ZM434.375 62.5C434.375 65.9518 431.577 68.75 428.125 68.75C424.673 68.75 421.875 65.9518 421.875 62.5C421.875 59.0482 424.673 56.25 428.125 56.25C431.577 56.25 434.375 59.0482 434.375 62.5ZM456.25 62.5C456.25 65.9518 453.452 68.75 450 68.75C446.548 68.75 443.75 65.9518 443.75 62.5C443.75 59.0482 446.548 56.25 450 56.25C453.452 56.25 456.25 59.0482 456.25 62.5ZM443.75 69.4878C445.409 70.9723 447.599 71.875 450 71.875C455.178 71.875 459.375 67.6777 459.375 62.5C459.375 57.3223 455.178 53.125 450 53.125C447.599 53.125 445.409 54.0277 443.75 55.5122V53.125H440.625V62.5V78.125H443.75V69.4878ZM465.625 53.125H462.5V62.5V78.125H465.625V69.4878C467.284 70.9723 469.474 71.875 471.875 71.875C477.053 71.875 481.25 67.6777 481.25 62.5C481.25 57.3223 477.053 53.125 471.875 53.125C469.474 53.125 467.284 54.0277 465.625 55.5122V53.125ZM465.625 62.5C465.625 65.9518 468.423 68.75 471.875 68.75C475.327 68.75 478.125 65.9518 478.125 62.5C478.125 59.0482 475.327 56.25 471.875 56.25C468.423 56.25 465.625 59.0482 465.625 62.5Z" fill="#242424"/>
<rect width="39.0625" height="31.25" transform="matrix(-1 0 0 1 481.25 0)" fill="#00B7EE"/>
<rect width="39.0625" height="31.25" transform="matrix(-1 0 0 1 442.188 0)" fill="#FFCC01"/>
<rect width="39.0625" height="31.25" transform="matrix(-1 0 0 1 403.125 0)" fill="#FF5800"/>
<rect width="39.0625" height="31.25" transform="matrix(-1 0 0 1 364.062 0)" fill="#D2002E"/>
</svg>
