<svg width="462" height="120" viewBox="0 0 462 120" fill="none" xmlns="http://www.w3.org/2000/svg">
<path fill-rule="evenodd" clip-rule="evenodd" d="M81 0H51V88.5834V90H49.5834H31.4166H30V88.5834V84V75H0V84V90V102C0 111.941 8.05887 120 18 120H63C72.9411 120 81 111.941 81 102V0Z" fill="white"/>
<path fill-rule="evenodd" clip-rule="evenodd" d="M132 0H102V30V45V75V90V120H132H192V90H132V75H177V45H132V30H192V0H132Z" fill="white"/>
<path fill-rule="evenodd" clip-rule="evenodd" d="M297 0H207V30H237V120H267V30H297V0Z" fill="white"/>
<path fill-rule="evenodd" clip-rule="evenodd" d="M384.15 51H345.15L312 90V120H402V90H351L384.15 51Z" fill="white"/>
<path fill-rule="evenodd" clip-rule="evenodd" d="M417 51H420V60V69H417V66.7083C415.408 68.1335 413.305 69 411 69C406.029 69 402 64.9705 402 60C402 55.0294 406.029 51 411 51C413.305 51 415.408 51.8666 417 53.2917V51ZM417 60C417 63.3137 414.314 66 411 66C407.686 66 405 63.3137 405 60C405 56.6863 407.686 54 411 54C414.314 54 417 56.6863 417 60ZM438 60C438 63.3137 435.314 66 432 66C428.686 66 426 63.3137 426 60C426 56.6863 428.686 54 432 54C435.314 54 438 56.6863 438 60ZM426 66.7083C427.592 68.1335 429.695 69 432 69C436.971 69 441 64.9705 441 60C441 55.0294 436.971 51 432 51C429.695 51 427.592 51.8666 426 53.2917V51H423V60V75H426V66.7083ZM447 51H444V60V75H447V66.7083C448.592 68.1335 450.695 69 453 69C457.971 69 462 64.9705 462 60C462 55.0294 457.971 51 453 51C450.695 51 448.592 51.8666 447 53.2917V51ZM447 60C447 63.3137 449.686 66 453 66C456.314 66 459 63.3137 459 60C459 56.6863 456.314 54 453 54C449.686 54 447 56.6863 447 60Z" fill="white"/>
<rect width="37.5" height="30" transform="matrix(-1 0 0 1 462 0)" fill="#00B7EE"/>
<rect width="37.5" height="30" transform="matrix(-1 0 0 1 424.5 0)" fill="#FFCC01"/>
<rect width="37.5" height="30" transform="matrix(-1 0 0 1 387 0)" fill="#FF5800"/>
<rect width="37.5" height="30" transform="matrix(-1 0 0 1 349.5 0)" fill="#D2002E"/>
</svg>
