<svg width="48" height="48" viewBox="0 0 48 48" fill="none"
    xmlns="http://www.w3.org/2000/svg">
    <g filter="url(#filter0_d_4209_47637)">
        <path fill-rule="evenodd" clip-rule="evenodd" d="M24 40C35.0457 40 44 31.0457 44 20C44 8.9543 35.0457 0 24 0C12.9543 0 4 8.9543 4 20C4 31.0457 12.9543 40 24 40Z" fill="#00B7EE"/>
        <path d="M34.4905 24.9851C34.5159 24.9851 34.5159 24.9851 34.5413 24.9851H35.6595C35.8373 24.9851 35.9898 24.8072 35.9644 24.6293C35.7103 23.0792 33.7027 22.4184 32.9403 22.2151C32.7624 22.1643 32.5845 22.0372 32.5083 21.8593L31.2885 19.2673C31.441 19.3435 31.6188 19.3943 31.7967 19.3943H32.4321C32.5337 19.3943 32.6099 19.3181 32.6099 19.2164V17.1072C32.6099 17.0055 32.5337 16.9293 32.4321 16.9293H31.7967C31.4918 16.9293 31.2377 17.0564 31.0344 17.2597C30.9835 17.0818 30.9327 16.9039 30.8819 16.7006C30.7802 16.3702 30.3736 16.3956 29.8654 16.5227C29.1792 16.7006 28.4677 16.8276 27.7815 16.9293L27.502 16.9547C27.4003 16.6498 27.1716 16.3956 26.8159 16.3194L25.0116 15.8874C24.7066 15.5062 24.0713 14.7438 23.4614 14.0831C23.3852 14.0068 23.0548 13.6765 22.6736 13.524C22.0637 13.2699 21.403 13.3207 20.8185 13.6511C20.2594 13.9814 19.8782 14.5405 19.802 15.2012L19.2683 19.9026C19.2429 20.2075 19.3445 20.5125 19.5478 20.7412C19.7511 20.9699 20.0561 21.097 20.361 21.097H24.8337L24.6812 25.0613C24.6558 25.6458 25.1132 26.1541 25.7231 26.1795C25.7485 26.1795 25.7485 26.1795 25.7739 26.1795C26.3584 26.1795 26.8413 25.7221 26.8667 25.1376L27.07 20.0296C27.07 19.7247 26.9683 19.4451 26.765 19.2418C26.5617 19.0385 26.2822 18.9115 25.9772 18.9115H23.1819L23.3597 16.8276C23.5885 17.1072 23.7409 17.2851 23.7409 17.2851C23.868 17.4375 24.0459 17.5646 24.2492 17.6154L26.3584 18.1237C26.4347 18.1491 26.5109 18.1491 26.5871 18.1491C26.8159 18.1491 27.0192 18.0729 27.1716 17.9458L28.0611 17.8441C28.0865 17.9712 28.1119 18.1237 28.1373 18.2762C28.239 18.9877 28.4677 19.2927 28.8743 19.3435C29.2046 20.5379 29.5604 22.3676 29.7891 23.5366C29.8908 24.0957 29.7383 24.6802 29.3571 25.0868L28.1373 26.4336C27.9086 26.6623 27.6291 26.7894 27.2987 26.7894H23.6901C23.2835 26.7894 22.9785 26.459 22.9785 26.0524L23.0294 23.6636H23.4106C23.6393 23.6636 23.8426 23.4858 23.9188 23.257L24.0967 22.4947C24.1729 22.1643 23.9188 21.8593 23.5885 21.8593H13.3726C12.9151 21.8593 12.7627 22.4438 13.1184 22.698L14.8465 23.8161C13.83 24.8835 13.6521 26.459 13.6267 27.1706C13.6267 27.3739 13.7792 27.5264 13.9825 27.5264H14.7194C14.694 27.6534 14.694 27.7805 14.694 27.9076C14.694 29.7881 16.2188 31.3129 18.0993 31.3129C19.8528 31.3129 21.3013 29.966 21.4792 28.2633C21.6317 28.2887 21.7842 28.2887 21.9366 28.2887H28.366C28.7472 28.2887 29.103 28.1109 29.3571 27.8313C29.3571 27.8567 29.3571 27.8821 29.3571 27.8821C29.3571 29.8897 31.1106 31.4907 33.1436 31.262C34.643 31.0841 35.8628 29.9152 36.1169 28.4412C36.3456 26.9927 35.6086 25.6712 34.4905 24.9851ZM18.0993 29.8643C17.032 29.8643 16.1425 28.9749 16.1425 27.9076C16.1425 27.7805 16.168 27.6534 16.168 27.5264H17.3369C17.2861 27.628 17.2353 27.7551 17.2353 27.9076C17.2353 28.365 17.6165 28.7462 18.0739 28.7462C18.5313 28.7462 18.9125 28.365 18.9125 27.9076C18.9125 27.7805 18.8871 27.6534 18.8109 27.5264H20.0053L20.0307 27.6026C20.0561 27.7043 20.0561 27.7805 20.0561 27.8821C20.0561 28.9749 19.1667 29.8643 18.0993 29.8643ZM32.737 29.8643C31.6697 29.8643 30.7802 28.9749 30.7802 27.9076C30.7802 26.8402 31.6697 25.9508 32.737 25.9508C33.8043 25.9508 34.6938 26.8402 34.6938 27.9076C34.6938 28.9749 33.8297 29.8643 32.737 29.8643Z" fill="white"/>
        <path d="M32.7371 28.7436C33.2002 28.7436 33.5757 28.3682 33.5757 27.905C33.5757 27.4419 33.2002 27.0664 32.7371 27.0664C32.2739 27.0664 31.8984 27.4419 31.8984 27.905C31.8984 28.3682 32.2739 28.7436 32.7371 28.7436Z" fill="white"/>
        <path d="M23.3846 13.1168C24.5282 13.1168 25.443 12.202 25.443 11.0584C25.443 9.91486 24.5282 9 23.3846 9C22.241 9 21.3262 9.91486 21.3262 11.0584C21.3262 12.202 22.241 13.1168 23.3846 13.1168Z" fill="white"/>
        <path d="M18.2769 20.3112V15.8894C18.2769 15.4573 17.9211 15.1016 17.4891 15.1016H12.7878C12.3558 15.1016 12 15.4573 12 15.8894V20.3112C12 20.7432 12.3558 21.0989 12.7878 21.0989H17.4637C17.9211 21.1244 18.2769 20.7686 18.2769 20.3112Z" fill="white"/>
    </g>
    <defs>
        <filter id="filter0_d_4209_47637" x="0" y="0" width="48" height="48" filterUnits="userSpaceOnUse" color-interpolation-filters="sRGB">
            <feFlood flood-opacity="0" result="BackgroundImageFix"/>
            <feColorMatrix in="SourceAlpha" type="matrix" values="0 0 0 0 0 0 0 0 0 0 0 0 0 0 0 0 0 0 127 0" result="hardAlpha"/>
            <feOffset dy="4"/>
            <feGaussianBlur stdDeviation="2"/>
            <feComposite in2="hardAlpha" operator="out"/>
            <feColorMatrix type="matrix" values="0 0 0 0 0 0 0 0 0 0 0 0 0 0 0 0 0 0 0.1 0"/>
            <feBlend mode="normal" in2="BackgroundImageFix" result="effect1_dropShadow_4209_47637"/>
            <feBlend mode="normal" in="SourceGraphic" in2="effect1_dropShadow_4209_47637" result="shape"/>
        </filter>
    </defs>
</svg>
