<svg width="18" height="23" viewBox="0 0 18 23" fill="none" xmlns="http://www.w3.org/2000/svg">
<path d="M12.8338 7.90933L12.7419 7.94178L12.353 8.07906L12.3438 8.49153C12.3009 10.4376 10.6826 12.0204 8.7358 12.0204C6.78868 12.0204 5.17087 10.4374 5.1278 8.49165L5.11859 8.07868L4.72943 7.94141L4.72937 7.94139L4.74601 7.89424C4.52004 7.81486 4.36804 7.60023 4.36804 7.36006C4.36804 7.15624 4.48046 6.9749 4.65248 6.87562L12.8338 7.90933ZM12.8338 7.90933L12.8267 7.90439M12.8338 7.90933L12.8267 7.90439M12.8267 7.90439C13.0254 7.79846 13.1535 7.58963 13.1535 7.36005C13.1535 7.11102 13.0011 6.89179 12.7758 6.79626L12.7325 6.77788L12.7116 6.82002L12.6307 6.98253C10.1772 5.77679 7.61764 5.78282 4.81494 6.99724L12.8267 7.90439ZM3.95893 8.90736L3.9111 8.90985L3.93679 8.87103C3.43798 8.54109 3.12422 7.97672 3.12422 7.36028C3.12422 6.75472 3.42742 6.19908 3.91124 5.86699L3.93294 5.85209V5.82576V4.85303C3.93294 2.20463 6.0874 0.05 8.73598 0.05C11.3844 0.05 13.539 2.20463 13.539 4.85303V5.82576V5.8521L13.5607 5.867C14.0448 6.19908 14.3477 6.75471 14.3477 7.36028C14.3477 7.97637 14.0339 8.54076 13.5357 8.87087L13.516 8.8839L13.5135 8.90736C13.2618 11.3158 11.1951 13.2147 8.7358 13.2147C6.27699 13.2147 4.21053 11.3155 3.95893 8.90736ZM8.7358 1.24364V1.2432L8.73232 1.24366C6.74382 1.24546 5.12659 2.86379 5.12693 4.85271C5.12693 4.85271 5.12693 4.85272 5.12693 4.85272V5.51992V5.59102L5.19384 5.56697C7.68735 4.67066 10.0199 4.65749 12.2769 5.52781L12.3449 5.55403V5.48116V4.85269C12.3449 2.86267 10.7258 1.24364 8.7358 1.24364Z" fill="#242424" stroke="white" stroke-width="0.1"/>
<path d="M15.4585 14.5107L15.5063 14.5306C16.707 15.0526 17.4212 16.1473 17.4212 17.4724V21.9522H16.227V17.4728C16.227 16.6055 15.7899 15.9429 14.9983 15.6125L14.5785 15.4372L14.5092 15.4083V15.4833V21.952L13.3151 21.9522V19.414V19.364H13.2651H4.20595H4.15595V19.414V21.9522H2.96196V18.2404L2.96213 18.2405V18.1198V15.5142V15.4386L2.89253 15.4682L2.55723 15.6111C1.73789 15.9601 1.24415 16.66 1.24415 17.4844L1.24399 21.9521H0.05V17.4844C0.05 16.1879 0.829756 15.0491 2.08898 14.5125C2.08898 14.5125 2.08898 14.5125 2.08898 14.5125L4.87298 13.3265L4.89617 13.3166H4.89669H6.09736V18.1197V18.1697L6.14736 18.1697L11.3236 18.1695L11.3736 18.1695V18.1195V13.3165H12.5986L12.5987 13.3165L15.4585 14.5107ZM4.18657 14.9168L4.15618 14.9298V14.9628V18.0694V18.1194V18.1197H4.20618L4.20617 18.1694L4.85327 18.1695L4.90328 18.1695V18.1195V14.6869V14.6112L4.83367 14.6409L4.18657 14.9168ZM13.2653 18.1697H13.3153V18.1197V14.9432V14.9098L13.2846 14.897L12.6372 14.6269L12.5679 14.598V14.673V18.1197V18.1697H12.6179H13.2653Z" fill="#242424" stroke="white" stroke-width="0.1"/>
<path d="M8.13789 14.5612C8.13789 14.2323 8.40598 13.9641 8.73482 13.9641C9.06367 13.9641 9.33222 14.2325 9.33222 14.5612C9.33222 14.89 9.06373 15.1581 8.73482 15.1581C8.40595 15.1581 8.13789 14.89 8.13789 14.5612Z" fill="#242424" stroke="white" stroke-width="0.1"/>
<path d="M8.13789 2.6471C8.13789 2.31822 8.40598 2.05 8.73482 2.05C9.06367 2.05 9.33222 2.31844 9.33222 2.6471C9.33222 2.97591 9.06373 3.24403 8.73482 3.24403C8.40595 3.24403 8.13789 2.97595 8.13789 2.6471Z" fill="#242424" stroke="white" stroke-width="0.1"/>
<path d="M8.13789 16.4987C8.13789 16.1698 8.40598 15.9016 8.73482 15.9016C9.06368 15.9016 9.33222 16.1698 9.33222 16.4987C9.33222 16.8275 9.06373 17.0956 8.73482 17.0956C8.40596 17.0956 8.13789 16.8275 8.13789 16.4987Z" fill="#242424" stroke="white" stroke-width="0.1"/>
</svg>
