<svg width="41" height="41" viewBox="0 0 41 41" fill="none" xmlns="http://www.w3.org/2000/svg">
<path d="M30.4493 4.13196H26.5671L22.389 0.679199H22.3893C21.8584 0.240158 21.1912 0 20.5024 0C19.8136 0 19.1464 0.240167 18.6158 0.679199L14.4377 4.13196H10.5507C9.24249 4.13196 7.98801 4.65186 7.06278 5.5767C6.13791 6.50193 5.61805 7.7564 5.61805 9.06461V11.4226L0.355088 15.7634L0.330314 15.793L0.236726 15.8918L0.187524 15.9509L0.187179 15.9506C0.159309 15.9915 0.13488 16.0345 0.113204 16.0789L0.0836138 16.1333C0.0282175 16.2592 -0.000340461 16.3951 3.06278e-06 16.5328V35.4944C3.06278e-06 36.8026 0.519552 38.0571 1.44474 38.9823C2.36961 39.9072 3.62409 40.427 4.93265 40.427H36.0674C37.3758 40.427 38.6304 39.9071 39.5553 38.9823C40.4805 38.0571 41 36.8026 41 35.4944V16.5328C41.0003 16.3951 40.9718 16.2592 40.9164 16.1333L40.8868 16.0789C40.8651 16.0345 40.8407 15.9915 40.8128 15.9506L40.7636 15.8914L40.67 15.7927L40.6449 15.7634L35.382 11.4226V9.06461C35.382 7.7564 34.8621 6.50193 33.9372 5.5767C33.012 4.65183 31.7575 4.13197 30.4493 4.13197L30.4493 4.13196ZM19.8731 2.19863C20.2382 1.89653 20.766 1.89653 21.1311 2.19863L23.4594 4.13196H17.54L19.8731 2.19863ZM10.5504 6.10529H30.4493C31.2341 6.10529 31.9869 6.41702 32.5419 6.97201C33.0969 7.527 33.4087 8.27986 33.4087 9.06468V20.2327L21.077 29.4171C20.7275 29.6776 20.2482 29.6776 19.8982 29.4171L7.56661 20.2327V9.06468C7.56661 8.27572 7.88178 7.51909 8.44228 6.96346C9.00243 6.40744 9.76176 6.0988 10.5508 6.10534L10.5504 6.10529ZM5.61779 13.9977V18.7776L2.57928 16.5136L5.61779 13.9977ZM36.0672 38.4531H4.9325C4.14732 38.4531 3.39449 38.1413 2.83948 37.5863C2.28448 37.0313 1.97276 36.2785 1.97276 35.4937V18.5007L5.83018 21.3764C5.94097 21.5209 6.08926 21.6317 6.25924 21.6971L18.7291 30.9951C19.2401 31.376 19.8605 31.5814 20.4977 31.5814C21.1349 31.5814 21.7549 31.376 22.2659 30.9951L34.7402 21.6821C34.9101 21.6168 35.0584 21.506 35.1692 21.3615L39.0267 18.4857V35.4937C39.0267 36.2785 38.7149 37.0313 38.1599 37.5863C37.6049 38.1413 36.8521 38.4531 36.0669 38.4531H36.0672ZM38.4151 16.5125L35.3766 18.7765V13.9821L38.4151 16.5125Z" fill="#242424"/>
<path d="M16.9247 18.056H19.5145V20.6458C19.5145 21.1905 19.9559 21.6322 20.5009 21.6322C21.0459 21.6322 21.4874 21.1904 21.4874 20.6458V18.056H24.0772C24.6219 18.056 25.0636 17.6142 25.0636 17.0695C25.0636 16.5245 24.6218 16.0831 24.0772 16.0831H21.4874V13.4933C21.4874 12.9486 21.0459 12.5068 20.5009 12.5068C19.9559 12.5068 19.5145 12.9486 19.5145 13.4933V16.0827L16.9247 16.0831C16.38 16.0831 15.9382 16.5245 15.9382 17.0695C15.9382 17.6142 16.38 18.056 16.9247 18.056V18.056Z" fill="#00B7EE" stroke="#00B7EE" stroke-width="0.5"/>
</svg>
