<svg width="22" height="31" viewBox="0 0 22 31" fill="none" xmlns="http://www.w3.org/2000/svg">
<path d="M19.4074 19.5398L15.0321 17.9766V16.2142C15.5957 15.6156 16.0167 14.8835 16.243 14.0691C17.4017 13.9307 18.3063 12.953 18.3063 11.758V7.08898C19.1403 6.39197 19.8419 5.52246 20.3503 4.50659L20.934 3.33869H18.7122C17.0042 3.33869 15.3355 2.86009 13.8881 1.95509C12.8881 1.33014 11.7304 1 10.5404 1H10.4642C8.80454 1 7.24513 1.6473 6.07306 2.82231C4.90142 3.99689 4.25872 5.5571 4.26289 7.2153L4.27416 11.7595C4.27458 12.9541 5.17917 13.9307 6.33745 14.0691C6.5638 14.8835 6.98474 15.6154 7.54833 16.2142V17.9766L3.17308 19.5398C1.87325 20.0038 1 21.2422 1 22.6231V30H21.5805V22.6231C21.5805 21.2422 20.7072 20.0038 19.4074 19.5398H19.4074ZM14.0966 18.0351L11.2902 19.639L8.4838 18.0351V17.0005C9.29146 17.5286 10.2547 17.8387 11.2902 17.8387C12.3257 17.8387 13.289 17.5286 14.0966 17.0005V18.0351ZM7.08058 9.88686H8.75797C9.0597 9.88686 9.34304 10.0042 9.55649 10.2176C9.65839 10.3195 9.76969 10.408 9.88767 10.4851L9.88746 11.2901C9.88746 11.5482 9.67739 11.7578 9.41972 11.7578H7.08103V9.88688L7.08058 9.88686ZM10.2182 9.5561C9.8281 9.16604 9.30985 8.95141 8.75797 8.95141H7.08058V7.67953L11.208 8.71086C12.6281 9.06688 14.1482 9.01572 15.4999 8.60749V8.95141H13.8225C13.2706 8.95141 12.7523 9.16606 12.3623 9.5561C12.1495 9.7695 11.8659 9.88686 11.5644 9.88686H11.0163C10.7145 9.88686 10.431 9.7695 10.2182 9.5561ZM12.6934 10.4851C12.8112 10.4078 12.9227 10.3195 13.0246 10.2176C13.2374 10.0042 13.521 9.88686 13.8225 9.88686H15.4999V11.7578H13.1612C12.9035 11.7578 12.6934 11.5482 12.6934 11.2901L12.6934 10.4851ZM16.4157 13.081C16.4255 12.9524 16.4353 12.8242 16.4353 12.6933V10.4406C16.9785 10.6341 17.3708 11.1487 17.3708 11.7578C17.3708 12.3738 16.9691 12.8929 16.4157 13.081L16.4157 13.081ZM17.3708 9.89896C17.0977 9.69224 16.7828 9.5373 16.4353 9.46672V8.26082C16.7594 8.11674 17.0695 7.94551 17.3708 7.75988V9.89896ZM6.73526 3.48321C7.73066 2.48508 9.05476 1.9355 10.464 1.9355H10.5402C11.5548 1.9355 12.5406 2.21656 13.392 2.74798C14.9885 3.74653 16.8286 4.27419 18.7121 4.27419H19.417C18.1761 6.58759 15.7966 8.01609 13.1579 8.01609C12.577 8.01609 11.9975 7.9451 11.4348 7.80415L6.1452 6.48155V9.46673C5.79523 9.53773 5.47952 9.69413 5.20513 9.90315L5.19866 7.21283C5.19469 5.80416 5.74054 4.48012 6.73551 3.48322L6.73526 3.48321ZM5.20947 11.7582C5.20947 11.1492 5.60182 10.6347 6.14495 10.441V12.6936C6.14495 12.8246 6.15476 12.9528 6.16458 13.0814C5.6112 12.8933 5.20948 12.3742 5.20948 11.7581L5.20947 11.7582ZM9.41911 12.6936C10.1928 12.6936 10.8223 12.0641 10.8223 11.2904V10.8039C10.8868 10.8099 10.9501 10.8227 11.0159 10.8227H11.564C11.63 10.8227 11.6931 10.8101 11.7576 10.8039L11.7578 11.2904C11.7578 12.0641 12.3874 12.6936 13.161 12.6936H15.4997C15.4997 15.015 13.611 16.9033 11.2901 16.9033C8.96913 16.9033 7.08043 15.015 7.08043 12.6936H9.41911ZM3.48713 20.4207L7.9703 18.8195L11.29 20.7157L14.6091 18.8191L19.0922 20.4203C20.0213 20.7523 20.6448 21.6373 20.6448 22.6232V25.3225H17.8383V22.5161H16.9029V29.0644H5.67716V22.5161H4.74168V25.3225H1.93525V22.6232C1.93525 21.6373 2.55876 20.7523 3.48713 20.4207V20.4207ZM1.93525 26.258H4.74168V29.0644H1.93525V26.258ZM17.8383 29.0644V26.258H20.6448V29.0644H17.8383Z" fill="black" stroke="black" stroke-width="0.3"/>
</svg>
