<svg width="22" height="28" viewBox="0 0 22 28" fill="none" xmlns="http://www.w3.org/2000/svg">
<path d="M11.956 0H0.47824C0.214142 0 0 0.214142 0 0.47824V20.5643C0 20.6912 0.0503863 20.8129 0.140056 20.9025C0.229726 20.9922 0.351422 21.0426 0.47824 21.0426H0.956481V21.7471C0.952638 23.8568 1.66378 25.9053 2.97427 27.5587C3.13931 27.765 3.44034 27.7985 3.6466 27.6332C3.85284 27.4682 3.88636 27.1672 3.72111 26.9609C2.546 25.4775 1.90872 23.6395 1.91298 21.7472V21.0426H3.82594V24.3143C3.82594 24.5784 4.04008 24.7925 4.30418 24.7925C4.56828 24.7925 4.78242 24.5784 4.78242 24.3143V18.6596C4.78242 18.318 4.96475 18.0022 5.26066 17.8312C5.55657 17.6604 5.92123 17.6604 6.21714 17.8312C6.51306 18.0022 6.69538 18.318 6.69538 18.6596V22.8715C6.69538 22.9979 6.74534 23.1189 6.83459 23.2086L7.05641 23.4319C8.05558 24.4553 8.61285 25.8297 8.60837 27.2598C8.60837 27.5239 8.82251 27.738 9.08661 27.738C9.35071 27.738 9.56485 27.5239 9.56485 27.2598C9.56442 26.2119 9.31079 25.1794 8.82552 24.2507C9.50681 23.3093 9.9193 22.2004 10.0188 21.0426H11.9561C12.0829 21.0426 12.2046 20.9923 12.2942 20.9026C12.3839 20.8129 12.4343 20.6912 12.4343 20.5644V17.8929L21.8597 8.43355C21.9496 8.34388 22 8.22218 22 8.09536C22 7.96833 21.9496 7.84663 21.8597 7.75697L14.6861 0.617247C14.4993 0.430433 14.1966 0.430433 14.01 0.617247L12.4346 2.1997V0.478038C12.4346 0.35122 12.3842 0.229523 12.2945 0.139854C12.2048 0.0501852 12.0828 0 11.956 0ZM8.2635 23.3764C8.10124 23.1584 7.92468 22.9517 7.73466 22.7577L7.65182 22.674V21.0426H9.05599C8.97316 21.8708 8.70224 22.6691 8.2635 23.3764ZM11.4778 20.0862H7.65185V18.6595C7.65868 18.0314 7.35572 17.4404 6.84206 17.079C6.32838 16.7177 5.66974 16.6323 5.08088 16.851C4.49207 17.0696 4.04859 17.5641 3.89534 18.1731H2.86944V16.2602C2.86944 15.9961 2.6553 15.7819 2.3912 15.7819C2.1271 15.7819 1.91296 15.9961 1.91296 16.2602V18.6514C1.91296 18.7782 1.96335 18.8999 2.05302 18.9896C2.14269 19.0792 2.26438 19.1296 2.3912 19.1296H3.82592V20.0861H0.956481V0.956486H11.4778V20.0862ZM14.3472 1.63263L20.8442 8.09789L12.4343 16.5373V15.0236L18.9897 8.46874C19.1763 8.28192 19.1763 7.97918 18.9897 7.79237L18.0332 6.83589C17.8455 6.65462 17.5473 6.6574 17.3628 6.84186C17.1783 7.02633 17.1756 7.32459 17.3568 7.51228L17.9753 8.13054L12.4343 13.6716V6.41544L14.3472 4.50248L14.9655 5.12075C15.1532 5.30201 15.4514 5.29944 15.6359 5.11498C15.8204 4.93052 15.8232 4.63226 15.6419 4.44457L14.6854 3.48809C14.4986 3.30149 14.1959 3.30149 14.0091 3.48809L12.4343 5.06306V3.55406L14.3472 1.63263Z" fill="#242424"/>
<path d="M2.3912 5.26064C2.51802 5.26064 2.63972 5.21026 2.72939 5.12059C2.81906 5.03092 2.86944 4.90922 2.86944 4.7824V2.86944H3.34768C3.61178 2.86944 3.82592 2.6553 3.82592 2.3912C3.82592 2.1271 3.61178 1.91296 3.34768 1.91296H2.3912C2.1271 1.91296 1.91296 2.1271 1.91296 2.3912V4.7824C1.91296 4.90922 1.96335 5.03092 2.05302 5.12059C2.14269 5.21026 2.26438 5.26064 2.3912 5.26064Z" fill="#242424"/>
<path d="M10.043 15.7819C9.77895 15.7819 9.56481 15.9961 9.56481 16.2602V18.1731H9.08657C8.82247 18.1731 8.60833 18.3873 8.60833 18.6514C8.60833 18.9155 8.82247 19.1296 9.08657 19.1296H10.043C10.1699 19.1296 10.2916 19.0792 10.3812 18.9896C10.4709 18.8999 10.5213 18.7782 10.5213 18.6514V16.2602C10.5213 16.1334 10.4709 16.0117 10.3812 15.922C10.2916 15.8323 10.1699 15.7819 10.043 15.7819Z" fill="#242424"/>
<path d="M9.08657 2.86944H9.56481V4.7824C9.56481 5.0465 9.77895 5.26064 10.043 5.26064C10.3071 5.26064 10.5213 5.0465 10.5213 4.7824V2.3912C10.5213 2.26438 10.4709 2.14269 10.3812 2.05302C10.2916 1.96335 10.1699 1.91296 10.043 1.91296H9.08657C8.82247 1.91296 8.60833 2.1271 8.60833 2.3912C8.60833 2.6553 8.82247 2.86944 9.08657 2.86944Z" fill="#242424"/>
<circle cx="5.99929" cy="9.99929" r="3.27273" fill="white"/>
<path d="M6.00009 6C3.79118 6 2 7.79086 2 10C2 12.209 3.79127 14 6.00009 14C8.20919 14 10 12.2092 10 10C9.99993 7.79095 8.20925 6 6.00009 6ZM6.86717 11.8178C6.7165 11.9233 6.5386 11.9935 6.36091 12.0426V12.3164C6.36091 12.506 6.17443 12.6533 5.93462 12.6533C5.69483 12.6533 5.50834 12.506 5.50834 12.3164V12.0426C5.1441 11.9515 4.86885 11.783 4.68223 11.5233C4.56672 11.3618 4.6382 11.1653 4.84205 11.0599C5.04647 10.9687 5.30377 11.0249 5.41944 11.1864C5.51729 11.3128 5.65037 11.3899 5.82814 11.411C6.01455 11.432 6.17451 11.3969 6.30745 11.3055C6.44961 11.2142 6.52087 11.0951 6.52087 10.9477C6.51215 10.8142 6.44082 10.6807 6.29887 10.5966L5.18835 9.87365C4.85978 9.67002 4.6733 9.36132 4.6733 9.0314C4.66444 8.70148 4.84199 8.39264 5.16169 8.17514C5.30371 8.06985 5.47254 8.00653 5.65015 7.95736V7.68376C5.65015 7.49429 5.83663 7.34683 6.07666 7.34683C6.31632 7.34683 6.50294 7.49428 6.50294 7.68376V7.96451C6.83152 8.04185 7.1157 8.21731 7.28453 8.46305C7.41755 8.62429 7.33771 8.82085 7.13365 8.92619C6.92937 9.01753 6.68063 8.96114 6.54733 8.79975C6.46742 8.68046 6.33398 8.61034 6.16514 8.58933C5.99653 8.56818 5.84564 8.59626 5.71249 8.68761C5.57905 8.77874 5.51714 8.89117 5.52587 9.02454C5.52587 9.15784 5.58798 9.26312 5.72144 9.35438L6.84068 10.0774C7.16926 10.295 7.36446 10.6038 7.37339 10.9406C7.37339 11.2846 7.18677 11.6005 6.8672 11.8178L6.86717 11.8178Z" fill="#FF9C00"/>
</svg>
