<svg width="15" height="19" viewBox="0 0 15 19" fill="none" xmlns="http://www.w3.org/2000/svg">
<path d="M14.2738 4.57141L10.2231 0.501474C9.89521 0.173582 9.47084 0 9.00787 0H1.7167C1.25374 0 0.82935 0.173568 0.501475 0.501474C0.173582 0.829367 0 1.25374 0 1.7167V16.5884C0 17.5336 0.771483 18.3051 1.7167 18.3051H13.0778C14.023 18.3051 14.7945 17.5336 14.7945 16.5884V5.78664C14.7945 5.32368 14.6017 4.89929 14.2738 4.57141H14.2738ZM9.60586 2.02536L12.7692 5.18872H9.93391C9.74097 5.18872 9.60602 5.0344 9.60602 4.86083L9.60586 2.02536ZM13.29 16.6077C13.29 16.7234 13.1936 16.8199 13.0778 16.8199H1.71673C1.60102 16.8199 1.50455 16.7234 1.50455 16.6077V1.71674C1.50455 1.63964 1.54316 1.58165 1.5624 1.56241C1.60102 1.5238 1.6395 1.50455 1.71673 1.50455H8.10133V4.86084C8.10133 5.88315 8.93068 6.69324 9.93373 6.69324H13.2707L13.2708 16.6077L13.29 16.6077Z" fill="#D2002E"/>
<path d="M7.96598 10.8017C7.77304 10.5896 7.56085 10.3003 7.36806 9.953C7.79242 8.50634 7.85028 7.50329 7.50315 7.00181C7.32958 6.73178 7.04018 6.59668 6.71227 6.59668C6.32653 6.59668 6.01788 6.77025 5.88293 7.11751C5.59365 7.79269 6.03725 9.02714 6.5581 10.0301C6.42301 10.4931 6.23021 11.0138 5.9988 11.5732C5.88308 11.8819 5.72876 12.1905 5.57444 12.4798C4.41704 12.9234 3.14409 13.5986 2.98978 14.4087C2.93192 14.7173 3.02839 15.0066 3.29843 15.2188C3.45276 15.3539 3.62632 15.4118 3.81926 15.4118C3.89636 15.4118 3.97359 15.3925 4.05068 15.3731C4.76434 15.1996 5.5166 14.1387 6.09526 13.0971C6.42316 12.9814 6.80891 12.8463 7.21401 12.7306C7.69623 12.5955 8.13984 12.4798 8.52558 12.4027C9.23924 12.9814 9.87577 13.2901 10.4159 13.2901C10.8016 13.3093 11.1489 13.155 11.4189 12.8657C11.8433 12.4414 11.6697 12.0556 11.6118 11.9399C11.3032 11.4191 10.2617 11.3034 8.73778 11.5928C8.50609 11.3611 8.23607 11.091 7.96602 10.8017H7.96598ZM3.87675 14.6402C3.8189 14.6595 3.79966 14.6402 3.74167 14.5437C3.78028 14.3508 4.1468 13.9844 4.93754 13.5986C4.53268 14.1774 4.14694 14.5824 3.87676 14.6402L3.87675 14.6402ZM6.55804 7.4262C6.57728 7.38759 6.57728 7.36835 6.69312 7.36835C6.80884 7.36835 6.84745 7.40696 6.86669 7.44544C7.00178 7.63839 7.00178 8.13984 6.84745 8.93072C6.59652 8.27479 6.44218 7.67687 6.55804 7.42619L6.55804 7.4262ZM7.0209 11.9977C6.88581 12.0363 6.73162 12.0747 6.57729 12.1327C6.61591 12.0363 6.65439 11.9398 6.693 11.8627C6.82809 11.5156 6.96304 11.1875 7.05953 10.879C7.17524 11.0526 7.31032 11.2069 7.40665 11.3226C7.56098 11.4769 7.71531 11.6313 7.85026 11.7856C7.5996 11.8433 7.31031 11.9204 7.02091 11.9976L7.0209 11.9977ZM10.9172 12.3255C10.8208 12.4991 10.6664 12.5185 10.4543 12.5185C10.2228 12.5185 9.91419 12.4028 9.58631 12.2098C10.5315 12.1134 11.0137 12.152 10.9173 12.3255L10.9172 12.3255Z" fill="#D2002E"/>
</svg>
