<svg width="36" height="41" viewBox="0 0 36 41" fill="none" xmlns="http://www.w3.org/2000/svg">
<path d="M28.8982 35.1016C29.097 35.1016 29.2828 34.977 29.351 34.7781C29.4372 34.5281 29.3042 34.2554 29.0539 34.1692C29.0075 34.1535 24.4221 32.5566 23.1913 30.5136C22.7976 29.404 22.0135 26.4122 22.8822 25.2228C22.8902 25.2114 22.8919 25.1977 22.8989 25.186C23.3507 24.6503 23.725 24.1079 23.9787 23.6006C25.0983 21.3607 25.7577 14.2912 25.5732 12.7409C25.246 9.99504 23.7722 5.38867 17.5707 5.38867C11.4306 5.38867 9.96511 9.99504 9.63829 12.7409C9.45381 14.2913 10.1132 21.3599 11.2331 23.6006C11.5059 24.1457 11.9149 24.7312 12.4129 25.3047C13.1642 26.5563 12.4192 29.4044 12.0372 30.4835C10.8077 32.5236 6.22136 34.1234 6.17465 34.1391C5.92466 34.2253 5.79198 34.4981 5.87754 34.748C5.94605 34.9469 6.13154 35.0716 6.33039 35.0716C6.38219 35.0716 6.435 35.0629 6.48612 35.0452C6.69066 34.9753 11.5116 33.2946 12.8871 30.9291L12.9236 30.8509C13.0385 30.5327 13.7698 28.4178 13.6879 26.5704C13.8115 26.6767 13.9355 26.7826 14.0635 26.8842C15.3916 27.942 16.6499 28.5249 17.6061 28.5249C18.5623 28.5249 19.8206 27.9424 21.1486 26.8842C21.2827 26.7773 21.4137 26.6667 21.543 26.5547C21.4468 28.4129 22.1887 30.5601 22.3047 30.881L22.3411 30.9592C23.7167 33.3246 28.5376 35.0047 28.7415 35.0752C28.7943 35.0936 28.8468 35.1016 28.8982 35.1016L28.8982 35.1016ZM20.5524 26.1353C19.4265 27.0317 18.3259 27.567 17.6067 27.567C16.8881 27.567 15.7869 27.0319 14.6616 26.1353C14.1169 25.7012 13.6139 25.2196 13.1831 24.731C13.1614 24.6976 13.1447 24.6605 13.1216 24.6284C13.0899 24.5849 13.0488 24.5532 13.007 24.5234C12.6237 24.0639 12.3065 23.6027 12.0913 23.1729C11.0846 21.1594 10.4247 14.2554 10.5911 12.8548C10.9446 9.88607 12.4422 6.34744 17.572 6.34744C22.7599 6.34744 24.2694 9.88632 24.6227 12.8548C24.7898 14.2551 24.1291 21.1594 23.1225 23.1729C22.6465 24.1251 21.6854 25.2323 20.5524 26.1353L20.5524 26.1353Z" fill="#979797"/>
<path d="M0.479631 9.54254C0.743984 9.54254 0.958884 9.32798 0.958884 9.06329V0.958508H9.06401C9.32836 0.958508 9.54326 0.743949 9.54326 0.479254C9.54326 0.214901 9.3287 0 9.06401 0H0.479253C0.214901 0 0 0.214559 0 0.479254V9.064C0.000334184 9.32836 0.214892 9.54292 0.479253 9.54292L0.479631 9.54254Z" fill="#979797"/>
<path d="M34.5749 0.000376634H25.991C25.7259 0.000376634 25.5117 0.214936 25.5117 0.479631C25.5117 0.743984 25.7259 0.958884 25.991 0.958884H34.0958V9.06401C34.0958 9.32836 34.31 9.54326 34.575 9.54326C34.84 9.54326 35.0543 9.3287 35.0543 9.06401L35.0539 0.479254C35.0539 0.214901 34.8397 0 34.5747 0L34.5749 0.000376634Z" fill="#979797"/>
<path d="M34.575 31.4555C34.31 31.4555 34.0957 31.6697 34.0957 31.9347V40.0398H25.9912C25.7262 40.0398 25.512 40.2541 25.512 40.5191C25.512 40.7841 25.7262 40.9983 25.9912 40.9983H34.5751C34.8401 40.9983 35.0544 40.7841 35.0544 40.5191V31.9343C35.0544 31.6693 34.8401 31.4551 34.5751 31.4551L34.575 31.4555Z" fill="#979797"/>
<path d="M9.06329 40.0424H0.958508V31.9373C0.958508 31.6722 0.74395 31.458 0.479255 31.458C0.214902 31.458 0 31.6722 0 31.9373L0.000334206 40.5212C0.000334206 40.7862 0.214894 41.0004 0.479589 41.0004H9.06434C9.32869 41.0004 9.54359 40.7862 9.54359 40.5212C9.54326 40.2565 9.32837 40.0422 9.06367 40.0422L9.06329 40.0424Z" fill="#979797"/>
</svg>
