<svg width="19" height="22" viewBox="0 0 19 22" fill="none" xmlns="http://www.w3.org/2000/svg">
<path d="M15.0969 18.1233C15.1939 18.1233 15.2845 18.0625 15.3178 17.9655C15.3598 17.8435 15.295 17.7105 15.1729 17.6684C15.1502 17.6608 12.9134 16.8818 12.313 15.8852C12.1209 15.3439 11.7385 13.8845 12.1622 13.3043C12.1661 13.2987 12.1669 13.292 12.1703 13.2863C12.3908 13.025 12.5734 12.7604 12.6971 12.5129C13.2432 11.4203 13.5649 7.97167 13.4749 7.21542C13.3153 5.87596 12.5963 3.62891 9.57117 3.62891C6.57597 3.62891 5.86108 5.87596 5.70165 7.21542C5.61166 7.97171 5.93331 11.4199 6.47964 12.5129C6.61268 12.7788 6.81223 13.0645 7.05514 13.3442C7.42163 13.9548 7.05823 15.3441 6.87189 15.8705C6.27211 16.8657 4.03482 17.6461 4.01204 17.6538C3.89009 17.6958 3.82537 17.8289 3.8671 17.9508C3.90052 18.0478 3.99101 18.1086 4.08801 18.1086C4.11328 18.1086 4.13904 18.1044 4.16398 18.0957C4.26375 18.0617 6.61545 17.2418 7.28648 16.0879L7.30425 16.0497C7.36033 15.8945 7.71704 14.8629 7.6771 13.9617C7.73742 14.0135 7.7979 14.0652 7.86034 14.1147C8.5082 14.6307 9.12201 14.9151 9.58845 14.9151C10.0549 14.9151 10.6687 14.6309 11.3166 14.1147C11.3819 14.0626 11.4458 14.0086 11.5089 13.954C11.462 14.8604 11.8239 15.9079 11.8805 16.0644L11.8982 16.1025C12.5693 17.2565 14.921 18.076 15.0205 18.1104C15.0462 18.1194 15.0718 18.1233 15.0969 18.1233L15.0969 18.1233ZM11.0257 13.7494C10.4764 14.1867 9.9396 14.4478 9.58873 14.4478C9.23822 14.4478 8.70101 14.1868 8.1521 13.7494C7.88636 13.5376 7.64101 13.3027 7.43087 13.0643C7.42027 13.048 7.41212 13.0299 7.40087 13.0143C7.38538 12.9931 7.36533 12.9776 7.34495 12.9631C7.15796 12.7389 7.00324 12.5139 6.89826 12.3043C6.4072 11.3221 6.08525 7.9542 6.16642 7.27098C6.33891 5.8228 7.06946 4.09661 9.5718 4.09661C12.1025 4.09661 12.8389 5.82292 13.0112 7.27098C13.0928 7.95407 12.7704 11.3221 12.2794 12.3043C12.0473 12.7688 11.5784 13.3089 11.0257 13.7494L11.0257 13.7494Z" fill="#242424" stroke="#242424" stroke-width="0.6"/>
<path d="M1.23397 5.65498C1.36293 5.65498 1.46776 5.55032 1.46776 5.42119V1.46757H5.42155C5.5505 1.46757 5.65533 1.36291 5.65533 1.23379C5.65533 1.10483 5.55067 1 5.42155 1H1.23379C1.10483 1 1 1.10466 1 1.23379V5.42155C1.00016 5.5505 1.10483 5.65517 1.23379 5.65517L1.23397 5.65498Z" fill="#242424" stroke="#242424" stroke-width="0.6"/>
<path d="M17.8661 1.00018H13.6787C13.5494 1.00018 13.4449 1.10485 13.4449 1.23397C13.4449 1.36293 13.5494 1.46776 13.6787 1.46776H17.6324V5.42155C17.6324 5.5505 17.7369 5.65533 17.8661 5.65533C17.9954 5.65533 18.0999 5.55067 18.0999 5.42155L18.0998 1.23379C18.0998 1.10483 17.9953 1 17.866 1L17.8661 1.00018Z" fill="#242424" stroke="#242424" stroke-width="0.6"/>
<path d="M17.8661 16.3449C17.7368 16.3449 17.6323 16.4494 17.6323 16.5787V20.5325H13.6788C13.5495 20.5325 13.445 20.637 13.445 20.7663C13.445 20.8956 13.5495 21.0001 13.6788 21.0001H17.8661C17.9954 21.0001 18.0999 20.8956 18.0999 20.7663V16.5785C18.0999 16.4492 17.9954 16.3447 17.8661 16.3447L17.8661 16.3449Z" fill="#242424" stroke="#242424" stroke-width="0.6"/>
<path d="M5.42132 20.5325H1.4677V16.5788C1.4677 16.4495 1.36303 16.345 1.23391 16.345C1.10495 16.345 1.00012 16.4495 1.00012 16.5788L1.00029 20.7661C1.00029 20.8954 1.10495 20.9999 1.23407 20.9999H5.42183C5.55079 20.9999 5.65562 20.8954 5.65562 20.7661C5.65546 20.637 5.55063 20.5325 5.42151 20.5325L5.42132 20.5325Z" fill="#242424" stroke="#242424" stroke-width="0.6"/>
</svg>
