<svg width="83" height="88" viewBox="0 0 83 88" fill="none" xmlns="http://www.w3.org/2000/svg">
<path d="M71.6714 0L65.5363 2.0535L63.5074 8.16405L74.3846 19.0666L80.5205 17.0131L82.574 10.9026L71.6714 0Z" fill="#CAD1D6"/>
<path d="M59.8291 11.4086L60.4691 10.7694C61.1951 10.0443 62.5087 10.1818 63.0964 10.7702L71.8234 19.5007C72.5486 20.2266 72.5486 21.4027 71.8226 22.1279L71.1826 22.7671C70.4566 23.4922 69.143 23.3547 68.5554 22.7663L59.8283 14.0358C59.1032 13.3099 59.1032 12.1338 59.8291 11.4086V11.4086Z" fill="#CAD1D6"/>
<path d="M47.1801 24.4933L57.2225 14.4508L68.1121 25.3404L58.0696 35.3828L47.1801 24.4933Z" fill="#CAD1D6"/>
<path d="M35.6396 24.4451C34.7647 23.5776 33.5837 23.0906 32.352 23.0906C31.1203 23.0906 29.9383 23.5776 29.0644 24.4451L27.4758 26.0337H27.4749C26.8709 26.6451 26.4486 27.412 26.2538 28.2492C26.0598 29.0865 26.1016 29.9614 26.3749 30.7759L12.1487 45.0021V45.0029C10.6738 44.7607 9.17284 45.2427 8.11537 46.2977L6.55132 47.8863L6.5505 47.8871C5.67149 48.7547 5.17632 49.939 5.17632 51.1748C5.17632 52.4106 5.67149 53.5941 6.5505 54.4624L6.81978 54.7554C5.74271 55.023 4.75564 55.5714 3.9602 56.3448L1.85764 58.4474V58.4466C0.692978 59.6153 0.0398484 61.1974 0.0398484 62.8466C0.0398484 64.4966 0.692978 66.0787 1.85764 67.2466L3.15325 68.4448L1.36903 70.229L9.5086 78.4667L5.45076 82.549L2.73763 79.8359L0 82.549L5.45097 88L6.82024 86.6307L8.18952 85.286L12.2719 81.1789L14.0315 79.4192L15.3272 80.6903V80.6911C16.4975 81.8729 18.0927 82.5359 19.7567 82.5318C21.4198 82.5269 23.0116 81.8549 24.1756 80.6666L26.2781 78.564C27.0311 77.7897 27.5631 76.828 27.8176 75.778L28.0869 76.0472V76.0464C28.9651 76.9156 30.1511 77.4026 31.3869 77.4026C32.6228 77.4026 33.8088 76.9156 34.6869 76.0464L36.251 74.4578C37.3117 73.4118 37.8027 71.9198 37.5711 70.449L51.7982 56.2219C52.615 56.4953 53.4916 56.5346 54.3297 56.3365C55.167 56.1376 55.933 55.7088 56.5403 55.0974L58.1044 53.5333C58.9851 52.6608 59.481 51.4733 59.481 50.2333C59.481 48.9934 58.9851 47.8058 58.1044 46.9333L35.6396 24.4451Z" fill="#CAD1D6"/>
<path d="M39.5096 23.102L40.0285 22.5831C40.639 21.9726 41.7456 22.088 42.2408 22.5831L60.0095 40.3518C60.6201 40.9624 60.6201 41.9535 60.0095 42.5641L59.4906 43.0831C58.88 43.6936 57.7735 43.5782 57.2782 43.0831L39.5096 25.3144C38.899 24.7038 38.899 23.7127 39.5096 23.102Z" fill="#CAD1D6"/>
</svg>
