<svg width="35" height="35" viewBox="0 0 35 35" fill="none" xmlns="http://www.w3.org/2000/svg">
<path fill-rule="evenodd" clip-rule="evenodd" d="M17.5 35C27.165 35 35 27.165 35 17.5C35 7.83502 27.165 0 17.5 0C7.83502 0 0 7.83502 0 17.5C0 27.165 7.83502 35 17.5 35Z" fill="#00B7EE"/>
<path d="M26 26.8333C26 27.3549 25.5772 27.7778 25.0556 27.7778C24.534 27.7778 24.1111 27.3549 24.1111 26.8333C24.1111 23.1821 21.1512 20.2222 17.5 20.2222C13.8488 20.2222 10.8889 23.1821 10.8889 26.8333C10.8889 27.3549 10.466 27.7778 9.94444 27.7778C9.42284 27.7778 9 27.3549 9 26.8333C9 22.1389 12.8056 18.3333 17.5 18.3333C22.1944 18.3333 26 22.1389 26 26.8333ZM17.5 17.3889C14.6312 17.3889 12.3056 15.0633 12.3056 12.1944C12.3056 9.32563 14.6312 7 17.5 7C20.3688 7 22.6944 9.32563 22.6944 12.1944C22.6944 15.0633 20.3688 17.3889 17.5 17.3889ZM17.5 15.5C19.3256 15.5 20.8056 14.0201 20.8056 12.1944C20.8056 10.3688 19.3256 8.88889 17.5 8.88889C15.6744 8.88889 14.1944 10.3688 14.1944 12.1944C14.1944 14.0201 15.6744 15.5 17.5 15.5Z" fill="white"/>
</svg>
