<svg width="17" height="21" viewBox="0 0 17 21" fill="none"
    xmlns="http://www.w3.org/2000/svg">
    <path d="M17 19.8333C17 20.3549 16.5772 20.7778 16.0556 20.7778C15.534 20.7778 15.1111 20.3549 15.1111 19.8333C15.1111 16.1821 12.1512 13.2222 8.5 13.2222C4.84878 13.2222 1.88889 16.1821 1.88889 19.8333C1.88889 20.3549 1.46605 20.7778 0.944444 20.7778C0.422842 20.7778 0 20.3549 0 19.8333C0 15.1389 3.80558 11.3333 8.5 11.3333C13.1944 11.3333 17 15.1389 17 19.8333ZM8.5 10.3889C5.63119 10.3889 3.30556 8.06326 3.30556 5.19444C3.30556 2.32563 5.63119 0 8.5 0C11.3688 0 13.6944 2.32563 13.6944 5.19444C13.6944 8.06326 11.3688 10.3889 8.5 10.3889ZM8.5 8.5C10.3256 8.5 11.8056 7.02005 11.8056 5.19444C11.8056 3.36884 10.3256 1.88889 8.5 1.88889C6.67439 1.88889 5.19444 3.36884 5.19444 5.19444C5.19444 7.02005 6.67439 8.5 8.5 8.5Z" fill="#979797"/>
</svg>
