<svg width="19" height="19" viewBox="0 0 19 19" fill="none" xmlns="http://www.w3.org/2000/svg">
<path d="M17.8396 15.2713H13.5583V3.56923C13.5583 2.88792 13.2877 2.23453 12.8059 1.75288C12.3243 1.2711 11.6709 1.00049 10.9896 1.00049H3.56875C2.88743 1.00049 2.23404 1.27112 1.75239 1.75288C1.27061 2.23453 1 2.88792 1 3.56923C1 3.64492 1.03007 3.71755 1.08359 3.77106C1.1371 3.82458 1.20973 3.85465 1.28542 3.85465H3.28333V5.97528C2.30717 6.25355 1.52585 6.9866 1.1859 7.94298C0.84594 8.89937 0.989418 9.96115 1.57083 10.7931V15.5567C1.5702 15.6727 1.63977 15.7776 1.7468 15.822C1.85382 15.8665 1.97729 15.8418 2.05884 15.7593L3.28333 14.5321V15.5567C3.28333 16.2381 3.55396 16.8914 4.03572 17.3731C4.51737 17.8549 5.17076 18.1255 5.85207 18.1255H15.5562C16.2375 18.1255 16.8909 17.8549 17.3726 17.3731C17.8544 16.8914 18.125 16.2381 18.125 15.5567C18.125 15.4811 18.0949 15.4084 18.0414 15.3549C17.9879 15.3014 17.9152 15.2713 17.8396 15.2713L17.8396 15.2713ZM3.56875 1.57132H9.37982C8.85142 1.99524 8.51199 2.61079 8.43514 3.28382H1.58515C1.65396 2.80729 1.89249 2.3715 2.25704 2.05692C2.62146 1.74233 3.08729 1.56979 3.56881 1.57132H3.56875ZM4.13958 6.4234C4.82089 6.4234 5.47428 6.69403 5.95593 7.17579C6.43772 7.65744 6.70832 8.31083 6.70832 8.99214C6.70832 9.67345 6.43769 10.3268 5.95593 10.8085C5.47428 11.2903 4.82089 11.5609 4.13958 11.5609C3.45827 11.5609 2.80487 11.2902 2.32322 10.8085C1.84144 10.3268 1.57083 9.67345 1.57083 8.99214C1.57083 8.31083 1.84147 7.65744 2.32322 7.17579C2.80487 6.694 3.45827 6.4234 4.13958 6.4234ZM2.14166 11.4125C2.70408 11.8765 3.41048 12.1302 4.13958 12.1302C4.86868 12.1302 5.57507 11.8765 6.13749 11.4125V14.8688L4.34217 13.0735C4.23094 12.9627 4.05115 12.9627 3.93979 13.0735L3.36895 13.6443L2.14166 14.8688V11.4125ZM5.85208 17.5546C5.32215 17.5546 4.81401 17.3441 4.43938 16.9694C4.06465 16.5948 3.85416 16.0867 3.85416 15.5567V13.9612L4.13958 13.6758L6.22031 15.7565C6.3016 15.8384 6.42418 15.8634 6.53108 15.8197C6.63786 15.7759 6.70781 15.6722 6.70832 15.5567V13.2734H10.4187C10.5763 13.2734 10.7041 13.1456 10.7041 12.988C10.7041 12.8304 10.5763 12.7026 10.4187 12.7026H6.70832V10.9901H10.4187C10.5763 10.9901 10.7041 10.8623 10.7041 10.7046C10.7041 10.547 10.5763 10.4192 10.4187 10.4192H6.93372C7.16078 9.97785 7.27915 9.48857 7.27902 8.99214C7.27902 8.89505 7.27902 8.80089 7.26475 8.70673H10.4186C10.5762 8.70673 10.704 8.57892 10.704 8.42131C10.704 8.26369 10.5762 8.13589 10.4186 8.13589H7.15639C6.95889 7.44199 6.52861 6.83727 5.93765 6.4234H10.4188C10.5765 6.4234 10.7043 6.29559 10.7043 6.13798C10.7043 5.98036 10.5765 5.85256 10.4188 5.85256H4.42511C4.40612 5.85065 4.38701 5.85065 4.36802 5.85256H4.13969C4.0626 5.85256 3.94843 5.85256 3.85427 5.86683V3.85463H8.70635C8.78203 3.85463 8.85466 3.82456 8.90818 3.77105C8.96169 3.71753 8.99176 3.6449 8.99176 3.56922C8.99176 2.85542 9.37262 2.19589 9.99072 1.83901C10.6088 1.48212 11.3705 1.48212 11.9886 1.83901C12.6067 2.19589 12.9876 2.85542 12.9876 3.56922V15.5567C12.9887 16.3334 13.3413 17.0679 13.9465 17.5546L5.85208 17.5546ZM15.5562 17.5546C15.0757 17.5548 14.6113 17.3817 14.248 17.0671C13.8846 16.7527 13.647 16.3178 13.5783 15.8421H17.534C17.4654 16.3178 17.2277 16.7527 16.8643 17.0671C16.5011 17.3817 16.0366 17.5548 15.5562 17.5546H15.5562ZM4.13958 10.1338C4.44232 10.1338 4.73272 10.0135 4.9469 9.79946C5.16096 9.58527 5.28124 9.29488 5.28124 8.99214C5.28124 8.6894 5.16096 8.399 4.9469 8.18482C4.73271 7.97076 4.44231 7.85048 4.13958 7.85048C3.83684 7.85048 3.54643 7.97076 3.33226 8.18482C3.1182 8.39901 2.99791 8.6894 2.99791 8.99214C2.99791 9.29488 3.1182 9.58529 3.33226 9.79946C3.54645 10.0135 3.83684 10.1338 4.13958 10.1338ZM4.13958 8.42131C4.29095 8.42131 4.43621 8.48145 4.54324 8.58848C4.65027 8.69551 4.71041 8.84077 4.71041 8.99214C4.71041 9.14351 4.65027 9.28877 4.54324 9.3958C4.43621 9.50283 4.29095 9.56297 4.13958 9.56297C3.98821 9.56297 3.84295 9.50283 3.73592 9.3958C3.62889 9.28877 3.56875 9.14351 3.56875 8.99214C3.56875 8.84077 3.62889 8.69551 3.73592 8.58848C3.84295 8.48145 3.98821 8.42131 4.13958 8.42131ZM12.4166 3.71178C12.4166 3.79065 12.3528 3.85449 12.2739 3.85449C12.1951 3.85449 12.1312 3.79065 12.1312 3.71178C12.1312 3.3712 11.9959 3.04449 11.7551 2.80354C11.5142 2.56272 11.1875 2.42741 10.8469 2.42741C10.768 2.42741 10.7042 2.36357 10.7042 2.2847C10.7042 2.20583 10.768 2.14199 10.8469 2.14199C11.263 2.14275 11.6618 2.3084 11.956 2.6026C12.2502 2.89681 12.4159 3.29563 12.4166 3.71178Z" fill="#242424" stroke="#242424" stroke-width="0.1"/>
</svg>
