<svg width="14" height="21" viewBox="0 0 14 21" fill="none"
    xmlns="http://www.w3.org/2000/svg">
    <path d="M2.3319 0.640625V1.68404H2.83367V0.640625H5.16572V1.68404H5.6678V0.640625H7.9997V1.68404H8.50117V0.640625H10.8335V1.68404H11.335V0.640625H13.667V20.6406H11.335V19.5972H10.8335V20.6406H8.50117V19.5972H7.9997V20.6406H5.6678V19.5972H5.16572V20.6406H2.83367V19.5972H2.3319V20.6406H0V0.640625H2.3319ZM3.32269 16.1332H10.3445V17.048H3.32269V16.1332ZM3.32269 14.7609H10.3445V15.6761H3.32269V14.7609ZM6.54985 12.5017C4.83956 12.3857 4.88778 11.5968 4.88778 10.1527H5.74344C5.74344 10.8801 5.54498 11.7141 6.54985 11.7372V9.1738C5.42646 9.03319 4.97424 8.70616 4.97424 7.52476C4.97424 6.21433 4.95466 5.34638 6.54985 5.19286V4.59871H7.2038V5.19317C8.72648 5.34786 8.76043 6.02851 8.76043 7.35701H7.90477C7.90477 6.6912 8.03262 6.02122 7.2081 5.95834L7.20365 8.3721C8.41987 8.571 8.77986 9.07174 8.77986 10.2921C8.77986 11.6343 8.74664 12.3741 7.20395 12.4958V13.2855H6.54999V12.5016L6.54985 12.5017ZM7.2081 9.24086L7.20365 11.7239C7.78208 11.6546 7.9242 11.4218 7.9242 10.8157V10.0423C7.9242 9.49746 7.73539 9.30822 7.20828 9.2409L7.2081 9.24086ZM6.54985 8.30227V5.96206C5.62535 6.06203 5.82974 6.8195 5.82974 7.54257C5.82974 8.07844 6.07002 8.21817 6.54985 8.30227ZM1.41667 1.55574H0.915194V19.7256H1.41667V18.6822H3.74871V19.7256H4.25079V18.6822H6.58269V19.7256H7.08446V18.6822H9.41636V19.7256H9.91844V18.6822H12.2503V19.7256H12.7524V1.55574H12.2503V2.59905H9.91844V1.55574H9.41636V2.59905H7.08446V1.55574H6.58269V2.59905H4.25079V1.55574H3.74871V2.59905H1.41667V1.55574Z" fill="#00B7EE"/>
</svg>
