<svg width="16" height="16" viewBox="0 0 16 16" fill="none" xmlns="http://www.w3.org/2000/svg">
<path d="M7.99642 0C12.405 0 16 3.59499 16 8.00358C16 12.4122 12.405 16 7.99642 16C3.58783 16 1.1614e-05 12.4122 1.1614e-05 8.00358C-0.00108387 7.80956 0.0753579 7.62308 0.212414 7.48566C0.349592 7.34836 0.535829 7.27156 0.729959 7.27229C0.923008 7.27302 1.10778 7.35055 1.24373 7.48773C1.37957 7.62491 1.45529 7.81052 1.45419 8.0036C1.45419 11.6263 4.3739 14.5457 7.99634 14.5457C11.6191 14.5457 14.5457 11.626 14.5457 8.0036C14.5457 4.38087 11.6189 1.45427 7.99634 1.45427C7.80451 1.45354 7.6207 1.3771 7.48499 1.24139C7.3494 1.10567 7.27284 0.92199 7.27211 0.730041C7.27138 0.537236 7.34721 0.351971 7.48305 0.215176C7.61889 0.078241 7.80353 0.000947279 7.99635 0.000218123L7.99642 0ZM5.23725 0.546774C5.52111 0.549573 5.78914 0.719008 5.90331 0.998352C6.05656 1.37035 5.87969 1.79612 5.5071 1.94837C5.49858 1.9519 5.4931 1.95665 5.48592 1.95969C5.11393 2.1172 4.68451 1.94095 4.53017 1.56776C4.37631 1.19723 4.55183 0.772073 4.92211 0.617735C4.93257 0.613353 4.94414 0.605928 4.95339 0.602033C5.04638 0.56369 5.14278 0.545676 5.23736 0.546651L5.23725 0.546774ZM2.87136 2.12026C3.06295 2.12184 3.24613 2.19877 3.38111 2.33473C3.66655 2.61895 3.66655 3.08149 3.38111 3.36571C3.37503 3.37179 3.3715 3.37532 3.36541 3.38141C3.08266 3.6683 2.62012 3.6711 2.33444 3.38713C2.049 3.10291 2.049 2.64037 2.33444 2.35615C2.34186 2.34873 2.34819 2.34215 2.35562 2.33497C2.49194 2.19767 2.67757 2.12074 2.8711 2.1205L2.87136 2.12026ZM7.99633 2.90986V2.90974C8.19035 2.90853 8.37683 2.98509 8.51425 3.12215C8.65155 3.2592 8.72836 3.44556 8.72763 3.63957V8.0036C8.72726 8.13859 8.68928 8.27077 8.61808 8.38531C8.54687 8.49998 8.44511 8.59248 8.32437 8.65261L5.41609 10.1068V10.1067C5.24325 10.1934 5.04301 10.2076 4.85972 10.1464C4.67641 10.085 4.525 9.95332 4.43905 9.78011C4.35239 9.60727 4.33815 9.40715 4.3995 9.22383C4.46072 9.0404 4.59255 8.88911 4.76563 8.80304L7.27212 7.55201V3.6398C7.27139 3.447 7.34723 3.26173 7.48306 3.12494C7.6189 2.988 7.80355 2.91071 7.99637 2.90998L7.99633 2.90986ZM1.28217 4.47337C1.37736 4.47277 1.47425 4.4909 1.56761 4.53022C1.94091 4.68456 2.11706 5.11385 1.95955 5.48597C1.95602 5.49474 1.95127 5.49973 1.94823 5.50715C1.79595 5.87961 1.37017 6.05807 0.998205 5.90482C0.625743 5.75255 0.447287 5.32677 0.600535 4.9548C0.604673 4.94494 0.608203 4.93667 0.611855 4.9279C0.72603 4.64636 0.996625 4.47511 1.28218 4.47352L1.28217 4.47337Z" fill="#00B7EE"/>
</svg>
