<svg width="25" height="24" viewBox="0 0 25 24" fill="none" xmlns="http://www.w3.org/2000/svg">
<path fill-rule="evenodd" clip-rule="evenodd" d="M18.5657 11.9455C18.562 11.524 18.5163 11.1014 18.4306 10.689L18.2952 10.0395L20.7775 8.60768L19.4009 6.22616L16.9109 7.66222L16.4158 7.22029C15.7479 6.6246 14.9852 6.18267 14.1499 5.90812L13.5189 5.70059V2.83362H10.766V5.70059L10.1351 5.90765C9.2992 6.18265 8.53656 6.62413 7.86907 7.21983L7.37398 7.66175L4.8835 6.2257L3.50698 8.60721L5.9897 10.0391L5.8543 10.6885C5.76445 11.1193 5.71906 11.5607 5.71906 12.0002C5.71906 12.4397 5.76445 12.8812 5.8543 13.3114L5.9897 13.9609L3.50698 15.3927L4.8835 17.7742L7.37398 16.3382L7.86907 16.7801C8.53656 17.3758 9.29924 17.8173 10.1351 18.0923L10.766 18.2998V21.1666H12.6338V23H8.93125V19.5969C8.30356 19.332 7.713 18.9901 7.16613 18.5748L4.21224 20.278L1.00047 14.721L3.94752 13.0216C3.90477 12.6824 3.88378 12.341 3.88378 12C3.88378 11.6589 3.90477 11.3176 3.94705 10.9779L1 9.27851L4.21177 3.72149L7.16566 5.42477C7.71253 5.00938 8.30309 4.66802 8.93078 4.40266V1H15.3542V4.40266C15.9818 4.66755 16.5724 5.00938 17.1193 5.42477L20.0732 3.72149L23.2849 9.27851L20.3375 10.9781C20.3774 11.2991 20.3989 11.6223 20.401 11.945L18.5657 11.9455ZM12.13 7.87532C14.4045 7.87532 16.2548 9.72597 16.2548 12.0001C16.2548 14.2743 14.4046 16.1249 12.13 16.1249C9.85589 16.1249 8.00521 14.2743 8.00521 12.0001C8.00521 9.72589 9.85601 7.87532 12.13 7.87532ZM12.13 14.2919C13.3935 14.2919 14.4215 13.2639 14.4215 12.0003C14.4215 10.7366 13.3935 9.70862 12.13 9.70862C10.8665 9.70862 9.8385 10.7366 9.8385 12.0003C9.8385 13.2639 10.8665 14.2919 12.13 14.2919Z" fill="#242424" stroke="white" stroke-width="0.5"/>
<circle cx="19.5" cy="18.5" r="4.5" fill="white"/>
<path d="M19.5001 13C16.4629 13 14 15.4624 14 18.5C14 21.5374 16.463 24 19.5001 24C22.5376 24 25 21.5377 25 18.5C24.9999 15.4626 22.5377 13 19.5001 13ZM20.6924 20.9995C20.4852 21.1446 20.2406 21.2411 19.9962 21.3086V21.685C19.9962 21.9457 19.7398 22.1483 19.4101 22.1483C19.0804 22.1483 18.824 21.9458 18.824 21.685V21.3086C18.3231 21.1833 17.9447 20.9517 17.6881 20.5945C17.5292 20.3725 17.6275 20.1023 17.9078 19.9574C18.1889 19.8319 18.5427 19.9093 18.7017 20.1313C18.8363 20.3051 19.0193 20.4112 19.2637 20.4401C19.52 20.4689 19.74 20.4207 19.9227 20.2951C20.1182 20.1696 20.2162 20.0058 20.2162 19.8031C20.2042 19.6195 20.1061 19.436 19.9109 19.3203L18.384 18.3263C17.9322 18.0463 17.6758 17.6218 17.6758 17.1682C17.6636 16.7145 17.9077 16.2899 18.3473 15.9908C18.5426 15.846 18.7747 15.759 19.019 15.6914V15.3152C19.019 15.0546 19.2754 14.8519 19.6054 14.8519C19.9349 14.8519 20.1915 15.0546 20.1915 15.3152V15.7012C20.6433 15.8075 21.0341 16.0488 21.2662 16.3867C21.4491 16.6084 21.3394 16.8787 21.0588 17.0235C20.7779 17.1491 20.4359 17.0716 20.2526 16.8497C20.1427 16.6856 19.9592 16.5892 19.7271 16.5603C19.4952 16.5312 19.2878 16.5699 19.1047 16.6955C18.9212 16.8208 18.8361 16.9754 18.8481 17.1587C18.8481 17.342 18.9335 17.4868 19.117 17.6123L20.6559 18.6064C21.1077 18.9056 21.3761 19.3303 21.3884 19.7934C21.3884 20.2663 21.1318 20.7006 20.6924 20.9995L20.6924 20.9995Z" fill="#00B7EE"/>
</svg>
