<svg width="15" height="16" viewBox="0 0 15 16" fill="none" xmlns="http://www.w3.org/2000/svg">
<path d="M7.50014 9.4801C7.68094 9.4801 7.85444 9.40819 7.98228 9.28035C8.11013 9.15251 8.18192 8.97911 8.18192 8.7982V4.02556C8.18192 3.78198 8.05203 3.55689 7.84109 3.43509C7.63015 3.3133 7.37014 3.3133 7.15919 3.43509C6.94825 3.55689 6.81836 3.78198 6.81836 4.02556V8.7982C6.81836 8.97912 6.89016 9.15251 7.018 9.28035C7.14584 9.40819 7.31932 9.4801 7.50014 9.4801Z" fill="#EE3B33"/>
<path d="M8.52202 11.8665C8.52202 12.4314 8.06407 12.8892 7.49929 12.8892C6.93451 12.8892 6.47656 12.4314 6.47656 11.8665C6.47656 11.3017 6.93451 10.8438 7.49929 10.8438C8.06407 10.8438 8.52202 11.3017 8.52202 11.8665Z" fill="#EE3B33"/>
<path d="M7.5 0.609375C5.51094 0.609375 3.60311 1.39959 2.19671 2.80608C0.790219 4.21269 0 6.12031 0 8.10937C0 10.0984 0.790219 12.0063 2.19671 13.4127C3.60331 14.8192 5.51094 15.6094 7.5 15.6094C9.48906 15.6094 11.3969 14.8192 12.8033 13.4127C14.2098 12.0061 15 10.0984 15 8.10937C15 6.12031 14.2098 4.21248 12.8033 2.80608C11.3967 1.39959 9.48906 0.609375 7.5 0.609375ZM7.5 14.2459C5.87254 14.2459 4.31171 13.5994 3.16099 12.4486C2.01019 11.2977 1.36368 9.73695 1.36368 8.10955C1.36368 6.48215 2.01019 4.92126 3.16099 3.77055C4.3118 2.61974 5.8726 1.97323 7.5 1.97323C9.1274 1.97323 10.6883 2.61974 11.839 3.77055C12.9898 4.92135 13.6363 6.48215 13.6363 8.10955C13.6363 9.73695 12.9898 11.2978 11.839 12.4486C10.6882 13.5994 9.1274 14.2459 7.5 14.2459Z" fill="#EE3B33"/>
</svg>
