<svg width="35" height="35" viewBox="0 0 35 35" fill="none" xmlns="http://www.w3.org/2000/svg">
<path fill-rule="evenodd" clip-rule="evenodd" d="M17.5 35C27.165 35 35 27.165 35 17.5C35 7.83502 27.165 0 17.5 0C7.83502 0 0 7.83502 0 17.5C0 27.165 7.83502 35 17.5 35Z" fill="#00B7EE"/>
<path fill-rule="evenodd" clip-rule="evenodd" d="M12.9087 14.9126C13.1629 17.3458 15.2506 19.2647 17.7353 19.2647C20.2205 19.2647 22.3084 17.3461 22.5628 14.9126C23.0748 14.5734 23.3972 13.9935 23.3972 13.3603C23.3972 12.7379 23.086 12.167 22.5885 11.8258V10.853C22.5885 8.17702 20.4115 6 17.7355 6C15.0593 6 12.8825 8.17702 12.8825 10.853V11.8258C12.3853 12.167 12.0737 12.7379 12.0737 13.3603C12.0737 13.9938 12.3962 14.5737 12.9087 14.9127V14.9126ZM21.7248 13.8946L21.3033 14.0434L21.2933 14.4904C21.251 16.4093 19.6549 17.9704 17.7353 17.9704C15.8154 17.9704 14.2198 16.4091 14.1773 14.4905L14.1673 14.043L13.7455 13.8942C13.5196 13.8149 13.3676 13.6002 13.3676 13.3601C13.3676 13.1392 13.4996 12.9447 13.6964 12.8524L13.7887 13.063C16.6147 11.8264 19.1872 11.8223 21.6528 13.0495L21.7558 12.8423C21.9634 12.9303 22.103 13.1319 22.103 13.36C22.103 13.5997 21.951 13.8148 21.7247 13.8946L21.7248 13.8946ZM17.7353 7.29364C19.6977 7.29364 21.2944 8.89029 21.2944 10.8527V11.4812C19.0251 10.6061 16.6801 10.62 14.1764 11.5199V10.8527C14.1761 8.89031 15.7727 7.29366 17.7351 7.29366L17.7353 7.29364Z" fill="white" stroke="#00B7EE" stroke-width="0.2"/>
<path fill-rule="evenodd" clip-rule="evenodd" d="M15.9559 10.3907C15.9977 10.3907 16.0404 10.3866 16.0829 10.3783C17.2049 10.1546 18.3181 10.1473 19.3914 10.3555C19.7446 10.4254 20.0821 10.1947 20.1498 9.84395C20.2181 9.4929 19.9892 9.15321 19.6385 9.08549C18.3989 8.84429 17.1174 8.85309 15.8298 9.10884C15.4795 9.17875 15.2521 9.51964 15.3216 9.86999C15.3833 10.1775 15.6533 10.3907 15.956 10.3907L15.9559 10.3907Z" fill="white" stroke="#00B7EE" stroke-width="0.2"/>
<path fill-rule="evenodd" clip-rule="evenodd" d="M24.4778 20.4625L21.618 19.2683V19.2644H20.3236V24.1175L15.1474 24.1176V19.2646H13.8881L13.8879 19.2636L13.8857 19.2646H13.8534V19.2785L11.0694 20.4645C9.79299 21.0083 9 22.1645 9 23.4824V28H10.294L10.2942 23.4824C10.2942 22.6802 10.7738 21.9971 11.5768 21.655L11.9121 21.5122V24.1178L11.912 24.1176V28.0001H13.2059V25.412H22.2651V28.0001L23.5592 28V21.4813L23.979 21.6566C24.7517 21.9791 25.177 22.6233 25.177 23.4708V28.0001H26.4712V23.4703C26.4712 22.1078 25.7261 20.9834 24.4778 20.4621L24.4778 20.4625ZM13.2062 24.1176V20.9608L13.8533 20.6849V24.1175L13.2062 24.1173V24.1176ZM22.2653 24.1176H21.6179V20.671L22.2653 20.9411V24.1176Z" fill="white" stroke="#00B7EE" stroke-width="0.2"/>
<path fill-rule="evenodd" clip-rule="evenodd" d="M17.7353 19.9115C17.3788 19.9115 17.0884 20.2021 17.0884 20.5586C17.0884 20.9151 17.3788 21.2055 17.7353 21.2055C18.0918 21.2055 18.3827 20.9151 18.3827 20.5586C18.3827 20.2023 18.0918 19.9115 17.7353 19.9115Z" fill="white" stroke="#00B7EE" stroke-width="0.2"/>
<path fill-rule="evenodd" clip-rule="evenodd" d="M17.7353 21.8529C17.3788 21.8529 17.0884 22.1436 17.0884 22.5C17.0884 22.8565 17.3788 23.147 17.7353 23.147C18.0918 23.147 18.3827 22.8565 18.3827 22.5C18.3827 22.1436 18.0918 21.8529 17.7353 21.8529Z" fill="white" stroke="#00B7EE" stroke-width="0.2"/>
</svg>
