<svg width="18" height="22" viewBox="0 0 18 22" fill="none" xmlns="http://www.w3.org/2000/svg">
<path fill-rule="evenodd" clip-rule="evenodd" d="M3.9089 8.91255C4.16313 11.3458 6.25079 13.2647 8.7355 13.2647C11.2207 13.2647 13.3086 11.3461 13.563 8.91255C14.075 8.57336 14.3974 7.99347 14.3974 7.36028C14.3974 6.73792 14.0862 6.16699 13.5887 5.82576V4.85303C13.5887 2.17702 11.4117 0 8.73567 0C6.05948 0 3.88264 2.17702 3.88264 4.85303V5.82576C3.3855 6.16699 3.07391 6.73792 3.07391 7.36028C3.07391 7.99381 3.39635 8.57371 3.9089 8.91273V8.91255ZM12.725 7.89463L12.3035 8.04341L12.2935 8.49041C12.2512 10.4093 10.6551 11.9704 8.7355 11.9704C6.81556 11.9704 5.21995 10.4091 5.17748 8.49054L5.1675 8.04302L4.7457 7.89424C4.51974 7.81486 4.36774 7.60023 4.36774 7.36006C4.36774 7.13917 4.49976 6.9447 4.69661 6.85244L4.78886 7.063C7.61484 5.82639 10.1874 5.82232 12.6529 7.04946L12.756 6.84229C12.9635 6.9303 13.1032 7.13189 13.1032 7.36005C13.1032 7.59972 12.9512 7.81485 12.7249 7.89457L12.725 7.89463ZM8.7355 1.29364C10.6979 1.29364 12.2945 2.89029 12.2945 4.85269V5.48116C10.0253 4.60609 7.68027 4.61996 5.17662 5.51992V4.85271C5.17628 2.89031 6.77292 1.29366 8.73533 1.29366L8.7355 1.29364Z" fill="#979797"/>
<path fill-rule="evenodd" clip-rule="evenodd" d="M6.95593 4.39064C6.99773 4.39064 7.04039 4.38658 7.08287 4.37828C8.20492 4.15452 9.31813 4.14724 10.3914 4.35543C10.7446 4.42534 11.0821 4.19464 11.1498 3.84392C11.2181 3.49287 10.9892 3.15318 10.6385 3.08546C9.39885 2.84426 8.11735 2.85306 6.82982 3.10881C6.47946 3.17872 6.25214 3.51961 6.32155 3.86996C6.38334 4.17751 6.6533 4.39062 6.95596 4.39062L6.95593 4.39064Z" fill="#979797"/>
<path fill-rule="evenodd" clip-rule="evenodd" d="M15.4778 14.4625L12.618 13.2684V13.2645H11.3236V18.1175L6.14736 18.1177V13.2646H4.88808L4.88791 13.2636L4.88571 13.2646H4.85338V13.2785L2.06939 14.4645C0.792994 15.0084 0 16.1645 0 17.4824V22.0001H1.29398L1.29415 17.4824C1.29415 16.6803 1.77382 15.9972 2.57683 15.6551L2.91213 15.5122V18.1178L2.91196 18.1176V22.0002H4.20595V19.412H13.2651V22.0002L14.5592 22V15.4813L14.979 15.6567C15.7517 15.9791 16.177 16.6233 16.177 17.4708V22.0002H17.4712V17.4704C17.4712 16.1078 16.7261 14.9834 15.4778 14.4621L15.4778 14.4625ZM4.20618 18.1177V14.9608L4.85328 14.6849V18.1175L4.20618 18.1174V18.1177ZM13.2653 18.1177H12.6179V14.671L13.2653 14.9411V18.1177Z" fill="#979797"/>
<path fill-rule="evenodd" clip-rule="evenodd" d="M8.73555 13.9115C8.37909 13.9115 8.08862 14.2021 8.08862 14.5586C8.08862 14.9151 8.37907 15.2055 8.73555 15.2055C9.09203 15.2055 9.38295 14.9151 9.38295 14.5586C9.38295 14.2023 9.092 13.9115 8.73555 13.9115Z" fill="#979797"/>
<path fill-rule="evenodd" clip-rule="evenodd" d="M8.73555 15.8529C8.37909 15.8529 8.08862 16.1435 8.08862 16.5C8.08862 16.8565 8.37907 17.1469 8.73555 17.1469C9.09203 17.1469 9.38295 16.8565 9.38295 16.5C9.38295 16.1435 9.092 15.8529 8.73555 15.8529Z" fill="#979797"/>
</svg>
