<svg width="36" height="36" viewBox="0 0 36 36" fill="none" xmlns="http://www.w3.org/2000/svg">
<path fill-rule="evenodd" clip-rule="evenodd" d="M18 36C27.9411 36 36 27.9411 36 18C36 8.05887 27.9411 0 18 0C8.05887 0 0 8.05887 0 18C0 27.9411 8.05887 36 18 36Z" fill="#39FF5A"/>
<path d="M18.0832 8C11.4106 8 6 12.0841 6 17.1295C6 19.232 6.94513 21.1573 8.52952 22.7123C8.55368 22.7686 8.58046 22.8196 8.602 22.8788C8.77338 23.3987 8.80035 23.9556 8.67973 24.4898C8.53907 25.1249 8.245 25.7158 7.82321 26.2109C7.32574 26.7863 6.70163 27.2385 6.00004 27.5322C6.81144 27.8759 7.68948 28.0336 8.56983 27.994C9.56981 27.9495 10.5483 27.6884 11.4374 27.2287C12.2438 26.8101 12.9707 26.254 13.5856 25.5854C15.0447 26.0233 16.56 26.2439 18.0833 26.2405C24.7559 26.2405 30.1665 22.1564 30.1665 17.111C30.1665 12.0653 24.7559 8.00017 18.0833 8.00017L18.0832 8Z" fill="white"/>
</svg>
