<svg width="36" height="36" viewBox="0 0 36 36" fill="none" xmlns="http://www.w3.org/2000/svg">
<path fill-rule="evenodd" clip-rule="evenodd" d="M18 36C27.9411 36 36 27.9411 36 18C36 8.05887 27.9411 0 18 0C8.05887 0 0 8.05887 0 18C0 27.9411 8.05887 36 18 36Z" fill="#F2F2F2"/>
<path d="M11 17.5C11 18.8807 9.88065 20 8.5 20C7.11935 20 6 18.8807 6 17.5C6 16.1193 7.11935 15 8.5 15C9.88065 15 11 16.1193 11 17.5Z" fill="#242424"/>
<path d="M20.0605 17.5C20.0605 18.8807 18.9412 20 17.5605 20C16.1799 20 15.0605 18.8807 15.0605 17.5C15.0605 16.1193 16.1799 15 17.5605 15C18.9412 15 20.0605 16.1193 20.0605 17.5Z" fill="#242424"/>
<path d="M29.1201 17.5C29.1201 18.8807 28.0008 20 26.6201 20C25.2395 20 24.1201 18.8807 24.1201 17.5C24.1201 16.1193 25.2395 15 26.6201 15C28.0008 15 29.1201 16.1193 29.1201 17.5Z" fill="#242424"/>
</svg>
