<svg width="36" height="36" viewBox="0 0 36 36" fill="none" xmlns="http://www.w3.org/2000/svg">
<path fill-rule="evenodd" clip-rule="evenodd" d="M18 36C27.9411 36 36 27.9411 36 18C36 8.05887 27.9411 0 18 0C8.05887 0 0 8.05887 0 18C0 27.9411 8.05887 36 18 36Z" fill="#25D366"/>
<path fill-rule="evenodd" clip-rule="evenodd" d="M25.0286 10.9674C23.2474 9.19269 20.8787 8.21491 18.3551 8.21387C13.1551 8.21387 8.92302 12.4256 8.92093 17.6021C8.92023 19.2569 9.35459 20.8722 10.1802 22.296L8.8418 27.1612L13.843 25.8556C15.221 26.6037 16.7724 26.9979 18.3513 26.9984H18.3552C23.5547 26.9984 27.7872 22.7864 27.7892 17.6096C27.7902 15.1008 26.8098 12.742 25.0286 10.9674ZM18.3551 25.4128H18.3519C16.9449 25.4122 15.565 25.0359 14.3609 24.325L14.0747 24.1558L11.1069 24.9307L11.8991 22.051L11.7126 21.7557C10.9276 20.5132 10.5131 19.0771 10.5138 17.6027C10.5154 13.3001 14.0331 9.7996 18.3582 9.7996C20.4527 9.80029 22.4215 10.613 23.9019 12.0881C25.3823 13.5632 26.1971 15.5238 26.1964 17.609C26.1945 21.912 22.6771 25.4128 18.3551 25.4128ZM22.6562 19.5682C22.4205 19.4507 21.2615 18.8833 21.0454 18.8049C20.8295 18.7266 20.6722 18.6877 20.5152 18.9224C20.358 19.1572 19.9063 19.6857 19.7687 19.8421C19.6311 19.9987 19.4938 20.0184 19.258 19.9009C19.0222 19.7835 18.2627 19.5357 17.3623 18.7365C16.6616 18.1144 16.1885 17.3462 16.0509 17.1114C15.9136 16.8764 16.0498 16.7617 16.1544 16.6326C16.4095 16.3173 16.6651 15.9866 16.7436 15.8302C16.8223 15.6736 16.7829 15.5365 16.7239 15.4192C16.6651 15.3018 16.1936 14.1471 15.9973 13.6772C15.8058 13.2199 15.6116 13.2817 15.4668 13.2745C15.3294 13.2677 15.1722 13.2663 15.015 13.2663C14.8579 13.2663 14.6025 13.3249 14.3864 13.5599C14.1703 13.7948 13.5614 14.3623 13.5614 15.517C13.5614 16.6717 14.4061 17.7872 14.5239 17.9438C14.6418 18.1004 16.1862 20.47 18.5508 21.486C19.1132 21.728 19.5522 21.8722 19.8947 21.9803C20.4594 22.1589 20.9731 22.1337 21.3794 22.0733C21.8323 22.0059 22.7739 21.5057 22.9705 20.9578C23.1669 20.4097 23.1669 19.9401 23.1079 19.8421C23.0491 19.7443 22.8918 19.6857 22.6562 19.5682Z" fill="white"/>
</svg>
